SplineFontDB: 3.2
FontName: font1
FullName: font1
FamilyName: Silhouette's Roundhand
Weight: Regular
Copyright: 
Version: 
ItalicAngle: 0
UnderlinePosition: 0
UnderlineWidth: 0
Ascent: 600
Descent: 400
InvalidEm: 0
LayerCount: 2
Layer: 0 0 "Back" 1
Layer: 1 0 "Fore" 0
HasVMetrics: 1
XUID: [1021 251 -417166495 30036]
OS2Version: 0
OS2_WeightWidthSlopeOnly: 0
OS2_UseTypoMetrics: 0
CreationTime: 1743797763
ModificationTime: 1743797918
PfmFamily: 17
TTFWeight: 400
TTFWidth: 5
LineGap: 90
VLineGap: 90
OS2TypoAscent: 0
OS2TypoAOffset: 1
OS2TypoDescent: 0
OS2TypoDOffset: 1
OS2TypoLinegap: 90
OS2WinAscent: 0
OS2WinAOffset: 1
OS2WinDescent: 0
OS2WinDOffset: 1
HheadAscent: 0
HheadAOffset: 1
HheadDescent: 0
HheadDOffset: 1
OS2Vendor: 'PfEd'
MarkAttachClasses: 1
DEI: 91125
Encoding: Custom
UnicodeInterp: none
NameList: AGL For New Fonts
DisplaySize: -48
AntiAlias: 1
FitToEm: 0
WinInfo: 0 16 3
BeginPrivate: 0
EndPrivate
BeginChars: 25 25

StartChar: .notdef
Encoding: 0 0 0
Width: 1000
VWidth: 1024
Flags: H
LayerCount: 2
Fore
SplineSet
0 0 m 1
 0 1000 l 1
 1000 1000 l 1
 1000 0 l 1
 0 0 l 1
EndSplineSet
Validated: 4194305
EndChar

StartChar: i
Encoding: 1 105 1
Width: 177
VWidth: 1024
Flags: HW
LayerCount: 2
Fore
SplineSet
346.28125 611.75 m 1
 347.625 610.26953 l 1
 321.52887 586.59457 286.19484 556.59355 263.04492 537.33008 c 0
 247.35994 524.27832 233.09373 514.45256 214.98047 500.61523 c 0
 196.01218 486.12475 175.99989 472.24347 155.76758 459.01367 c 0
 132.37606 443.71818 111.1442 431.35937 85.867188 418.83008 c 0
 79.037875 415.4449 66.625765 410.04963 58.066406 407.08789 c 0
 49.432279 404.10028 42.929611 402.48819 40.880859 402.03711 c 0
 38.863708 401.59309 36.859873 401.12649 33.947266 400.63086 c 0
 30.590269 400.05956 26.260958 399.95736 25.125 400.00586 c 0
 21.39975 400.16499 18.693303 400.58827 16.666016 401.06836 c 0
 14.963038 401.47164 14.475434 401.70145 13.632812 401.92773 c 0
 12.649265 402.19127 11.42534 402.74381 10.138672 403.50586 c 0
 8.1927077 404.56833 6.173569 406.01086 4.4824219 408.38086 c 0
 4.4185051 408.47043 4.3922011 408.55934 4.3300781 408.64844 c 0
 4.2087105 408.82391 4.134061 409.00595 4.0273438 409.18359 c 0
 2.3603041 411.69571 1.2971627 414.09638 0.73828125 417.52539 c 0
 -0.16232909 423.05114 0.02187938 424.83169 0.00390625 426.42578 c 0
 -0.02487346 428.97336 0.24625005 431.23014 0.7421875 433.98438 c 0
 1.1979774 436.51564 2.0399431 439.90041 2.9160156 442.31055 c 0
 4.2065257 445.86074 4.0633315 445.52039 5.1152344 448.13867 c 0
 5.6830042 449.55198 6.4144954 451.01378 7.4355469 453.13477 c 0
 9.5073604 457.43845 12.823644 462.11548 16.816406 467.46875 c 0
 20.14918 471.93716 27.57882 480.79667 31.751953 485.24219 c 0
 49.17756 503.80503 75.801645 530.46377 95.699219 550.90039 c 1
 89.837733 545.78983 83.426593 540.31784 73.867188 532.36328 c 0
 58.209387 519.33413 52.413642 515.15365 34.285156 501.30469 c 0
 15.360154 486.84727 -6.1562547 469.3606 -26.296875 455.89648 c 0
 -51.701913 438.9131 -42.802278 442.69602 -86.013672 416.67383 c 0
 -92.581558 412.71864 -123.65824 395.35798 -132.13672 391.67578 c 0
 -139.10164 388.65092 -152.69911 381.87365 -167.76172 375.20312 c 0
 -182.82433 368.53262 -199.35695 361.95497 -212.41992 359.28711 c 1
 -212.82031 361.24805 l 1
 -200.06666 363.85274 -183.5837 370.38536 -168.57227 377.0332 c 0
 -153.56083 383.68105 -140.02603 390.42953 -132.93359 393.50977 c 0
 -124.93841 396.98207 -93.433655 414.53941 -87.044922 418.38672 c 0
 -43.864056 444.39053 -52.880458 440.53158 -27.410156 457.55859 c 0
 -7.3877501 470.94368 14.110308 488.40889 33.072266 502.89453 c 0
 51.20986 516.75045 56.954871 520.89186 72.587891 533.90039 c 0
 95.716091 553.14579 101.67945 558.73048 121.02734 576.36719 c 0
 129.02463 584.2358 137.1023 592.02284 145.24023 599.7207 c 2
 145.5293 599.99414 l 1
 145.92773 599.99414 l 2
 150.696654828 599.989967586 156.638407765 599.988672699 162.177121703 599.988672699 c 0
 171.240471784 599.988672699 179.22461 599.99214 179.22461 599.99214 c 1
 181.61719 599.99414 l 1
 179.9375 598.29102 l 1
 179.9375 598.29102 160.7662 578.85226 142.44727 559.86523 c 0
 124.11439 540.86383 93.848275 510.20108 71.298828 486.99805 c 0
 48.745207 463.79071 42.945698 457.76073 35.578125 450.05664 c 0
 28.209471 442.35138 23.176889 437.09062 18.042969 431.42969 c 0
 14.946343 428.01522 14.291954 427.4131 11.919922 424.66797 c 0
 9.253739 421.58242 11.26717 423.94232 8.2460938 420.43555 c 0
 7.6750248 419.77266 6.9583145 418.80589 6.5742188 418.11719 c 0
 6.127092 417.31545 5.8619295 416.78689 5.546875 416.08984 c 0
 5.1909843 415.30245 4.9814489 414.58357 4.9199219 414.23828 c 0
 4.6655129 412.81134 4.8126388 412.91686 4.9824219 411.94531 c 0
 5.0788639 411.39346 5.3785867 410.77143 5.7734375 410.13086 c 0
 5.8427872 410.02855 5.8749806 409.93183 5.9472656 409.82812 c 0
 6.4183036 409.13486 7.031675 408.41271 7.8222656 407.6875 c 0
 8.9077634 406.69178 10.146012 405.82906 11.283203 405.16797 c 0
 12.320277 404.61783 13.390859 404.06289 14.150391 403.85938 c 0
 15.122736 403.59832 15.507393 403.3972 17.126953 403.01367 c 0
 19.021972 402.5649 21.594797 402.16033 25.210938 402.00586 c 0
 25.928419 401.9752 30.516677 402.07462 33.613281 402.60156 c 0
 36.470854 403.08783 38.418303 403.54275 40.451172 403.99023 c 0
 42.38884 404.41686 48.861557 406.01787 57.412109 408.97656 c 0
 65.82557 411.88782 78.258582 417.29112 84.980469 420.62305 c 0
 110.18793 433.11786 131.33321 445.42529 154.67383 460.6875 c 0
 174.8754 473.8972 194.84696 487.75054 213.76562 502.20312 c 0
 231.91845 516.07068 246.15977 525.88127 261.76562 538.86719 c 0
 284.89986 558.11761 320.22778 588.11375 346.28125 611.75 c 1
EndSplineSet
Validated: 524289
EndChar

StartChar: i.li
Encoding: 2 -1 2
Width: 177
VWidth: 1024
Flags: HW
LayerCount: 2
Fore
SplineSet
346.28125 611.75 m 1
 347.62495 610.26949 l 1
 321.52882 586.59453 286.19479 556.59351 263.04487 537.33004 c 0
 247.35989 524.27828 233.09368 514.45252 214.98042 500.61519 c 0
 196.01213 486.12471 175.99984 472.24343 155.76753 459.01363 c 0
 132.37601 443.71814 111.14415 431.35933 85.867142 418.83004 c 0
 79.037829 415.44486 66.625719 410.04959 58.06636 407.08785 c 0
 49.432233 404.10024 42.929565 402.48815 40.880813 402.03707 c 0
 38.863662 401.59305 36.859827 401.12645 33.94722 400.63082 c 0
 30.587863 400.05912 26.225077 399.97352 25.138626 400.00582 c 0
 24.422284 400.02715 21.718963 400.06565 17.91011 400.81637 c 0
 17.163462 400.96352 16.412883 401.1306 15.564407 401.36519 c 0
 14.921969 401.54282 14.236388 401.76564 13.632766 401.92769 c 0
 12.684187 402.18186 11.469315 402.72566 10.183548 403.48238 c 0
 8.2188507 404.54388 6.1938688 405.98231 4.4823759 408.38082 c 0
 4.4184591 408.47039 4.3921551 408.5593 4.3300321 408.6484 c 0
 4.2086645 408.82387 4.134015 409.00591 4.0272978 409.18355 c 0
 2.3602581 411.69567 1.2971167 414.09634 0.73823525 417.52535 c 0
 -0.16237509 423.0511 0.02183338 424.83165 0.00386025 426.42574 c 0
 -0.02491946 428.97332 0.24620405 431.2301 0.7421415 433.98434 c 0
 1.1979314 436.5156 2.0398971 439.90037 2.9159696 442.31051 c 0
 4.2064797 445.8607 4.0632855 445.52035 5.1151884 448.13863 c 0
 5.6829582 449.55194 6.4144494 451.01374 7.4355009 453.13473 c 0
 9.5073144 457.43841 12.823598 462.11544 16.81636 467.46871 c 0
 20.149134 471.93712 27.578774 480.79663 31.751907 485.24215 c 0
 49.527582 504.17791 77.007812 531.66285 97.017532 552.2441 c 2
 97.226516 552.45894 l 1
 97.228516 552.46094 l 2
 112.88757 568.52476 128.94166 584.30349 145.24023 599.7207 c 2
 145.5293 599.99414 l 1
 145.92773 599.99414 l 2
 150.696654828 599.989967586 156.638407765 599.988672699 162.177121703 599.988672699 c 0
 171.240471784 599.988672699 179.22461 599.99214 179.22461 599.99214 c 1
 181.61719 599.99414 l 1
 179.9375 598.29102 l 1
 179.9375 598.29102 160.7662 578.85226 142.44727 559.86523 c 0
 124.11439 540.86383 93.848275 510.20108 71.298828 486.99805 c 0
 48.745207 463.79071 42.945698 457.76073 35.578125 450.05664 c 0
 28.209471 442.35138 23.176889 437.09062 18.042969 431.42969 c 0
 14.946343 428.01522 14.291954 427.4131 11.919922 424.66797 c 0
 9.253739 421.58242 11.26717 423.94232 8.2460938 420.43555 c 0
 7.6750248 419.77266 6.9583145 418.80589 6.5742188 418.11719 c 0
 6.1270918 417.31545 5.8619295 416.78689 5.546875 416.08984 c 0
 5.1909843 415.30245 4.9814489 414.58357 4.9199219 414.23828 c 0
 4.6655129 412.81134 4.8126388 412.91686 4.9824219 411.94531 c 0
 5.0788639 411.39346 5.3785867 410.77143 5.7734375 410.13086 c 0
 5.8427872 410.02855 5.8749806 409.93183 5.9472656 409.82812 c 0
 6.4183036 409.13487 7.031675 408.41271 7.8222656 407.6875 c 0
 9.9943264 405.69508 12.874145 404.20132 14.150391 403.85938 c 0
 14.829425 403.67711 15.523136 403.45182 16.097656 403.29297 c 0
 16.889153 403.07413 17.581525 402.91833 18.296875 402.77734 c 0
 21.94536 402.05826 24.40504 402.02946 25.197266 402.00586 c 0
 25.965119 401.983 30.519038 402.07502 33.613281 402.60156 c 0
 36.470854 403.08783 38.418303 403.54275 40.451172 403.99023 c 0
 42.38884 404.41686 48.861557 406.01787 57.412109 408.97656 c 0
 65.82557 411.88782 78.258582 417.29112 84.980469 420.62305 c 0
 110.18793 433.11786 131.33321 445.42529 154.67383 460.6875 c 0
 174.8754 473.8972 194.84696 487.75054 213.76562 502.20312 c 0
 231.91845 516.07068 246.15977 525.88127 261.76562 538.86719 c 0
 284.89986 558.11761 320.22778 588.11375 346.28125 611.75 c 1
EndSplineSet
Validated: 524289
EndChar

StartChar: i.ri
Encoding: 3 -1 3
Width: 177
VWidth: 1024
Flags: HW
LayerCount: 2
Fore
SplineSet
145.5293 599.99414 m 1
 145.92773 599.99418 l 2
 150.696654828 599.990007586 156.638407765 599.988712699 162.177121703 599.988712699 c 0
 171.240471784 599.988712699 179.22461 599.99218 179.22461 599.99218 c 1
 181.61719 599.99418 l 1
 179.9375 598.29106 l 1
 179.9375 598.29106 160.7662 578.8523 142.44727 559.86527 c 0
 124.11439 540.86387 93.848275 510.20112 71.298828 486.99809 c 0
 48.745207 463.79075 42.945698 457.76077 35.578125 450.05668 c 0
 28.209471 442.35142 23.176889 437.09066 18.042969 431.42973 c 0
 14.946343 428.01526 14.291954 427.41314 11.919922 424.66801 c 0
 9.253739 421.58246 11.26717 423.94236 8.2460938 420.43559 c 0
 7.6750249 419.7727 6.9583145 418.80593 6.5742188 418.11723 c 0
 6.1270918 417.31549 5.8619295 416.78693 5.546875 416.08988 c 0
 5.1909843 415.30249 4.9814489 414.58361 4.9199219 414.23832 c 0
 4.6655129 412.81138 4.8126388 412.9169 4.9824219 411.94535 c 0
 5.0788639 411.3935 5.3785867 410.77147 5.7734375 410.1309 c 0
 5.8427872 410.02859 5.8749806 409.93187 5.9472656 409.82816 c 0
 6.4183036 409.1349 7.031675 408.41275 7.8222656 407.68754 c 0
 9.9963016 405.6933 12.778025 404.23126 14.142578 403.86332 c 0
 15.025474 403.62675 15.890093 403.36565 16.65625 403.16215 c 0
 17.191124 403.02009 18.7343 402.67587 20.277344 402.46684 c 0
 22.423665 402.17606 24.818799 402.0172 25.199219 402.0059 c 0
 25.966291 401.98298 30.518799 402.07745 33.613281 402.60356 c 0
 36.470844 403.08987 38.418288 403.54284 40.451172 403.99027 c 0
 42.388885 404.41696 48.861585 406.01991 57.412109 408.97856 c 0
 65.82555 411.88981 78.258598 417.29111 84.980469 420.62309 c 0
 110.18786 433.11785 131.33522 445.42538 154.67578 460.68754 c 0
 174.86477 473.8891 195.69827 488.95437 214.46484 503.61137 c 0
 234.01688 518.88183 241.01012 524.05572 256.29102 537.34379 c 0
 267.93973 547.47337 281.74201 559.63156 286.7832 564.67777 c 1
 288.19727 563.26566 l 1
 283.0036 558.06682 269.2597 545.97011 257.60352 535.83402 c 0
 242.28847 522.51626 235.23767 517.2981 215.69531 502.0352 c 0
 196.88677 487.34542 176.01432 472.25175 155.76953 459.01371 c 0
 132.37807 443.71827 111.14608 431.35936 85.869141 418.83012 c 0
 79.039832 415.44489 66.625745 410.04967 58.066406 407.08793 c 0
 49.43231 404.10037 42.931506 402.48827 40.882812 402.03715 c 0
 38.865677 401.59318 36.8618 401.12658 33.949219 400.6309 c 0
 30.590113 400.05985 26.225894 399.97535 25.138672 400.00785 c 0
 24.522498 400.02624 22.24783 400.1829 20.007812 400.48637 c 0
 18.356672 400.71005 16.814693 401.05056 16.144531 401.22856 c 0
 15.332453 401.44425 14.47175 401.70475 13.632812 401.92973 c 1
 13.632812 401.92773 l 1
 12.649414 402.19123 11.42689 402.74172 10.142578 403.50195 c 0
 8.1918093 404.56408 6.1796154 406.00239 4.4824219 408.38086 c 0
 4.4185051 408.47043 4.3922011 408.55934 4.3300781 408.64844 c 0
 4.2087105 408.82391 4.134061 409.00595 4.0273438 409.18359 c 0
 2.3603041 411.69571 1.2971627 414.09638 0.73828125 417.52539 c 0
 -0.16232909 423.05114 0.02187938 424.83169 0.00390625 426.42578 c 0
 -0.02487346 428.97336 0.24625005 431.23014 0.7421875 433.98438 c 0
 1.1979774 436.51564 2.0399431 439.90041 2.9160156 442.31055 c 0
 4.2065257 445.86074 4.0633315 445.52039 5.1152344 448.13867 c 0
 5.6830042 449.55198 6.4144954 451.01378 7.4355469 453.13477 c 0
 9.5073604 457.43845 12.823644 462.11548 16.816406 467.46875 c 0
 20.14918 471.93716 27.57882 480.79667 31.751953 485.24219 c 0
 49.17756 503.80503 75.801645 530.46377 95.699219 550.90039 c 1
 89.837733 545.78983 83.426593 540.31784 73.867188 532.36328 c 0
 58.209387 519.33413 52.413642 515.15365 34.285156 501.30469 c 0
 15.360154 486.84727 -6.1562547 469.3606 -26.296875 455.89648 c 0
 -51.701913 438.9131 -42.802278 442.69602 -86.013672 416.67383 c 0
 -92.581558 412.71864 -123.65824 395.35798 -132.13672 391.67578 c 0
 -139.10164 388.65092 -152.69911 381.87365 -167.76172 375.20312 c 0
 -182.82433 368.53262 -199.35695 361.95497 -212.41992 359.28711 c 1
 -212.82031 361.24805 l 1
 -200.06666 363.85274 -183.5837 370.38536 -168.57227 377.0332 c 0
 -153.56083 383.68105 -140.02603 390.42953 -132.93359 393.50977 c 0
 -124.93841 396.98207 -93.433655 414.53941 -87.044922 418.38672 c 0
 -43.864056 444.39053 -52.880458 440.53158 -27.410156 457.55859 c 0
 -7.3877501 470.94368 14.110308 488.40889 33.072266 502.89453 c 0
 51.20986 516.75045 56.954871 520.89186 72.587891 533.90039 c 0
 95.716091 553.14579 101.67945 558.73048 121.02734 576.36719 c 0
 129.02463 584.2358 137.1023 592.02284 145.24023 599.7207 c 2
 145.5293 599.99414 l 1
EndSplineSet
Validated: 524289
EndChar

StartChar: i.li.ri
Encoding: 4 -1 4
Width: 177
VWidth: 1024
Flags: HW
LayerCount: 2
Fore
SplineSet
145.5293 599.99414 m 1
 145.92768 599.99414 l 2
 150.696604828 599.989967586 156.638357765 599.988672699 162.177071703 599.988672699 c 0
 171.240421784 599.988672699 179.22456 599.99214 179.22456 599.99214 c 1
 181.61714 599.99414 l 1
 179.93745 598.29102 l 1
 179.93745 598.29102 160.76615 578.85226 142.44722 559.86523 c 0
 124.11434 540.86383 93.848229 510.20108 71.298782 486.99805 c 0
 48.745161 463.79071 42.945652 457.76073 35.578079 450.05664 c 0
 28.209425 442.35138 23.176843 437.09062 18.042923 431.42969 c 0
 14.946297 428.01522 14.291908 427.4131 11.919876 424.66797 c 0
 9.253693 421.58242 11.267124 423.94232 8.2460478 420.43555 c 0
 7.6749788 419.77266 6.9582685 418.80589 6.5741728 418.11719 c 0
 6.1270458 417.31545 5.8618835 416.78689 5.546829 416.08984 c 0
 5.1909383 415.30245 4.9814029 414.58357 4.9198759 414.23828 c 0
 4.6654669 412.81134 4.8125928 412.91686 4.9823759 411.94531 c 0
 5.0788179 411.39346 5.3785407 410.77143 5.7733915 410.13086 c 0
 5.8427412 410.02855 5.8749346 409.93183 5.9472196 409.82812 c 0
 6.4182576 409.13486 7.031629 408.41271 7.8222196 407.6875 c 0
 9.9949461 405.69446 12.797772 404.22594 14.142532 403.86328 c 0
 15.167692 403.58859 16.130843 403.25552 16.988235 403.07422 c 0
 18.293746 402.79817 19.432939 402.54978 20.499954 402.40039 c 0
 22.807853 402.07726 24.642673 402.02246 25.199173 402.00586 c 0
 25.966245 401.98294 30.518753 402.07741 33.613235 402.60352 c 0
 36.470798 403.08983 38.418242 403.5428 40.451126 403.99023 c 0
 42.388839 404.41692 48.861539 406.01987 57.412063 408.97852 c 0
 65.825504 411.88977 78.258552 417.29107 84.980423 420.62305 c 0
 110.18781 433.11781 131.33517 445.42534 154.67573 460.6875 c 0
 174.86472 473.88906 195.69822 488.95433 214.46479 503.61133 c 0
 234.01683 518.88179 241.01007 524.05568 256.29097 537.34375 c 0
 267.93968 547.47333 281.74196 559.63152 286.78315 564.67773 c 1
 288.19722 563.26562 l 1
 283.00355 558.06679 269.25965 545.97007 257.60347 535.83398 c 0
 242.28842 522.51622 235.23762 517.29806 215.69526 502.03516 c 0
 196.88672 487.34538 176.01427 472.25171 155.76948 459.01367 c 0
 132.37802 443.71823 111.14603 431.35932 85.869095 418.83008 c 0
 79.039786 415.44485 66.625699 410.04963 58.06636 407.08789 c 0
 49.432264 404.10033 42.93146 402.48823 40.882766 402.03711 c 0
 38.865631 401.59314 36.861754 401.12654 33.949173 400.63086 c 0
 30.590067 400.05981 26.225848 399.97531 25.138626 400.00781 c 0
 24.58093 400.02445 22.644049 400.08089 20.22261 400.41992 c 0
 19.051065 400.58395 17.872376 400.84268 16.574173 401.11719 c 0
 15.543071 401.33522 14.55918 401.68102 13.632766 401.92969 c 1
 13.632766 401.92769 l 1
 12.657772 402.18894 11.436713 402.73686 10.152298 403.49605 c 0
 8.1987026 404.55806 6.182373 405.99842 4.4823759 408.38082 c 0
 4.4184591 408.47039 4.3921551 408.5593 4.3300321 408.6484 c 0
 4.2086645 408.82387 4.134015 409.00591 4.0272978 409.18355 c 0
 2.3602581 411.69567 1.2971167 414.09634 0.73823525 417.52535 c 0
 -0.16237509 423.0511 0.02183338 424.83165 0.00386025 426.42574 c 0
 -0.02491946 428.97332 0.24620405 431.2301 0.7421415 433.98434 c 0
 1.1979314 436.5156 2.0398971 439.90037 2.9159696 442.31051 c 0
 4.2064797 445.8607 4.0632855 445.52035 5.1151884 448.13863 c 0
 5.6829582 449.55194 6.4144494 451.01374 7.4355009 453.13473 c 0
 9.5073144 457.43841 12.823598 462.11544 16.81636 467.46871 c 0
 20.149134 471.93712 27.578774 480.79663 31.751907 485.24215 c 0
 49.527582 504.17791 77.007812 531.66285 97.017532 552.2441 c 2
 97.226516 552.45894 l 1
 97.228516 552.46094 l 2
 112.88757 568.52476 128.94166 584.30349 145.24023 599.7207 c 2
 145.5293 599.99414 l 1
EndSplineSet
Validated: 524289
EndChar

StartChar: n
Encoding: 5 110 5
Width: 362
VWidth: 1024
Flags: HW
LayerCount: 2
Fore
SplineSet
531.69141 611.73633 m 1
 533.03519 610.25378 l 1
 506.93905 586.57881 471.60502 556.5778 448.45511 537.31432 c 0
 432.77013 524.26256 418.50392 514.43681 400.39065 500.59948 c 0
 381.42239 486.109 361.41007 472.22967 341.17776 458.99987 c 0
 317.78624 443.70438 296.55439 431.34556 271.27737 418.81628 c 0
 264.44806 415.4311 252.034 410.03388 243.47464 407.07214 c 0
 234.84051 404.08453 228.3398 402.47439 226.29105 402.02331 c 0
 224.27389 401.57929 222.27006 401.11269 219.35745 400.61706 c 0
 216.00046 400.04576 211.67114 399.94356 210.53519 399.99206 c 0
 206.80994 400.15119 204.10349 400.57447 202.0762 401.05456 c 0
 200.36888 401.45887 199.88178 401.68904 199.03519 401.91589 c 2
 199.03519 401.91989 l 2
 198.00602 402.19801 196.79243 402.77479 195.53323 403.56442 c 0
 193.59454 404.67751 191.62464 406.17396 189.97269 408.59372 c 0
 189.91175 408.68297 189.88735 408.77065 189.82815 408.85935 c 0
 189.70555 409.04445 189.63024 409.23474 189.52347 409.42185 c 0
 187.90595 411.97597 186.89158 414.40802 186.40237 417.85935 c 0
 185.61265 423.4309 185.83444 425.21359 185.84964 426.81638 c 0
 185.87387 429.37674 186.1942 431.63915 186.75003 434.39645 c 0
 187.26082 436.93046 188.175 440.31539 189.1055 442.71872 c 0
 190.47646 446.25949 190.3258 445.92001 191.43753 448.52927 c 0
 192.03748 449.93742 192.80271 451.38981 193.87308 453.49997 c 0
 196.0446 457.78103 199.4755 462.41262 203.59964 467.70895 c 0
 207.04184 472.1295 214.6923 480.87956 218.97855 485.25974 c 0
 225.11595 491.53153 229.45409 496.07006 233.45901 500.04099 c 0
 234.76612 501.58351 237.02722 504.03975 247.87112 514.74411 c 0
 271.02036 537.59548 276.97438 543.53461 284.53909 551.12302 c 0
 292.10491 558.71258 297.27142 563.8947 302.54886 569.47653 c 0
 305.73198 572.8432 306.4027 573.43329 308.84378 576.14255 c 0
 311.58751 579.1877 309.51391 576.85922 312.62308 580.32028 c 0
 313.211 580.97476 313.95091 581.93253 314.35159 582.61716 c 0
 314.81771 583.41362 315.09658 583.93878 315.42776 584.63278 c 0
 315.80201 585.41695 316.02653 586.1359 316.09573 586.48239 c 0
 316.38147 587.91155 316.2323 587.80967 316.08203 588.78903 c 0
 315.99645 589.34675 315.70831 589.97994 315.32422 590.63278 c 0
 315.25688 590.73669 315.22645 590.83406 315.15625 590.93942 c 0
 314.69705 591.64647 314.09613 592.3852 313.31641 593.13083 c 0
 311.15997 595.19295 308.45539 596.73012 307.05469 597.10544 c 0
 306.16592 597.3435 305.20032 597.57725 304.69922 597.67185 c 0
 303.63996 597.87183 303.14867 597.90813 302.61914 597.94333 c 0
 302.0876 597.97873 301.62544 598.00393 300.55859 597.99023 c 0
 296.81527 597.94195 290.50221 596.87099 285.44727 595.06445 c 0
 261.25001 586.41682 228.16558 561.72111 214.61719 551.83398 c 0
 184.42348 529.79974 112.81689 473.54116 74.193359 437.15625 c 0
 61.832112 424.71185 49.258968 412.4456 36.529297 400.4043 c 2
 36.238281 400.13086 l 1
 35.839844 400.13086 l 2
 31.0504182069 400.135032414 25.0832038224 400.136327301 19.5207806826 400.136327301 c 0
 10.4186337268 400.136327301 2.4003906 400.13286 2.4003906 400.13286 c 1
 0.0078125 400.13086 l 1
 1.6875 401.83398 l 1
 1.6875 401.83398 20.942156 421.35517 39.339844 440.42383 c 0
 57.751475 459.50686 88.146608 490.30268 110.79294 513.60544 c 0
 133.44349 536.9125 139.2687 542.96785 146.66794 550.70505 c 0
 154.06827 558.44341 159.12323 563.72675 164.27927 569.41208 c 0
 167.38915 572.84119 168.04738 573.44612 170.42966 576.20309 c 0
 173.10729 579.30189 171.08308 576.93123 174.11716 580.45309 c 0
 174.69085 581.11903 175.41088 582.09107 175.79685 582.78317 c 0
 176.24593 583.58842 176.51165 584.12016 176.82809 584.82028 c 0
 177.18567 585.61137 177.39715 586.33255 177.45895 586.67966 c 0
 177.71459 588.11314 177.5669 588.00906 177.39645 588.98435 c 0
 177.29942 589.53959 176.99681 590.16635 176.59958 590.81052 c 0
 176.53021 590.91283 176.49805 591.00954 176.42575 591.11325 c 0
 175.95242 591.80996 175.33727 592.535 174.54294 593.26364 c 0
 172.35209 595.27328 169.65213 596.71439 168.19138 597.10739 c 1
 168.19138 597.10539 l 1
 167.29746 597.34496 166.32457 597.5805 165.82028 597.6757 c 0
 164.75631 597.87644 164.26465 597.91354 163.73239 597.94914 c 0
 163.1986 597.98474 162.73363 598.00974 161.66208 597.99604 c 0
 157.7337 597.94545 153.84359 597.8843 148.59958 596.53901 c 0
 143.17998 595.14869 139.56883 593.75765 134.38083 591.53315 c 0
 127.81985 588.71994 118.88891 584.23073 112.3652 580.08198 c 0
 82.139305 560.85995 46.260206 530.79379 38.570282 524.27143 c 0
 22.584861 510.71304 -15.489724 476.86083 -31.464874 463.01948 c 0
 -52.040969 445.19173 -81.749121 423.12557 -110.13284 404.98042 c 0
 -138.51657 386.83526 -165.42101 372.59082 -181.0098 370.47651 c 1
 -181.27933 372.45893 l 1
 -166.59248 374.45091 -139.50826 388.57606 -111.21097 406.66597 c 0
 -82.91367 424.75587 -53.24854 446.79071 -32.775421 464.52925 c 0
 -16.831416 478.34361 21.234333 512.18961 37.277314 525.79683 c 0
 44.994566 532.34234 80.873303 562.42549 111.29099 581.76948 c 0
 117.95978 586.0105 126.92759 590.51358 133.59177 593.37104 c 0
 138.81166 595.60921 142.57677 597.05921 148.10153 598.47651 c 0
 153.5645 599.87797 157.70457 599.94544 161.63669 599.99604 c 0
 162.74936 600.01034 163.31402 599.98004 163.8652 599.94334 c 0
 164.41271 599.90673 165.05499 599.85496 166.19138 599.6406 c 0
 166.81372 599.52315 167.77997 599.28633 168.70309 599.03904 c 1
 168.70309 599.04104 l 1
 169.72372 598.76756 170.95279 598.21288 172.23435 597.45119 c 0
 174.1885 596.3847 176.19009 594.94368 177.89059 592.56057 c 0
 177.95454 592.47099 177.98084 592.38209 178.04294 592.29299 c 0
 178.16589 592.11528 178.24355 591.93189 178.35153 591.75197 c 0
 180.02402 589.23078 181.08746 586.82062 181.64841 583.37893 c 0
 182.55285 577.82966 182.36859 576.04272 182.38669 574.44143 c 0
 182.4156 571.88322 182.1445 569.61753 181.64645 566.85158 c 0
 181.18875 564.30971 180.3445 560.9084 179.46481 558.4883 c 0
 178.16874 554.92283 178.31225 555.26627 177.25583 552.63674 c 0
 176.68572 551.21759 175.9512 549.74929 174.92575 547.61916 c 0
 172.8453 543.29751 169.51375 538.60085 165.50388 533.22463 c 0
 162.15697 528.73729 154.69668 519.83942 150.50583 515.37502 c 0
 135.84788 499.76045 115.23817 478.94664 96.984345 460.34377 c 1
 136.47228 494.62311 188.69887 535.39593 213.43747 553.44924 c 0
 226.95419 563.31325 259.9907 588.08972 284.77536 596.94729 c 0
 290.08483 598.84479 296.44963 599.93755 300.53317 599.99025 c 0
 301.6412 600.00455 302.20314 599.97405 302.75192 599.93755 c 0
 303.29756 599.90132 303.93863 599.85041 305.07028 599.63677 c 0
 305.6916 599.51946 306.65492 599.28205 307.57614 599.03521 c 0
 308.60513 598.75887 309.82515 598.17967 311.08981 597.38677 c 0
 313.02759 596.27365 314.9994 594.77383 316.65036 592.35552 c 0
 316.71255 592.26444 316.73645 592.17453 316.79685 592.08403 c 0
 316.91517 591.90516 316.98823 591.72181 317.09177 591.54107 c 0
 318.71457 588.98204 319.73061 586.54725 320.22067 583.08989 c 0
 321.0104 577.51833 320.78861 575.73565 320.77341 574.13286 c 0
 320.74917 571.5725 320.42885 569.31013 319.87302 566.55278 c 0
 319.36223 564.01883 318.44612 560.63381 317.51559 558.23052 c 0
 316.14465 554.6897 316.29724 555.03116 315.18552 552.42193 c 0
 314.58557 551.01375 313.81839 549.55946 312.74802 547.44927 c 0
 310.57649 543.1682 307.14754 538.53859 303.02341 533.24224 c 0
 299.46132 528.66768 281.71274 509.58021 277.4238 505.19732 c 0
 275.67294 503.40811 274.21608 501.98684 272.75974 500.57036 c 0
 269.34149 496.82406 264.96303 492.33824 258.75192 486.20708 c 0
 235.60269 463.3557 229.64866 457.41458 222.08395 449.82622 c 0
 214.51814 442.23666 209.34968 437.05654 204.07224 431.47466 c 0
 200.88911 428.10804 200.2184 427.5159 197.77731 424.80669 c 0
 195.03359 421.76155 197.10718 424.08997 193.99802 420.62896 c 0
 193.41004 419.97439 192.67017 419.01866 192.2695 418.33403 c 0
 191.80338 417.53755 191.52646 417.01045 191.19528 416.31646 c 0
 190.82104 415.53229 190.59456 414.81526 190.52536 414.4688 c 0
 190.23961 413.03957 190.38879 413.13963 190.53906 412.16021 c 0
 190.62464 411.60255 190.91477 410.97122 191.29883 410.31841 c 0
 191.36617 410.21449 191.3965 410.11715 191.4668 410.01177 c 0
 191.926 409.30472 192.52693 408.56596 193.30664 407.82036 c 0
 195.46358 405.75776 198.15988 404.22316 199.56836 403.84575 c 2
 199.56836 403.84375 l 2
 200.53514 403.58369 200.92176 403.38253 202.53711 403 c 0
 204.43212 402.55123 207.00496 402.1447 210.62109 401.99023 c 0
 211.33858 401.95958 215.92683 402.06095 219.02344 402.58789 c 0
 221.88101 403.07416 223.82846 403.52908 225.86133 403.97656 c 0
 227.799 404.40318 234.27171 406.0042 242.82227 408.96289 c 0
 251.23573 411.87415 263.66875 417.2755 270.39062 420.60742 c 0
 295.5981 433.10223 316.74337 445.41162 340.08398 460.67383 c 0
 360.28556 473.88353 380.25711 487.73688 399.17578 502.18945 c 0
 417.3286 516.057 431.56992 525.86564 447.17578 538.85156 c 0
 470.31001 558.10199 505.63794 588.10007 531.69141 611.73633 c 1
EndSplineSet
Validated: 524289
EndChar

StartChar: n.li
Encoding: 6 -1 6
Width: 362
VWidth: 1024
Flags: HW
LayerCount: 2
Fore
SplineSet
531.69141 611.73633 m 1
 533.03519 610.25378 l 1
 506.93905 586.57881 471.60502 556.5778 448.45511 537.31432 c 0
 432.77013 524.26256 418.50392 514.43681 400.39065 500.59948 c 0
 381.42239 486.109 361.41007 472.22967 341.17776 458.99987 c 0
 317.78624 443.70438 296.55439 431.34556 271.27737 418.81628 c 0
 264.44806 415.4311 252.034 410.03388 243.47464 407.07214 c 0
 234.84051 404.08453 228.3398 402.47439 226.29105 402.02331 c 0
 224.27389 401.57929 222.27006 401.11269 219.35745 400.61706 c 0
 216.00046 400.04576 211.67114 399.94356 210.53519 399.99206 c 0
 206.80994 400.15119 204.10349 400.57447 202.0762 401.05456 c 0
 200.36888 401.45887 199.88178 401.68904 199.03519 401.91589 c 2
 199.03519 401.91989 l 2
 198.00602 402.19801 196.79243 402.77479 195.53323 403.56442 c 0
 193.59454 404.67751 191.62464 406.17396 189.97269 408.59372 c 0
 189.91175 408.68297 189.88735 408.77065 189.82815 408.85935 c 0
 189.70555 409.04445 189.63024 409.23474 189.52347 409.42185 c 0
 187.90595 411.97597 186.89158 414.40802 186.40237 417.85935 c 0
 185.61265 423.4309 185.83444 425.21359 185.84964 426.81638 c 0
 185.87387 429.37674 186.1942 431.63915 186.75003 434.39645 c 0
 187.26082 436.93046 188.175 440.31539 189.1055 442.71872 c 0
 190.47646 446.25949 190.3258 445.92001 191.43753 448.52927 c 0
 192.03748 449.93742 192.80271 451.38981 193.87308 453.49997 c 0
 196.0446 457.78103 199.4755 462.41262 203.59964 467.70895 c 0
 207.04184 472.1295 214.6923 480.87956 218.97855 485.25974 c 0
 225.11595 491.53153 229.45409 496.07006 233.45901 500.04099 c 0
 234.76612 501.58351 237.02722 504.03975 247.87112 514.74411 c 0
 271.02036 537.59548 276.97438 543.53461 284.53909 551.12302 c 0
 292.10491 558.71258 297.27142 563.8947 302.54886 569.47653 c 0
 305.73198 572.8432 306.4027 573.43329 308.84378 576.14255 c 0
 311.58751 579.1877 309.51391 576.85922 312.62308 580.32028 c 0
 313.211 580.97476 313.95091 581.93253 314.35159 582.61716 c 0
 314.81771 583.41362 315.09658 583.93878 315.42776 584.63278 c 0
 315.80201 585.41695 316.02653 586.1359 316.09573 586.48239 c 0
 316.38147 587.91155 316.2323 587.80967 316.08203 588.78903 c 0
 315.99645 589.34675 315.70831 589.97994 315.32422 590.63278 c 0
 315.25688 590.73669 315.22645 590.83406 315.15625 590.93942 c 0
 314.69705 591.64647 314.09613 592.3852 313.31641 593.13083 c 0
 311.15997 595.19295 308.45539 596.73012 307.05469 597.10544 c 0
 306.16592 597.3435 305.20032 597.57725 304.69922 597.67185 c 0
 303.63996 597.87183 303.14867 597.90813 302.61914 597.94333 c 0
 302.0876 597.97873 301.62544 598.00393 300.55859 597.99023 c 0
 296.81527 597.94195 290.50221 596.87099 285.44727 595.06445 c 0
 261.25001 586.41682 228.16558 561.72111 214.61719 551.83398 c 0
 184.42348 529.79974 112.81689 473.54116 74.193359 437.15625 c 0
 61.832112 424.71185 49.258968 412.4456 36.529297 400.4043 c 2
 36.238281 400.13086 l 1
 35.839844 400.13086 l 2
 31.0504182069 400.135032414 25.0832038224 400.136327301 19.5207806826 400.136327301 c 0
 10.4186337268 400.136327301 2.4003906 400.13286 2.4003906 400.13286 c 1
 0.0078125 400.13086 l 1
 1.6875 401.83398 l 1
 1.6875 401.83398 20.942156 421.35517 39.339844 440.42383 c 0
 57.751475 459.50686 88.146608 490.30268 110.79294 513.60549 c 0
 133.44349 536.91255 139.2687 542.9679 146.66794 550.7051 c 0
 154.06827 558.44346 159.12323 563.7268 164.27927 569.41213 c 0
 167.38915 572.84124 168.04738 573.44617 170.42966 576.20314 c 0
 173.10729 579.30194 171.08308 576.93128 174.11716 580.45314 c 0
 174.69085 581.11908 175.41088 582.09112 175.79685 582.78322 c 0
 176.24593 583.58847 176.51165 584.12021 176.82809 584.82033 c 0
 177.18567 585.61142 177.39715 586.3326 177.45895 586.67971 c 0
 177.71459 588.11319 177.5669 588.00911 177.39645 588.9844 c 0
 177.29942 589.53964 176.99681 590.1664 176.59958 590.81057 c 0
 176.53021 590.91288 176.49805 591.00959 176.42575 591.1133 c 0
 175.95242 591.81001 175.33727 592.53505 174.54294 593.26369 c 0
 172.34965 595.27557 169.64513 596.7183 168.18552 597.1094 c 2
 168.70309 599.04104 l 1
 169.72372 598.76756 170.95279 598.21288 172.23435 597.45119 c 0
 174.1885 596.3847 176.19009 594.94368 177.89059 592.56057 c 0
 177.95454 592.47099 177.98084 592.38209 178.04294 592.29299 c 0
 178.16589 592.11528 178.24355 591.93189 178.35153 591.75197 c 0
 180.02402 589.23078 181.08746 586.82062 181.64841 583.37893 c 0
 182.55285 577.82966 182.36859 576.04272 182.38669 574.44143 c 0
 182.4156 571.88322 182.1445 569.61753 181.64645 566.85158 c 0
 181.18875 564.30971 180.3445 560.9084 179.46481 558.4883 c 0
 178.16874 554.92283 178.31225 555.26627 177.25583 552.63674 c 0
 176.68572 551.21759 175.9512 549.74929 174.92575 547.61916 c 0
 172.8453 543.29751 169.51375 538.60085 165.50388 533.22463 c 0
 162.15697 528.73729 154.69668 519.83942 150.50583 515.37502 c 0
 135.84788 499.76045 115.23817 478.94664 96.984345 460.34377 c 1
 136.47228 494.62311 188.69887 535.39593 213.43747 553.44924 c 0
 226.95419 563.31325 259.9907 588.08972 284.77536 596.94729 c 0
 290.08483 598.84479 296.44963 599.93755 300.53317 599.99025 c 0
 301.6412 600.00455 302.20314 599.97405 302.75192 599.93755 c 0
 303.29756 599.90132 303.93863 599.85041 305.07028 599.63677 c 0
 305.6916 599.51946 306.65492 599.28205 307.57614 599.03521 c 0
 308.60513 598.75887 309.82515 598.17967 311.08981 597.38677 c 0
 313.02759 596.27365 314.9994 594.77383 316.65036 592.35552 c 0
 316.71255 592.26444 316.73645 592.17453 316.79685 592.08403 c 0
 316.91517 591.90516 316.98823 591.72181 317.09177 591.54107 c 0
 318.71457 588.98204 319.73061 586.54725 320.22067 583.08989 c 0
 321.0104 577.51833 320.78861 575.73565 320.77341 574.13286 c 0
 320.74917 571.5725 320.42885 569.31013 319.87302 566.55278 c 0
 319.36223 564.01883 318.44612 560.63381 317.51559 558.23052 c 0
 316.14465 554.6897 316.29724 555.03116 315.18552 552.42193 c 0
 314.58557 551.01375 313.81839 549.55946 312.74802 547.44927 c 0
 310.57649 543.1682 307.14754 538.53859 303.02341 533.24224 c 0
 299.46132 528.66768 281.71274 509.58021 277.4238 505.19732 c 0
 275.67294 503.40811 274.21608 501.98684 272.75974 500.57036 c 0
 269.34149 496.82406 264.96303 492.33824 258.75192 486.20708 c 0
 235.60269 463.3557 229.64866 457.41458 222.08395 449.82622 c 0
 214.51814 442.23666 209.34968 437.05654 204.07224 431.47466 c 0
 200.88911 428.10804 200.2184 427.5159 197.77731 424.80669 c 0
 195.03359 421.76155 197.10718 424.08997 193.99802 420.62896 c 0
 193.41004 419.97439 192.67017 419.01866 192.2695 418.33403 c 0
 191.80338 417.53755 191.52646 417.01045 191.19528 416.31646 c 0
 190.82104 415.53229 190.59456 414.81526 190.52536 414.4688 c 0
 190.23961 413.03957 190.38879 413.13963 190.53906 412.16021 c 0
 190.62464 411.60255 190.91477 410.97122 191.29883 410.31841 c 0
 191.36617 410.21449 191.3965 410.11715 191.4668 410.01177 c 0
 191.926 409.30472 192.52693 408.56596 193.30664 407.82036 c 0
 195.46358 405.75776 198.15988 404.22316 199.56836 403.84575 c 2
 199.56836 403.84375 l 2
 200.53514 403.58369 200.92176 403.38253 202.53711 403 c 0
 204.43212 402.55123 207.00496 402.1447 210.62109 401.99023 c 0
 211.33858 401.95958 215.92683 402.06095 219.02344 402.58789 c 0
 221.88101 403.07416 223.82846 403.52908 225.86133 403.97656 c 0
 227.799 404.40318 234.27171 406.0042 242.82227 408.96289 c 0
 251.23573 411.87415 263.66875 417.2755 270.39062 420.60742 c 0
 295.5981 433.10223 316.74337 445.41162 340.08398 460.67383 c 0
 360.28556 473.88353 380.25711 487.73688 399.17578 502.18945 c 0
 417.3286 516.057 431.56992 525.86564 447.17578 538.85156 c 0
 470.31001 558.10199 505.63794 588.10007 531.69141 611.73633 c 1
EndSplineSet
Validated: 524289
EndChar

StartChar: n.ri
Encoding: 7 -1 7
Width: 362
VWidth: 1024
Flags: HW
LayerCount: 2
Fore
SplineSet
161.63672 599.99609 m 1
 161.63668 599.99582 l 1
 162.74935 600.01012 163.31401 599.97982 163.86519 599.94312 c 0
 164.4127 599.90651 165.05498 599.85474 166.19137 599.64038 c 0
 166.81371 599.52293 167.77996 599.28611 168.70308 599.03882 c 1
 168.70308 599.04082 l 1
 169.72371 598.76734 170.95278 598.21266 172.23434 597.45097 c 0
 174.18849 596.38448 176.19008 594.94346 177.89058 592.56035 c 0
 177.95453 592.47077 177.98083 592.38187 178.04293 592.29277 c 0
 178.16588 592.11506 178.24354 591.93167 178.35152 591.75175 c 0
 180.02401 589.23056 181.08745 586.8204 181.6484 583.37871 c 0
 182.55284 577.82944 182.36858 576.0425 182.38668 574.44121 c 0
 182.41559 571.883 182.14449 569.61731 181.64644 566.85136 c 0
 181.18874 564.30949 180.34449 560.90818 179.4648 558.48808 c 0
 178.16873 554.92261 178.31224 555.26605 177.25582 552.63652 c 0
 176.68571 551.21737 175.95119 549.74907 174.92574 547.61894 c 0
 172.84529 543.29729 169.51374 538.60063 165.50387 533.22441 c 0
 162.15696 528.73707 154.69667 519.8392 150.50582 515.3748 c 0
 135.84787 499.76023 115.23816 478.94642 96.984335 460.34355 c 1
 136.47227 494.62289 188.69886 535.39571 213.43746 553.44902 c 0
 226.95418 563.31303 259.99069 588.0895 284.77535 596.94707 c 0
 290.08482 598.84457 296.44962 599.93733 300.53316 599.99003 c 0
 301.64119 600.00433 302.20313 599.97383 302.75191 599.93733 c 0
 303.29755 599.9011 303.93862 599.85019 305.07027 599.63655 c 0
 305.69159 599.51924 306.65491 599.28183 307.57613 599.03499 c 0
 308.60512 598.75865 309.82514 598.17945 311.0898 597.38655 c 0
 313.02758 596.27343 314.99939 594.77361 316.65035 592.3553 c 0
 316.71254 592.26422 316.73644 592.17431 316.79684 592.08381 c 0
 316.91516 591.90494 316.98822 591.72159 317.09176 591.54085 c 0
 318.71456 588.98182 319.7306 586.54703 320.22066 583.08967 c 0
 321.01039 577.51811 320.7886 575.73543 320.7734 574.13264 c 0
 320.74916 571.57228 320.42884 569.30991 319.87301 566.55256 c 0
 319.36222 564.01861 318.44611 560.63359 317.51558 558.2303 c 0
 316.14464 554.68948 316.29723 555.03094 315.18551 552.42171 c 0
 314.58556 551.01353 313.81838 549.55924 312.74801 547.44905 c 0
 310.57648 543.16798 307.14753 538.53837 303.0234 533.24202 c 0
 299.46131 528.66746 281.71273 509.57999 277.42379 505.1971 c 0
 275.67293 503.40789 274.21607 501.98662 272.75973 500.57014 c 0
 269.34148 496.82384 264.96302 492.33802 258.75191 486.20686 c 0
 235.60268 463.35548 229.64865 457.41436 222.08394 449.826 c 0
 214.51813 442.23644 209.34967 437.05632 204.07223 431.47444 c 0
 200.8891 428.10782 200.21839 427.51568 197.7773 424.80647 c 0
 195.03358 421.76133 197.10717 424.08975 193.99801 420.62874 c 0
 193.41003 419.97417 192.67016 419.01844 192.26949 418.33381 c 0
 191.80337 417.53733 191.52645 417.01023 191.19527 416.31624 c 0
 190.82103 415.53207 190.59455 414.81504 190.52535 414.46858 c 0
 190.2396 413.03935 190.38878 413.13941 190.53905 412.15999 c 0
 190.62463 411.60233 190.91476 410.971 191.29882 410.31819 c 0
 191.36616 410.21427 191.39649 410.11693 191.46679 410.01155 c 0
 191.92599 409.3045 192.52692 408.56574 193.30663 407.82014 c 0
 195.46357 405.75754 198.15987 404.22294 199.56835 403.84553 c 2
 199.56835 403.84153 l 2
 200.42616 403.61016 201.26838 403.35783 202.01366 403.15989 c 0
 202.54854 403.01782 204.08976 402.67556 205.6328 402.46653 c 0
 207.77913 402.17575 210.17425 402.01689 210.55468 402.00559 c 0
 211.32175 401.98267 215.87622 402.07519 218.97069 402.60129 c 0
 221.82825 403.08761 223.7757 403.54253 225.80858 403.98996 c 0
 227.74629 404.41665 234.219 406.01765 242.76952 408.97629 c 0
 251.18296 411.88755 263.61601 417.2908 270.33788 420.62278 c 0
 295.54527 433.11754 316.69068 445.42507 340.03124 460.68723 c 0
 360.22023 473.88879 381.05372 488.95406 399.8203 503.61106 c 0
 419.37234 518.88152 426.36753 524.05345 441.64843 537.34153 c 0
 453.29714 547.47111 467.09747 559.63125 472.13866 564.67746 c 1
 473.55468 563.2634 l 1
 468.36101 558.06456 454.61712 545.96784 442.96093 535.83176 c 0
 427.64588 522.51399 420.59509 517.29779 401.05272 502.03489 c 0
 382.24418 487.34511 361.36978 472.25144 341.12499 459.0134 c 0
 317.73353 443.71796 296.50155 431.35905 271.2246 418.82981 c 0
 264.39529 415.44458 251.98316 410.04936 243.42382 407.08762 c 0
 234.78972 404.10006 228.28696 402.48796 226.23827 402.03684 c 0
 224.22114 401.59287 222.21726 401.12627 219.30468 400.63059 c 0
 215.94558 400.05949 211.58331 399.97309 210.49608 400.00559 c 0
 209.87991 400.02398 207.60524 400.18064 205.36522 400.48411 c 0
 203.71409 400.70778 202.17015 401.05025 201.49999 401.22825 c 0
 200.68541 401.44461 199.8238 401.70397 198.98241 401.92942 c 2
 198.98441 401.93942 l 2
 197.96542 402.22232 196.77317 402.78686 195.53323 403.56442 c 0
 193.59454 404.67751 191.62464 406.17396 189.97269 408.59372 c 0
 189.91175 408.68297 189.88735 408.77065 189.82815 408.85935 c 0
 189.70555 409.04445 189.63024 409.23474 189.52347 409.42185 c 0
 187.90595 411.97597 186.89158 414.40802 186.40237 417.85935 c 0
 185.61265 423.4309 185.83444 425.21359 185.84964 426.81638 c 0
 185.87387 429.37674 186.1942 431.63915 186.75003 434.39645 c 0
 187.26082 436.93046 188.175 440.31539 189.1055 442.71872 c 0
 190.47646 446.25949 190.3258 445.92001 191.43753 448.52927 c 0
 192.03748 449.93742 192.80271 451.38981 193.87308 453.49997 c 0
 196.0446 457.78103 199.4755 462.41262 203.59964 467.70895 c 0
 207.04184 472.1295 214.6923 480.87956 218.97855 485.25974 c 0
 225.11595 491.53153 229.45409 496.07006 233.45901 500.04099 c 0
 234.76612 501.58351 237.02722 504.03975 247.87112 514.74411 c 0
 271.02036 537.59548 276.97438 543.53461 284.53909 551.12302 c 0
 292.10491 558.71258 297.27142 563.8947 302.54886 569.47653 c 0
 305.73198 572.8432 306.4027 573.43329 308.84378 576.14255 c 0
 311.58751 579.1877 309.51391 576.85922 312.62308 580.32028 c 0
 313.211 580.97476 313.95091 581.93253 314.35159 582.61716 c 0
 314.81771 583.41362 315.09658 583.93878 315.42776 584.63278 c 0
 315.80201 585.41695 316.02653 586.1359 316.09573 586.48239 c 0
 316.38147 587.91155 316.2323 587.80967 316.08203 588.78903 c 0
 315.99645 589.34675 315.70831 589.97994 315.32422 590.63278 c 0
 315.25688 590.73669 315.22645 590.83406 315.15625 590.93942 c 0
 314.69705 591.64647 314.09613 592.3852 313.31641 593.13083 c 0
 311.15997 595.19295 308.45539 596.73012 307.05469 597.10544 c 0
 306.16592 597.3435 305.20032 597.57725 304.69922 597.67185 c 0
 303.63996 597.87183 303.14867 597.90813 302.61914 597.94333 c 0
 302.0876 597.97873 301.62544 598.00393 300.55859 597.99023 c 0
 296.81527 597.94195 290.50221 596.87099 285.44727 595.06445 c 0
 261.25001 586.41682 228.16558 561.72111 214.61719 551.83398 c 0
 184.42348 529.79974 112.81689 473.54116 74.193359 437.15625 c 0
 61.832112 424.71185 49.258968 412.4456 36.529297 400.4043 c 2
 36.238281 400.13086 l 1
 35.839844 400.13086 l 2
 31.0504182069 400.135032414 25.0832038224 400.136327301 19.5207806826 400.136327301 c 0
 10.4186337268 400.136327301 2.4003906 400.13286 2.4003906 400.13286 c 1
 0.0078125 400.13086 l 1
 1.6875 401.83398 l 1
 1.6875 401.83398 20.942156 421.35517 39.339844 440.42383 c 0
 57.751475 459.50686 88.146608 490.30268 110.79297 513.60549 c 0
 133.44352 536.91255 139.26873 542.9679 146.66797 550.7051 c 0
 154.0683 558.44346 159.12326 563.7268 164.2793 569.41213 c 0
 167.38918 572.84124 168.04741 573.44617 170.42969 576.20314 c 0
 173.10732 579.30194 171.08311 576.93128 174.11719 580.45314 c 0
 174.69088 581.11908 175.41091 582.09112 175.79688 582.78322 c 0
 176.24596 583.58847 176.51168 584.12021 176.82812 584.82033 c 0
 177.1857 585.61142 177.39718 586.3326 177.45898 586.67971 c 0
 177.71462 588.11319 177.56693 588.00911 177.39648 588.9844 c 0
 177.29945 589.53964 176.99684 590.1664 176.59961 590.81057 c 0
 176.53024 590.91288 176.49808 591.00959 176.42578 591.1133 c 0
 175.95245 591.81001 175.3373 592.53505 174.54297 593.26369 c 0
 172.35212 595.27333 169.65216 596.71444 168.19141 597.10744 c 1
 168.19141 597.10544 l 1
 167.29749 597.34501 166.3246 597.58055 165.82031 597.67575 c 0
 164.75634 597.87649 164.26468 597.91359 163.73242 597.94919 c 0
 163.19863 597.98479 162.73366 598.00979 161.66211 597.99609 c 0
 157.73373 597.9455 153.84362 597.88435 148.59961 596.53906 c 0
 143.18001 595.14874 139.56886 593.7577 134.38086 591.5332 c 0
 127.81988 588.71999 118.88894 584.23078 112.36523 580.08203 c 0
 82.139335 560.86 46.260236 530.79384 38.570312 524.27148 c 0
 22.584891 510.71309 -15.489694 476.86088 -31.464844 463.01953 c 0
 -52.040939 445.19178 -81.749091 423.12562 -110.13281 404.98047 c 0
 -138.51654 386.83531 -165.42098 372.59087 -181.00977 370.47656 c 1
 -181.2793 372.45898 l 1
 -166.59245 374.45096 -139.50823 388.57611 -111.21094 406.66602 c 0
 -82.91364 424.75592 -53.24851 446.79076 -32.775391 464.5293 c 0
 -16.831386 478.34366 21.234363 512.18966 37.277344 525.79688 c 0
 44.994596 532.34239 80.873333 562.42554 111.29102 581.76953 c 0
 117.95981 586.01055 126.92762 590.51363 133.5918 593.37109 c 0
 138.81169 595.60926 142.5768 597.05926 148.10156 598.47656 c 0
 153.56453 599.87802 157.7046 599.94549 161.63672 599.99609 c 1
EndSplineSet
Validated: 524289
EndChar

StartChar: n.li.ri
Encoding: 8 -1 8
Width: 362
VWidth: 1024
Flags: HW
LayerCount: 2
Fore
SplineSet
300.53516 600 m 1
 300.53511 599.99986 l 1
 301.64314 600.01406 302.20507 599.98556 302.75386 599.94906 c 0
 303.29949 599.91282 303.94056 599.86192 305.07222 599.64828 c 0
 305.69354 599.53097 306.65685 599.29356 307.57807 599.04672 c 0
 308.60615 598.77062 309.8244 598.19006 311.08784 597.39828 c 0
 313.02722 596.2852 314.99983 594.78753 316.65229 592.36703 c 0
 316.71323 592.27779 316.73763 592.1901 316.79683 592.1014 c 0
 316.91891 591.91706 316.99317 591.72718 317.09956 591.54086 c 0
 318.71805 588.98584 319.73325 586.55381 320.22261 583.1014 c 0
 321.01234 577.52984 320.79054 575.74715 320.77534 574.14437 c 0
 320.75111 571.58401 320.43079 569.32164 319.87495 566.56429 c 0
 319.36416 564.03034 318.44999 560.64532 317.51948 558.24203 c 0
 316.14852 554.70121 316.29918 555.04074 315.18745 552.43148 c 0
 314.58751 551.02333 313.82227 549.57097 312.7519 547.46078 c 0
 310.58037 543.1797 307.14948 538.54814 303.02534 533.25179 c 0
 299.46326 528.67723 281.71468 509.58977 277.42573 505.20687 c 0
 275.68214 503.4251 274.23061 502.01132 272.77925 500.59945 c 0
 269.35887 496.84999 264.97738 492.36005 258.75386 486.21664 c 0
 235.60462 463.36525 229.6506 457.42609 222.08589 449.83773 c 0
 214.52008 442.24816 209.35356 437.06611 204.07612 431.48422 c 0
 200.89299 428.11759 200.22229 427.52741 197.7812 424.8182 c 0
 195.03748 421.77306 197.11106 424.10147 194.0019 420.64046 c 0
 193.41392 419.98592 192.67406 419.02822 192.27339 418.34359 c 0
 191.80727 417.5471 191.5284 417.02196 191.19722 416.32796 c 0
 190.82298 415.5438 190.59845 414.82482 190.52925 414.47836 c 0
 190.2435 413.04913 190.39268 413.15114 190.54295 412.17172 c 0
 190.62853 411.61403 190.91667 410.98081 191.30076 410.32796 c 0
 191.3681 410.22407 191.39853 410.12669 191.46873 410.02132 c 0
 191.92794 409.31426 192.5308 408.57553 193.31053 407.82992 c 0
 195.46747 405.76731 198.1618 404.23271 199.57029 403.85531 c 2
 199.57029 403.85331 l 2
 200.42811 403.62194 201.27033 403.36961 202.0156 403.17167 c 0
 202.55049 403.0296 204.0917 402.68734 205.63475 402.47831 c 0
 207.78107 402.18753 210.1762 402.02671 210.55662 402.01541 c 0
 211.3237 401.9925 215.87816 402.08697 218.97264 402.61307 c 0
 221.8302 403.09939 223.77764 403.55431 225.81053 404.00174 c 0
 227.74824 404.42842 234.22094 406.02943 242.77146 408.98807 c 0
 251.18491 411.89933 263.61795 417.30063 270.33982 420.6326 c 0
 295.54722 433.12736 316.69262 445.43685 340.03318 460.69901 c 0
 360.22218 473.90057 381.05762 488.96583 399.8242 503.62284 c 0
 419.37624 518.8933 426.36947 524.06523 441.65037 537.35331 c 0
 453.29908 547.48288 467.09941 559.64303 472.1406 564.68924 c 1
 473.55662 563.27518 l 1
 468.36295 558.07634 454.61906 545.97962 442.96287 535.84354 c 0
 427.64783 522.52577 420.59703 517.30957 401.05467 502.04667 c 0
 382.24613 487.35688 361.37367 472.26322 341.12889 459.02518 c 0
 317.73742 443.72974 296.50544 431.37083 271.2285 418.84159 c 0
 264.39919 415.45636 251.9851 410.05919 243.42576 407.09745 c 0
 234.79167 404.10989 228.2889 402.49776 226.24021 402.04667 c 0
 224.22308 401.60268 222.22115 401.13609 219.30857 400.64041 c 0
 215.94947 400.06937 211.58525 399.98487 210.49803 400.01737 c 0
 209.88185 400.03576 207.60718 400.19242 205.36717 400.49588 c 0
 203.71603 400.71957 202.1721 401.06008 201.50193 401.23807 c 0
 200.68735 401.45443 199.82574 401.71575 198.98436 401.9412 c 2
 198.98636 401.9492 l 2
 197.96758 402.23205 196.77481 402.79692 195.53519 403.5742 c 0
 193.59631 404.68728 191.62871 406.18543 189.97659 408.60545 c 0
 189.91566 408.69471 189.89126 408.78237 189.83206 408.87107 c 0
 189.7103 409.05492 189.63548 409.24385 189.52933 409.42967 c 0
 187.91037 411.98513 186.89377 414.41812 186.40433 417.87107 c 0
 185.61461 423.44263 185.83639 425.22532 185.85159 426.8281 c 0
 185.87581 429.38848 186.19614 431.65088 186.75198 434.40818 c 0
 187.26277 436.94219 188.17891 440.32712 189.10941 442.73045 c 0
 190.48035 446.27122 190.32971 445.92978 191.44144 448.53904 c 0
 192.04139 449.94719 192.80661 451.40154 193.87698 453.5117 c 0
 196.0485 457.79276 199.47745 462.42239 203.60159 467.71873 c 0
 207.04379 472.13927 214.6962 480.88933 218.98245 485.26951 c 0
 225.10524 491.52636 229.4387 496.05826 233.43753 500.02342 c 0
 234.74067 501.56374 236.969 503.99012 247.87308 514.75389 c 0
 271.02232 537.60525 276.97829 543.54634 284.543 551.13475 c 0
 292.10882 558.72431 297.27532 563.90447 302.55276 569.48631 c 0
 305.73588 572.85298 306.40661 573.44502 308.84769 576.15428 c 0
 311.59142 579.19942 309.51781 576.87095 312.62698 580.33201 c 0
 313.2149 580.98649 313.95482 581.9423 314.3555 582.62693 c 0
 314.82162 583.42339 315.09854 583.95051 315.42972 584.64451 c 0
 315.80396 585.42868 316.03044 586.14568 316.09964 586.49217 c 0
 316.38538 587.92132 316.23621 587.8214 316.08594 588.80076 c 0
 316.00127 589.35259 315.71293 589.97975 315.33594 590.62498 c 0
 315.26238 590.73869 315.22934 590.84546 315.15234 590.96092 c 0
 314.69371 591.66517 314.09467 592.39824 313.31836 593.1406 c 0
 311.16193 595.20275 308.45734 596.73989 307.05664 597.11521 c 0
 306.16773 597.35332 305.20237 597.58692 304.70117 597.68162 c 0
 303.64191 597.8816 303.15062 597.9179 302.62109 597.9531 c 0
 302.08956 597.9885 301.6274 598.0137 300.56055 598 c 0
 296.81723 597.95171 290.50612 596.88271 285.45117 595.07617 c 0
 261.25392 586.42854 228.16754 561.73088 214.61914 551.84375 c 0
 184.42543 529.8095 112.81884 473.55256 74.195312 437.16797 c 0
 61.834066 424.72357 49.260922 412.45732 36.53125 400.41602 c 2
 36.242188 400.14258 l 1
 35.841797 400.14258 l 2
 31.632908 400.146146667 26.5144502 400.147335556 21.5604571333 400.147335556 c 0
 11.652471 400.147335556 2.4023438 400.14258 2.4023438 400.14258 c 1
 0.00976563 400.14258 l 1
 1.6894531 401.8457 l 1
 1.6894531 401.8457 20.944111 421.36689 39.341797 440.43555 c 0
 57.753424 459.51858 88.150504 490.31245 110.79688 513.61523 c 0
 133.44743 536.9223 139.27068 542.9796 146.66992 550.7168 c 0
 154.07026 558.45516 159.12521 563.7385 164.28125 569.42383 c 0
 167.39114 572.85294 168.04936 573.4559 170.43164 576.21289 c 0
 173.10927 579.31169 171.08506 576.94299 174.11914 580.46484 c 0
 174.69283 581.13078 175.41285 582.10282 175.79883 582.79492 c 0
 176.24792 583.60017 176.51364 584.12996 176.83008 584.83008 c 0
 177.18764 585.62117 177.39914 586.3443 177.46094 586.69141 c 0
 177.71657 588.12489 177.56888 588.02081 177.39844 588.99609 c 0
 177.30175 589.54935 177.00216 590.17284 176.60742 590.81445 c 0
 176.53588 590.92007 176.50243 591.01985 176.42773 591.12695 c 0
 175.95461 591.82276 175.33811 592.54779 174.54492 593.27539 c 0
 172.35163 595.28727 169.64711 596.72804 168.1875 597.11914 c 2
 168.70508 599.05273 l 1
 169.72421 598.77966 170.95095 598.22477 172.23047 597.46484 c 0
 174.18637 596.39841 176.19036 594.95582 177.89258 592.57031 c 0
 177.95557 592.48199 177.98167 592.39444 178.04297 592.30664 c 0
 178.16718 592.1272 178.24457 591.94145 178.35352 591.75977 c 0
 180.02536 589.23915 181.09151 586.82964 181.65234 583.38867 c 0
 182.55678 577.8394 182.37252 576.0544 182.39062 574.45312 c 0
 182.41954 571.89493 182.14649 569.62727 181.64844 566.86133 c 0
 181.19073 564.31945 180.34648 560.9201 179.4668 558.5 c 0
 178.17073 554.93453 178.31424 555.27796 177.25781 552.64844 c 0
 176.6877 551.22929 175.95318 549.76099 174.92773 547.63086 c 0
 172.84728 543.30921 169.51573 538.61255 165.50586 533.23633 c 0
 162.15896 528.74899 154.69867 519.84916 150.50781 515.38477 c 0
 135.85285 499.77338 115.24931 478.96541 96.998047 460.36523 c 1
 136.48467 494.64257 188.70319 535.40933 213.43945 553.46094 c 0
 226.95618 563.32495 259.99268 588.10142 284.77734 596.95898 c 0
 290.08681 598.85648 296.45162 599.9473 300.53516 600 c 1
EndSplineSet
Validated: 524289
EndChar

StartChar: n.rn
Encoding: 9 -1 9
Width: 347
VWidth: 1024
Flags: HW
LayerCount: 2
Fore
SplineSet
507.9082 599.99805 m 2
 507.90821 599.99793 l 2
 510.87915 599.97174 513.73127 599.62044 516.4336 598.89636 c 2
 515.91603 596.96472 l 1
 513.343799987 597.653946521 510.590108814 597.976597151 507.692101235 597.976597151 c 0
 495.472694937 597.976597151 480.687523586 592.240272865 466.1211 584.06043 c 0
 448.10004 573.94062 430.41814 560.1834 418.13087 549.4784 c 0
 389.39218 524.44043 360.92261 498.06572 331.90235 473.27332 c 0
 303.84915 449.30709 284.21537 432.35382 252.44142 413.34168 c 0
 240.71049 406.32239 225.87463 400.27984 212.04689 400.01941 c 0
 206.47603 399.91451 200.35018 401.55587 199.04298 401.90613 c 0
 199.04148 401.90613 199.03328 401.90771 199.03128 401.90813 c 2
 199.03128 401.91013 l 2
 198.00154 402.18779 196.78583 402.7663 195.52542 403.55661 c 0
 193.58654 404.66969 191.61895 406.16784 189.96683 408.58786 c 0
 189.9059 408.67712 189.8815 408.76479 189.8223 408.85349 c 0
 189.70054 409.03734 189.62571 409.22626 189.51956 409.41208 c 0
 187.9006 411.96754 186.884 414.40054 186.39456 417.85349 c 0
 185.60484 423.42505 185.82663 425.20774 185.84183 426.81052 c 0
 185.86605 429.37089 186.18638 431.6333 186.74222 434.39059 c 0
 187.25301 436.9246 188.16914 440.30953 189.09964 442.71286 c 0
 190.47058 446.25363 190.31994 445.91219 191.43167 448.52145 c 0
 192.03162 449.9296 192.79685 451.38395 193.86722 453.49411 c 0
 196.03874 457.77517 199.46769 462.4048 203.59183 467.70114 c 0
 207.03403 472.12168 214.68644 480.87175 218.97269 485.25192 c 0
 225.09548 491.50879 229.42893 496.04068 233.42776 500.00583 c 0
 234.7309 501.54615 236.95923 503.97254 247.86331 514.7363 c 0
 271.01255 537.58766 276.96852 543.52875 284.53323 551.11716 c 0
 292.09905 558.70672 297.26556 563.88688 302.543 569.46872 c 0
 305.72612 572.83539 306.39684 573.42743 308.83792 576.13669 c 0
 311.58165 579.18183 309.50805 576.85337 312.61722 580.31442 c 0
 313.20514 580.96892 313.94505 581.9247 314.34573 582.60935 c 0
 314.81185 583.40579 315.08877 583.93294 315.41995 584.62692 c 0
 315.79419 585.41111 316.02067 586.12809 316.08987 586.47458 c 0
 316.37558 587.90373 316.22644 587.80381 316.07617 588.78317 c 0
 315.9915 589.33499 315.70316 589.96216 315.32617 590.60739 c 0
 315.25261 590.7211 315.21958 590.82787 315.14258 590.94333 c 0
 314.68395 591.64758 314.0849 592.38066 313.30859 593.12302 c 0
 311.15216 595.18515 308.44756 596.72231 307.04688 597.09763 c 0
 306.15796 597.33573 305.19261 597.56933 304.69141 597.66403 c 0
 303.63215 597.86402 303.14086 597.90032 302.61133 597.93552 c 0
 302.0798 597.97092 301.61763 597.99612 300.55078 597.98242 c 0
 296.80746 597.93414 290.49636 596.86513 285.44141 595.05859 c 0
 261.24416 586.41095 228.15778 561.7133 214.60938 551.82617 c 0
 184.41566 529.79193 112.80907 473.53498 74.185547 437.15039 c 0
 61.824301 424.70599 49.251156 412.43974 36.521484 400.39844 c 2
 36.232422 400.125 l 1
 35.832031 400.125 l 2
 31.623141 400.128566667 26.5046829 400.129755556 21.5506898778 400.129755556 c 0
 11.6427038333 400.129755556 2.3925781 400.125 2.3925781 400.125 c 1
 0 400.125 l 1
 1.6796875 401.82812 l 2
 1.6796875 401.82813 20.934344 421.34932 39.332031 440.41797 c 0
 57.743658 459.501 88.140761 490.29487 110.78712 513.59769 c 0
 133.43767 536.90475 139.26093 542.96205 146.66017 550.69925 c 0
 154.06051 558.43762 159.11545 563.72096 164.27149 569.40628 c 0
 167.38138 572.83539 168.0396 573.43836 170.42189 576.19534 c 0
 173.09952 579.29414 171.07531 576.92545 174.10939 580.4473 c 0
 174.68307 581.11323 175.40309 582.08526 175.78907 582.77737 c 0
 176.23816 583.58261 176.50388 584.11241 176.82032 584.81253 c 0
 177.17788 585.60362 177.38938 586.32676 177.45118 586.67386 c 0
 177.70681 588.10734 177.55912 588.00326 177.38868 588.97855 c 0
 177.29199 589.5318 176.99241 590.15529 176.59767 590.79691 c 0
 176.52613 590.90252 176.49268 591.0023 176.41798 591.10941 c 0
 175.94487 591.80518 175.32834 592.52831 174.53517 593.25589 c 0
 172.34188 595.26777 169.63735 596.7105 168.17774 597.10159 c 1
 168.17974 597.10759 l 1
 167.28941 597.34596 166.3222 597.58125 165.82036 597.67595 c 0
 164.75639 597.87669 164.26473 597.91379 163.73247 597.94939 c 0
 163.19868 597.98499 162.73371 598.00999 161.66216 597.99629 c 0
 157.73378 597.9457 153.84367 597.88455 148.59966 596.53926 c 0
 143.18006 595.14894 139.56891 593.7579 134.38091 591.5334 c 0
 127.81993 588.72019 118.88899 584.23098 112.36528 580.08223 c 0
 82.139385 560.8602 46.260286 530.79404 38.570362 524.27168 c 0
 22.584941 510.71329 -15.489644 476.86108 -31.464794 463.01973 c 0
 -52.040889 445.19198 -81.749041 423.12582 -110.13276 404.98067 c 0
 -138.51649 386.83551 -165.42093 372.59107 -181.00972 370.47676 c 1
 -181.27925 372.45918 l 1
 -166.5924 374.45116 -139.50818 388.57631 -111.21089 406.66622 c 0
 -82.91359 424.75612 -53.24846 446.79096 -32.775341 464.5295 c 0
 -16.831336 478.34386 21.234413 512.18986 37.277394 525.79708 c 0
 44.994646 532.34259 80.873383 562.42574 111.29107 581.76973 c 0
 117.95986 586.01075 126.92767 590.51383 133.59185 593.37129 c 0
 138.81174 595.60946 142.57685 597.05946 148.10161 598.47676 c 0
 153.56458 599.87822 157.70465 599.94569 161.63677 599.99629 c 0
 162.74944 600.01059 163.3141 599.98029 163.86528 599.94359 c 0
 164.41279 599.90698 165.05507 599.85521 166.19146 599.64085 c 0
 166.81529 599.52311 167.78391 599.28527 168.70903 599.03734 c 2
 168.70703 599.02734 l 2
 169.72445 598.75321 170.94702 598.20501 172.22266 597.44727 c 0
 174.17811 596.38082 176.18104 594.93761 177.88281 592.55273 c 0
 177.9458 592.46441 177.9719 592.37686 178.0332 592.28906 c 0
 178.15741 592.10963 178.2348 591.92388 178.34375 591.74219 c 0
 180.01559 589.22157 181.08175 586.81206 181.64258 583.37109 c 0
 182.54702 577.82182 182.36276 576.03684 182.38086 574.43555 c 0
 182.40978 571.87734 182.13672 569.6097 181.63867 566.84375 c 0
 181.18096 564.30188 180.33671 560.90253 179.45703 558.48242 c 0
 178.16096 554.91696 178.30448 555.25844 177.24805 552.62891 c 0
 176.67794 551.20976 175.94342 549.74341 174.91797 547.61328 c 0
 172.83752 543.29163 169.50596 538.59498 165.49609 533.21875 c 0
 162.14919 528.73142 154.68891 519.83159 150.49805 515.36719 c 0
 135.84596 499.75886 115.24864 478.95531 97 460.35742 c 1
 136.4853 494.63217 188.6958 535.39153 213.42966 553.44141 c 0
 226.94639 563.30542 259.98289 588.08384 284.76755 596.94141 c 0
 290.07702 598.83891 296.44182 599.92972 300.52536 599.98242 c 0
 301.63339 599.99662 302.19532 599.96812 302.74411 599.93162 c 0
 303.28974 599.89539 303.93081 599.84253 305.06247 599.62889 c 0
 305.68379 599.51158 306.64711 599.27612 307.56833 599.02928 c 0
 308.59641 598.75318 309.81465 598.17263 311.07809 597.38084 c 0
 313.01747 596.26776 314.99009 594.77009 316.64255 592.34959 c 0
 316.70348 592.26035 316.72788 592.17266 316.78708 592.08396 c 0
 316.90916 591.89962 316.98342 591.70974 317.08981 591.52342 c 0
 318.7083 588.9684 319.7235 586.53637 320.21286 583.08396 c 0
 321.00259 577.5124 320.78079 575.72972 320.76559 574.12693 c 0
 320.74137 571.56658 320.42104 569.30419 319.8652 566.54686 c 0
 319.35441 564.01289 318.44025 560.62788 317.50974 558.22459 c 0
 316.13878 554.68377 316.28943 555.0233 315.1777 552.41404 c 0
 314.57776 551.00589 313.81253 549.55353 312.74216 547.44334 c 0
 310.57063 543.16226 307.13974 538.53071 303.01559 533.23436 c 0
 299.45352 528.65978 281.70494 509.57234 277.41599 505.18943 c 0
 275.6724 503.40768 274.22086 501.99389 272.7695 500.58201 c 0
 269.34912 496.83256 264.96763 492.34262 258.74411 486.1992 c 0
 235.59487 463.34781 229.64085 457.40865 222.07614 449.82029 c 0
 214.51033 442.23072 209.34382 437.04867 204.06638 431.46678 c 0
 200.88325 428.10017 200.21254 427.50997 197.77145 424.80076 c 0
 195.02773 421.75562 197.10132 424.08404 193.99216 420.62303 c 0
 193.40418 419.96847 192.66431 419.01078 192.26364 418.32615 c 0
 191.79752 417.52966 191.51865 417.00453 191.18747 416.31053 c 0
 190.81323 415.52636 190.5887 414.80738 190.5195 414.46092 c 0
 190.23378 413.03169 190.38293 413.1337 190.5332 412.15428 c 0
 190.61878 411.5966 190.90693 410.96338 191.29102 410.31053 c 0
 191.35836 410.20663 191.38878 410.10926 191.45898 410.00389 c 0
 191.91819 409.29683 192.52105 408.55809 193.30078 407.81248 c 0
 195.45772 405.74987 198.15206 404.21527 199.56055 403.83787 c 0
 200.8493 403.49266 206.86735 401.92261 212.00977 402.01951 c 0
 225.27781 402.2694 239.88911 408.16253 251.41406 415.05857 c 0
 283.05011 433.9882 302.54653 450.82543 330.60352 474.7949 c 0
 359.58234 499.5519 388.04848 525.92116 416.81836 550.98631 c 0
 429.18199 561.75784 446.93416 575.57965 465.14258 585.80467 c 0
 478.7989 593.47344 492.7138 599.17495 504.89844 599.91795 c 0
 505.91383 599.97985 506.91789 600.00705 507.9082 599.99805 c 2
EndSplineSet
Validated: 524289
EndChar

StartChar: n.li.rn
Encoding: 10 -1 10
Width: 347
VWidth: 1024
Flags: HW
LayerCount: 2
Fore
SplineSet
507.91797 600.01172 m 2
 507.91799 600.0116 l 2
 510.88893 599.98541 513.74105 599.63412 516.44338 598.91004 c 1
 515.9258 596.9784 l 1
 513.353572355 597.667625886 510.599884252 597.99027619 507.7018802 597.99027619 c 0
 495.48247486 597.99027619 480.697306766 592.253944651 466.13088 584.0741 c 0
 448.10982 573.95429 430.42791 560.19707 418.14064 549.49207 c 0
 389.40195 524.4541 360.93239 498.07939 331.91213 473.28699 c 0
 303.85893 449.32076 284.22514 432.36749 252.45119 413.35535 c 0
 240.72026 406.33606 225.8844 400.29351 212.05666 400.03308 c 0
 206.48581 399.92818 200.35995 401.56954 199.05275 401.9198 c 0
 199.05125 401.9198 199.04305 401.92138 199.04105 401.9218 c 2
 199.04105 401.9238 l 2
 198.01131 402.20146 196.7956 402.77997 195.53519 403.57028 c 0
 193.59631 404.68336 191.62871 406.18151 189.97659 408.60153 c 0
 189.91566 408.69079 189.89126 408.77846 189.83206 408.86716 c 0
 189.7103 409.05101 189.63548 409.23993 189.52933 409.42575 c 0
 187.91037 411.98121 186.89377 414.41421 186.40433 417.86716 c 0
 185.61461 423.43872 185.83639 425.22141 185.85159 426.82419 c 0
 185.87581 429.38456 186.19614 431.64697 186.75198 434.40427 c 0
 187.26277 436.93828 188.17891 440.3232 189.10941 442.72653 c 0
 190.48035 446.2673 190.32971 445.92587 191.44144 448.53513 c 0
 192.04139 449.94328 192.80661 451.39762 193.87698 453.50778 c 0
 196.0485 457.78884 199.47745 462.41847 203.60159 467.71481 c 0
 207.04379 472.13535 214.6962 480.88542 218.98245 485.26559 c 0
 225.10524 491.52246 229.4387 496.05435 233.43753 500.0195 c 0
 234.74067 501.55982 236.969 503.98621 247.87308 514.74997 c 0
 271.02232 537.60133 276.97829 543.54242 284.543 551.13083 c 0
 292.10882 558.72039 297.27532 563.90055 302.55276 569.48239 c 0
 305.73588 572.84906 306.40661 573.4411 308.84769 576.15036 c 0
 311.59142 579.1955 309.51781 576.86704 312.62698 580.32809 c 0
 313.2149 580.98259 313.95482 581.93839 314.3555 582.62302 c 0
 314.82162 583.41948 315.09854 583.94661 315.42972 584.64059 c 0
 315.80396 585.42478 316.03044 586.14176 316.09964 586.48825 c 0
 316.38538 587.9174 316.23621 587.81749 316.08594 588.79685 c 0
 316.00127 589.34867 315.71293 589.97583 315.33594 590.62106 c 0
 315.26238 590.73477 315.22934 590.84154 315.15234 590.957 c 0
 314.69371 591.66125 314.09467 592.39433 313.31836 593.13669 c 0
 311.16193 595.19882 308.45734 596.73598 307.05664 597.1113 c 0
 306.16773 597.3494 305.20237 597.583 304.70117 597.6777 c 0
 303.64191 597.87769 303.15062 597.91399 302.62109 597.94919 c 0
 302.08956 597.98459 301.6274 598.00979 300.56055 597.99609 c 0
 296.81723 597.94781 290.50612 596.87881 285.45117 595.07227 c 0
 261.25392 586.42463 228.16754 561.72697 214.61914 551.83984 c 0
 184.42543 529.8056 112.81884 473.54865 74.195312 437.16406 c 0
 61.834066 424.71966 49.260922 412.45341 36.53125 400.41211 c 2
 36.242188 400.13867 l 1
 35.841797 400.13867 l 2
 31.632908 400.142236667 26.5144502 400.143425556 21.5604571333 400.143425556 c 0
 11.652471 400.143425556 2.4023438 400.13867 2.4023438 400.13867 c 1
 0.00976563 400.13867 l 1
 1.6894531 401.8418 l 1
 1.6894531 401.8418 20.944111 421.36299 39.341797 440.43164 c 0
 57.753424 459.51467 88.150503 490.30854 110.79685 513.61133 c 0
 133.4474 536.91839 139.27065 542.97569 146.66989 550.71289 c 0
 154.07023 558.45126 159.12518 563.7346 164.28122 569.41992 c 0
 167.39111 572.84903 168.04933 573.452 170.43161 576.20898 c 0
 173.10924 579.30778 171.08503 576.93909 174.11911 580.46094 c 0
 174.6928 581.12687 175.41282 582.09891 175.7988 582.79102 c 0
 176.24789 583.59626 176.51361 584.12605 176.83005 584.82617 c 0
 177.18761 585.61726 177.39911 586.3404 177.46091 586.6875 c 0
 177.71654 588.12098 177.56885 588.0169 177.39841 588.99219 c 0
 177.30172 589.54544 177.00213 590.16894 176.60739 590.81055 c 0
 176.53585 590.91616 176.5024 591.01594 176.4277 591.12305 c 0
 175.95459 591.81884 175.33806 592.54195 174.54489 593.26953 c 0
 172.3516 595.28141 169.64708 596.72414 168.18747 597.11523 c 1
 168.70505 599.04688 l 1
 169.72451 598.7737 170.95242 598.22126 172.23239 597.46094 c 0
 174.18784 596.39449 176.19078 594.95129 177.89255 592.56641 c 0
 177.95554 592.47809 177.98164 592.39053 178.04294 592.30273 c 0
 178.16715 592.1233 178.24454 591.93755 178.35349 591.75586 c 0
 180.02533 589.23524 181.09148 586.82574 181.65231 583.38477 c 0
 182.55675 577.8355 182.37249 576.05051 182.39059 574.44922 c 0
 182.41951 571.89101 182.14646 569.62337 181.64841 566.85742 c 0
 181.1907 564.31555 180.34645 560.9162 179.46677 558.49609 c 0
 178.1707 554.93063 178.31421 555.27211 177.25778 552.64258 c 0
 176.68767 551.22343 175.95315 549.75708 174.9277 547.62695 c 0
 172.84725 543.3053 169.5157 538.60865 165.50583 533.23242 c 0
 162.15893 528.74509 154.69864 519.84526 150.50778 515.38086 c 0
 135.85569 499.77253 115.25838 478.96898 97.009736 460.37109 c 1
 136.49504 494.64584 188.70553 535.4052 213.43942 553.45508 c 0
 226.95615 563.31909 259.99265 588.09751 284.77731 596.95508 c 0
 290.08678 598.85258 296.45159 599.94339 300.53513 599.99609 c 0
 301.64316 600.01029 302.20509 599.98179 302.75388 599.94529 c 0
 303.29951 599.90906 303.94058 599.8562 305.07224 599.64256 c 0
 305.69356 599.52525 306.65687 599.28979 307.57809 599.04295 c 0
 308.60617 598.76685 309.82442 598.1863 311.08786 597.39451 c 0
 313.02724 596.28143 314.99985 594.78376 316.65231 592.36326 c 0
 316.71325 592.27402 316.73765 592.18634 316.79685 592.09764 c 0
 316.91893 591.9133 316.99319 591.72341 317.09958 591.53709 c 0
 318.71807 588.98207 319.73327 586.55005 320.22263 583.09764 c 0
 321.01236 577.52608 320.79056 575.74339 320.77536 574.1406 c 0
 320.75113 571.58025 320.43081 569.31788 319.87497 566.56053 c 0
 319.36418 564.02658 318.45001 560.64155 317.5195 558.23826 c 0
 316.14854 554.69744 316.2992 555.03697 315.18747 552.42771 c 0
 314.58753 551.01956 313.82229 549.5672 312.75192 547.45701 c 0
 310.58039 543.17593 307.1495 538.54438 303.02536 533.24803 c 0
 299.46328 528.67347 281.7147 509.58601 277.42575 505.2031 c 0
 275.68216 503.42135 274.23063 502.00756 272.77927 500.59568 c 0
 269.35889 496.84623 264.9774 492.35629 258.75388 486.21287 c 0
 235.60464 463.36148 229.65062 457.42232 222.08591 449.83396 c 0
 214.5201 442.24439 209.35358 437.06234 204.07614 431.48045 c 0
 200.89301 428.11384 200.22231 427.52364 197.78122 424.81443 c 0
 195.0375 421.76929 197.11108 424.09771 194.00192 420.6367 c 0
 193.41394 419.98214 192.67408 419.02445 192.27341 418.33982 c 0
 191.80729 417.54333 191.52842 417.0182 191.19724 416.3242 c 0
 190.823 415.54003 190.59847 414.82105 190.52927 414.47459 c 0
 190.24352 413.04536 190.3927 413.14737 190.54297 412.16795 c 0
 190.62855 411.61027 190.91669 410.97705 191.30078 410.3242 c 0
 191.36812 410.2203 191.39855 410.12293 191.46875 410.01756 c 0
 191.92796 409.3105 192.53082 408.57176 193.31055 407.82615 c 0
 195.46749 405.76354 198.16182 404.22894 199.57031 403.85154 c 0
 200.85906 403.50633 206.87711 401.93628 212.01953 402.03318 c 0
 225.28757 402.28307 239.89888 408.17621 251.42383 415.07225 c 0
 283.05988 434.00188 302.55629 450.8391 330.61328 474.80857 c 0
 359.5921 499.56557 388.05824 525.93483 416.82812 550.99998 c 0
 429.19175 561.77151 446.94392 575.59332 465.15234 585.81834 c 0
 478.80866 593.48711 492.72356 599.18862 504.9082 599.93162 c 0
 505.92359 599.99352 506.92766 600.02072 507.91797 600.01172 c 2
EndSplineSet
Validated: 524289
EndChar

StartChar: i.rn
Encoding: 11 -1 11
Width: 162
VWidth: 1024
Flags: HW
LayerCount: 2
Fore
SplineSet
322.50195 599.98242 m 1
 322.50193 599.98243 l 1
 325.47232 599.95623 328.32304 599.60496 331.02537 598.88087 c 2
 330.50779 596.94923 l 1
 327.936021433 597.638334793 325.182929178 597.960922472 322.285610186 597.960922472 c 0
 310.06639547 597.960922472 295.281871416 592.223170887 280.71482 584.04298 c 0
 262.69376 573.92317 245.01185 560.16595 232.72459 549.46095 c 0
 203.98589 524.42298 175.51634 498.05022 146.49607 473.25782 c 0
 118.44287 449.29159 98.809083 432.33638 67.035136 413.32423 c 0
 55.304205 406.30495 40.468347 400.26435 26.640605 400.00392 c 0
 21.063179 399.89888 14.922307 401.54498 13.62498 401.89259 c 2
 13.62498 401.89459 l 2
 12.642591 402.15885 11.42236 402.71045 10.138652 403.47076 c 0
 8.1926876 404.53322 6.1735488 405.97576 4.4824018 408.34576 c 0
 4.418488 408.43533 4.392178 408.52424 4.330058 408.61334 c 0
 4.20869 408.78882 4.1340406 408.97085 4.0273237 409.1485 c 0
 2.3602836 411.66061 1.2990963 414.06128 0.74021428 417.49029 c 0
 -0.16039572 423.01603 0.02185615 424.79658 0.00388615 426.39068 c 0
 -0.02489385 428.93828 0.24818253 431.19505 0.74412052 433.94928 c 0
 1.1999095 436.48055 2.0399225 439.86532 2.9159955 442.27545 c 0
 4.2065055 445.82565 4.0633113 445.4853 5.1152143 448.10358 c 0
 5.6829843 449.51689 6.4144748 450.97674 7.4355268 453.09772 c 0
 9.5073398 457.4014 12.823624 462.08037 16.816386 467.43365 c 0
 20.14916 471.90205 27.5788 480.76158 31.751933 485.20709 c 0
 49.238666 503.83506 76.010751 530.63619 95.929668 551.09967 c 1
 90.013768 545.93765 83.547056 540.41815 73.867168 532.36334 c 0
 58.209367 519.33419 52.413622 515.15371 34.285136 501.30475 c 0
 15.360134 486.84733 -6.1562748 469.36066 -26.296895 455.89654 c 0
 -51.701933 438.91316 -42.802298 442.69608 -86.013692 416.67389 c 0
 -92.581578 412.7187 -123.65826 395.35804 -132.13674 391.67584 c 0
 -139.10166 388.65098 -152.69913 381.87371 -167.76174 375.20318 c 0
 -182.82435 368.53268 -199.35697 361.95503 -212.41994 359.28717 c 1
 -212.82033 361.24811 l 1
 -200.06668 363.8528 -183.58372 370.38542 -168.57229 377.03326 c 0
 -153.56085 383.68111 -140.02605 390.42959 -132.93361 393.50983 c 0
 -124.93843 396.98213 -93.433675 414.53947 -87.044942 418.38678 c 0
 -43.864076 444.39059 -52.880478 440.53164 -27.410176 457.55865 c 0
 -7.3877702 470.94374 14.110288 488.40895 33.072246 502.89459 c 0
 51.20984 516.75051 56.954851 520.89192 72.587871 533.90045 c 0
 95.721803 553.15062 101.67971 558.72995 121.03904 576.37701 c 1
 121.05664 576.35941 l 1
 129.04459 584.21795 137.112 591.99493 145.24023 599.68362 c 2
 145.5293 599.95901 l 1
 145.92773 599.95901 l 2
 150.696654828 599.954837586 156.638407765 599.953542699 162.177121703 599.953542699 c 0
 171.240471784 599.953542699 179.22461 599.95701 179.22461 599.95701 c 1
 181.61719 599.95901 l 1
 179.9375 598.25589 l 1
 179.9375 598.25589 160.7662 578.81713 142.44727 559.83011 c 0
 124.11439 540.82871 93.848275 510.16596 71.298828 486.96292 c 0
 48.745207 463.75559 42.945698 457.72559 35.578125 450.02151 c 0
 28.209471 442.31625 23.176889 437.0555 18.042969 431.39456 c 0
 14.946343 427.9801 14.291954 427.37797 11.919922 424.63284 c 0
 9.2537386 421.54729 11.26717 423.90719 8.2460937 420.40042 c 0
 7.6750246 419.73754 6.9602678 418.77077 6.5761718 418.08206 c 0
 6.1290448 417.28032 5.8619289 416.75177 5.5468749 416.05472 c 0
 5.1909839 415.26733 4.9834049 414.54844 4.9218749 414.20315 c 0
 4.667469 412.77622 4.8126389 412.87978 4.9824219 411.90823 c 0
 5.0783519 411.35931 5.3783163 410.74038 5.7695312 410.10355 c 0
 5.8419492 409.99663 5.8755519 409.8956 5.9511719 409.78714 c 0
 6.4219289 409.09512 7.0332246 408.37615 7.8222656 407.65237 c 0
 8.9095476 406.65501 10.150336 405.79045 11.289062 405.12894 c 0
 12.430691 404.46574 13.470198 404.00651 14.150391 403.82425 c 2
 14.150391 403.82225 l 2
 15.435936 403.47787 21.459092 401.90503 26.603516 402.00193 c 0
 39.871554 402.25182 54.482864 408.14496 66.007812 415.041 c 0
 97.643867 433.97063 117.14027 450.80785 145.19727 474.77732 c 0
 174.17608 499.53431 202.64026 525.90358 231.41016 550.96873 c 0
 243.77377 561.74026 261.52791 575.56207 279.73633 585.78709 c 0
 293.39264 593.45586 307.30755 599.15931 319.49219 599.90232 c 0
 320.50757 599.96422 321.51182 599.99142 322.50195 599.98242 c 1
EndSplineSet
Validated: 524289
EndChar

StartChar: i.li.rn
Encoding: 12 -1 12
Width: 162
VWidth: 1024
Flags: HW
LayerCount: 2
Fore
SplineSet
322.50195 599.98438 m 1
 322.5019 599.98431 l 1
 325.47229 599.95811 328.32301 599.60683 331.02534 598.88274 c 2
 330.50776 596.9511 l 1
 327.935991433 597.640204793 325.182899178 597.962792472 322.285580186 597.962792472 c 0
 310.06636547 597.962792472 295.281841416 592.225040887 280.71479 584.04485 c 0
 262.69373 573.92504 245.01182 560.16782 232.72456 549.46282 c 0
 203.98586 524.42485 175.51631 498.0521 146.49604 473.2597 c 0
 118.44284 449.29347 98.809057 432.33825 67.03511 413.3261 c 0
 55.304179 406.30682 40.468321 400.26622 26.640579 400.00579 c 0
 21.063153 399.90075 14.922281 401.54685 13.624954 401.89446 c 2
 13.624954 401.89646 l 2
 12.642565 402.16072 11.422334 402.71233 10.138626 403.47264 c 0
 8.1926617 404.5351 6.1735228 405.97764 4.4823758 408.34764 c 0
 4.418459 408.43721 4.392155 408.52611 4.330032 408.61521 c 0
 4.2086644 408.79069 4.1340149 408.97272 4.0272977 409.15037 c 0
 2.360258 411.66248 1.2990697 414.06316 0.74018828 417.49217 c 0
 -0.16042204 423.01791 0.02183328 424.79846 0.00386015 426.39256 c 0
 -0.02491952 428.94014 0.24815708 431.19692 0.74409452 433.95115 c 0
 1.1998844 436.48242 2.039897 439.86719 2.9159695 442.27732 c 0
 4.2064796 445.82752 4.0632854 445.48717 5.1151883 448.10545 c 0
 5.6829581 449.51876 6.4144493 450.97861 7.4355008 453.09959 c 0
 9.507314 457.40327 12.823598 462.08225 16.81636 467.43553 c 0
 20.149134 471.90393 27.578774 480.76345 31.751907 485.20896 c 0
 49.527582 504.14473 77.007812 531.62967 97.017532 552.21092 c 2
 97.226516 552.42576 l 1
 97.228516 552.42776 l 2
 112.88757 568.49159 128.94166 584.26837 145.24023 599.68558 c 2
 145.5293 599.96097 l 1
 145.92773 599.96097 l 2
 150.696654828 599.956797586 156.638407765 599.955502699 162.177121703 599.955502699 c 0
 171.240471784 599.955502699 179.22461 599.95897 179.22461 599.95897 c 1
 181.61719 599.96097 l 1
 179.9375 598.25784 l 1
 179.9375 598.25784 160.7662 578.81908 142.44727 559.83206 c 0
 124.11439 540.83066 93.848275 510.16791 71.298828 486.96487 c 0
 48.745207 463.75754 42.945698 457.72755 35.578125 450.02347 c 0
 28.209471 442.31821 23.176889 437.05745 18.042969 431.39651 c 0
 14.946343 427.98205 14.291954 427.37993 11.919922 424.6348 c 0
 9.2537391 421.54925 11.26717 423.90914 8.2460937 420.40237 c 0
 7.6750248 419.73949 6.9602675 418.77272 6.5761718 418.08401 c 0
 6.129045 417.28227 5.8619294 416.75372 5.5468749 416.05667 c 0
 5.1909842 415.26928 4.9834029 414.55039 4.9218749 414.20511 c 0
 4.6674661 412.77816 4.8126388 412.88174 4.9824219 411.91019 c 0
 5.0783517 411.36127 5.378316 410.74233 5.7695312 410.1055 c 0
 5.8419485 409.99858 5.8755479 409.89755 5.9511719 409.78909 c 0
 6.4219289 409.09707 7.0332248 408.37811 7.8222656 407.65433 c 0
 8.9095476 406.65697 10.150335 405.7924 11.289062 405.13089 c 0
 12.430689 404.46769 13.470198 404.00846 14.150391 403.8262 c 2
 14.150391 403.8242 l 2
 15.435936 403.47982 21.459092 401.90699 26.603516 402.00389 c 0
 39.871554 402.25378 54.482864 408.14691 66.007812 415.04295 c 0
 97.643866 433.97258 117.14027 450.80981 145.19727 474.77928 c 0
 174.17608 499.53627 202.64026 525.90553 231.41016 550.97068 c 0
 243.77377 561.74221 261.52791 575.56402 279.73633 585.78904 c 0
 293.39264 593.45781 307.30755 599.16127 319.49219 599.90428 c 0
 320.50757 599.96618 321.51182 599.99338 322.50195 599.98438 c 1
EndSplineSet
Validated: 524289
EndChar

StartChar: a
Encoding: 13 97 13
Width: 322
VWidth: 1024
Flags: HW
LayerCount: 2
Fore
SplineSet
490.89062 611.75 m 1
 492.23442 610.26749 l 1
 466.13829 586.59252 430.80425 556.5915 407.65434 537.32803 c 0
 391.96936 524.27627 377.70314 514.45052 359.58988 500.61319 c 0
 340.6216 486.12271 320.61125 472.24338 300.37895 459.01358 c 0
 276.98742 443.71809 255.75557 431.35928 230.47856 418.82999 c 0
 223.64924 415.44481 211.23518 410.04759 202.67582 407.08585 c 0
 194.04169 404.09824 187.53903 402.4881 185.49027 402.03702 c 0
 183.47312 401.593 181.47124 401.1264 178.55863 400.63077 c 0
 175.20164 400.05947 170.87038 399.95727 169.73442 400.00577 c 0
 166.00917 400.1649 163.30272 400.58622 161.27543 401.06632 c 0
 159.5681 401.47063 159.08101 401.70276 158.23442 401.9296 c 2
 158.23442 401.9316 l 2
 157.25325 402.19665 156.03447 402.74741 154.75395 403.50582 c 0
 152.80814 404.56829 150.79064 406.01105 149.09965 408.38082 c 0
 149.03666 408.46911 149.01056 408.55669 148.94926 408.64449 c 0
 148.825 408.82396 148.74764 409.00963 148.63871 409.19137 c 0
 146.975 411.70052 145.91378 414.10006 145.35551 417.52535 c 0
 144.4549 423.0511 144.63913 424.82969 144.62113 426.42379 c 0
 144.59235 428.97137 144.86349 431.2301 145.35942 433.98434 c 0
 145.8152 436.51559 146.65522 439.90037 147.53129 442.31051 c 0
 148.8218 445.8607 148.67861 445.52035 149.73051 448.13863 c 0
 150.29828 449.55194 151.02977 451.01179 152.05082 453.13277 c 0
 154.12263 457.43645 157.43892 462.11348 161.43168 467.46676 c 2
 161.44338 467.48236 l 1
 161.45508 467.49796 l 1
 161.45508 467.49796 172.14715 480.74662 176.36719 485.2421 c 0
 194.14261 504.17759 221.62317 531.6629 241.63281 552.24405 c 2
 241.84375 552.45889 l 1
 241.84375 552.46089 l 1
 257.50281 568.52471 273.55885 584.30149 289.85742 599.7187 c 2
 290.14648 599.99214 l 1
 290.54492 599.99214 l 2
 294.735793333 599.988573333 299.832404444 599.987384444 304.765275556 599.987384444 c 0
 314.631017778 599.987384444 323.8418 599.99214 323.8418 599.99214 c 1
 326.23438 599.99414 l 1
 324.55469 598.29102 l 1
 324.55469 598.29102 305.38339 578.85226 287.06445 559.86523 c 0
 268.73158 540.86383 238.46546 510.20108 215.91602 486.99805 c 0
 193.36239 463.79071 187.56093 457.76073 180.19336 450.05664 c 0
 172.8247 442.35138 167.79212 437.09062 162.6582 431.42969 c 0
 159.56158 428.01522 158.90719 427.4131 156.53516 424.66797 c 0
 153.86897 421.58242 155.88436 423.94232 152.86328 420.43555 c 0
 152.29221 419.77266 151.5755 418.80589 151.19141 418.11719 c 0
 150.74428 417.31545 150.47912 416.78689 150.16406 416.08984 c 0
 149.80817 415.30245 149.59861 414.58357 149.53711 414.23828 c 0
 149.2827 412.81134 149.42983 412.91491 149.59961 411.94336 c 0
 149.69626 411.39029 149.99621 410.76712 150.39258 410.125 c 0
 150.4606 410.0247 150.4917 409.92977 150.5625 409.82812 c 0
 151.03368 409.13425 151.6481 408.41146 152.43945 407.68555 c 0
 153.52812 406.68692 154.77024 405.82199 155.91016 405.16016 c 0
 157.05007 404.49832 158.08825 404.03945 158.76758 403.85742 c 0
 159.73436 403.59736 160.12097 403.39621 161.73633 403.01367 c 0
 163.63134 402.5649 166.20418 402.15838 169.82031 402.00391 c 0
 170.53779 401.97325 175.12605 402.07462 178.22266 402.60156 c 0
 181.08023 403.08783 183.02768 403.54275 185.06055 403.99023 c 0
 186.99822 404.41686 193.47093 406.01787 202.02148 408.97656 c 0
 210.43495 411.88782 222.86796 417.28917 229.58984 420.62109 c 0
 254.79731 433.11591 275.94259 445.42529 299.2832 460.6875 c 0
 319.48477 473.8972 339.45633 487.75054 358.375 502.20312 c 0
 376.52782 516.07068 390.76914 525.87931 406.375 538.86523 c 0
 429.50923 558.11566 464.83718 588.11375 490.89062 611.75 c 1
223.51562 599.88281 m 1
 223.51562 599.88276 l 2
 225.85654 599.8416 231.65074 599.50398 237.75 596.49214 c 0
 242.51889 594.13724 244.99187 590.68454 246.26758 587.74214 c 0
 247.50662 584.88428 247.75073 581.00273 247.70703 578.72847 c 0
 247.64341 575.41756 246.80269 570.72508 242.26367 562.05073 c 0
 240.0379 557.79716 230.92781 543.39763 219.85938 531.61128 c 0
 193.48441 503.52554 159.09742 474.35327 126.20898 450.67964 c 0
 93.320561 427.00601 61.994919 408.83629 41.466797 402.75972 c 0
 34.810545 400.78946 24.164315 398.89856 17.126953 400.72456 c 1
 17.126953 400.72656 l 2
 14.957519 401.28948 11.466674 402.19934 9.0195312 403.85938 c 0
 6.8930018 405.30191 4.6956599 406.85244 2.5703125 410.70117 c 0
 0.09371382 415.18597 -0.16150433 421.77285 0.06640625 425.9082 c 0
 0.26457897 429.50419 0.56675736 434.33643 2.8339844 441.33789 c 0
 4.2370032 445.67056 7.0929346 453.32849 10.882812 461.13281 c 0
 15.362952 470.35858 23.121956 481.4912 27.685547 487.09375 c 0
 36.156863 497.49367 42.381971 505.66367 55.306641 517.4668 c 1
 48.480581 512.30576 41.60948 507.12697 33.939453 501.26758 c 0
 15.014451 486.81016 -6.5039151 469.32154 -26.644531 455.85742 c 0
 -52.049573 438.87404 -43.14993 442.65696 -86.361328 416.63477 c 0
 -92.929215 412.67957 -124.00589 395.32087 -132.48438 391.63867 c 0
 -139.44931 388.61381 -153.04676 381.83653 -168.10938 375.16602 c 0
 -183.172 368.4955 -199.70461 361.91786 -212.76758 359.25 c 1
 -213.16797 361.20898 l 1
 -200.41432 363.81367 -183.93136 370.34629 -168.91992 376.99414 c 0
 -153.90849 383.64199 -140.37173 390.39242 -133.2793 393.47266 c 0
 -125.28412 396.94496 -93.781311 414.50035 -87.392578 418.34766 c 0
 -44.211708 444.35146 -53.226165 440.49252 -27.755859 457.51953 c 0
 -7.7334572 470.90462 13.762651 488.36982 32.724609 502.85547 c 0
 50.864071 516.71281 65.529961 527.57004 81.914066 540.33007 c 1
 81.941406 540.29487 l 1
 91.108508 547.56125 100.15084 553.96856 109.48242 559.34565 c 0
 121.66688 566.36664 140.18325 576.0643 155.92578 582.33003 c 0
 164.05385 585.56511 178.05282 590.69997 185.89062 592.97847 c 0
 191.26298 594.54025 196.03483 595.59619 200.27734 596.45503 c 0
 203.87623 597.18358 203.31387 597.10929 206.33984 597.89448 c 2
 206.33984 597.89648 l 2
 210.2876 598.92082 217.91054 599.98141 223.51562 599.88281 c 1
223.48042 597.88281 m 0
 218.16821 597.97624 210.49915 596.90747 206.8437 595.95898 c 0
 202.0076 594.70416 194.76844 591.48803 188.73628 587.88281 c 0
 184.92733 585.60633 177.11392 581.00559 170.78511 576.38477 c 0
 164.08222 571.49078 153.61608 563.9596 138.79292 551.57031 c 0
 126.28849 541.11903 108.80051 525.3131 94.443309 512.43555 c 0
 70.149159 490.64515 59.211273 479.32778 45.960888 465.65039 c 0
 35.120314 454.46046 30.78938 449.25176 25.115184 443.27734 c 0
 22.970177 441.01884 16.354308 432.82942 11.710888 427.50586 c 0
 10.112609 425.67348 6.5665381 420.66657 5.5487781 418.67969 c 0
 4.0185517 415.69236 4.5463313 412.8381 4.8026844 412.03906 c 0
 5.4877061 409.90384 7.1713543 408.1962 7.9472156 407.52344 c 0
 10.792532 405.05623 13.280885 403.78993 17.642528 402.6582 c 0
 23.846599 401.05446 34.488126 402.77832 40.898388 404.67578 c 0
 60.912735 410.60027 92.248413 428.69812 125.04097 452.30273 c 0
 157.83351 475.90735 192.14819 505.02342 218.40229 532.98047 c 0
 229.28666 544.57082 238.45397 559.08151 240.49214 562.97656 c 0
 244.94248 571.48144 245.64888 575.74608 245.70698 578.76758 c 0
 245.74649 580.82417 245.43224 584.64181 244.43354 586.94531 c 0
 243.30105 589.55739 241.19077 592.56128 236.86518 594.69727 c 0
 231.16486 597.51211 225.68281 597.84411 223.48042 597.88281 c 0
EndSplineSet
Validated: 524289
EndChar

StartChar: a.ri
Encoding: 14 -1 14
Width: 322
VWidth: 1024
Flags: HW
LayerCount: 2
Fore
SplineSet
326.23438 599.99414 m 1
 324.55471 598.29089 l 1
 324.55471 598.29089 305.38341 578.85213 287.06447 559.8651 c 0
 268.7316 540.8637 238.46548 510.20095 215.91604 486.99792 c 0
 193.36241 463.79058 187.56095 457.7606 180.19338 450.05651 c 0
 172.82472 442.35125 167.79214 437.09049 162.65822 431.42956 c 0
 159.5616 428.01509 158.90721 427.41297 156.53518 424.66784 c 0
 153.86899 421.58229 155.88438 423.94219 152.8633 420.43542 c 0
 152.29223 419.77253 151.57552 418.80576 151.19143 418.11706 c 0
 150.7443 417.31532 150.47914 416.78676 150.16408 416.08971 c 0
 149.80819 415.30232 149.59863 414.58344 149.53713 414.23815 c 0
 149.28272 412.81121 149.42985 412.91478 149.59963 411.94323 c 0
 149.69628 411.39016 149.99623 410.76699 150.3926 410.12487 c 0
 150.46062 410.02457 150.49172 409.92964 150.56252 409.82799 c 0
 151.0337 409.13412 151.64812 408.41133 152.43947 407.68542 c 0
 153.52814 406.68679 154.77026 405.82186 155.91018 405.16003 c 0
 157.04299 404.5023 158.07244 404.04747 158.75197 403.86315 c 0
 159.63487 403.62658 160.49949 403.36548 161.26564 403.16198 c 0
 161.80053 403.01992 163.3437 402.6757 164.88674 402.46667 c 0
 167.03306 402.17589 169.42819 402.01703 169.80861 402.00573 c 0
 170.57568 401.98281 175.1282 402.07728 178.22268 402.60339 c 0
 181.08024 403.0897 183.02768 403.54267 185.06057 403.9901 c 0
 186.99828 404.41679 193.47098 406.01974 202.0215 408.97839 c 0
 210.43495 411.88964 222.86799 417.29094 229.58986 420.62292 c 0
 254.79726 433.11768 275.94462 445.42521 299.28518 460.68737 c 0
 319.47417 473.88893 340.30766 488.9542 359.07424 503.6112 c 0
 378.62628 518.88166 385.61951 524.05555 400.90041 537.34362 c 0
 412.54912 547.4732 426.35141 559.63139 431.3926 564.6776 c 1
 432.80666 563.26549 l 1
 427.61299 558.06665 413.8691 545.96994 402.21291 535.83385 c 0
 386.89787 522.51609 379.84707 517.29793 360.30471 502.03503 c 0
 341.49617 487.34525 320.62371 472.25158 300.37893 459.01354 c 0
 276.98746 443.7181 255.75548 431.35919 230.47854 418.82995 c 0
 223.64923 415.44472 211.23514 410.0495 202.6758 407.08776 c 0
 194.04171 404.1002 187.5409 402.4881 185.49221 402.03698 c 0
 183.47507 401.59301 181.47119 401.12641 178.55861 400.63073 c 0
 175.19951 400.05968 170.83528 399.97518 169.74807 400.00768 c 0
 169.13189 400.02607 166.85722 400.18273 164.61721 400.4862 c 0
 162.96607 400.70988 161.42409 401.05039 160.75393 401.22839 c 0
 159.94435 401.44341 159.0865 401.70311 158.25002 401.9276 c 1
 158.25002 401.9256 l 1
 158.24532 401.9266 158.23942 401.9306 158.23442 401.9316 c 0
 157.25325 402.19665 156.03447 402.74741 154.75395 403.50582 c 0
 152.80814 404.56829 150.79064 406.01105 149.09965 408.38082 c 0
 149.03666 408.46911 149.01056 408.55669 148.94926 408.64449 c 0
 148.825 408.82396 148.74764 409.00963 148.63871 409.19137 c 0
 146.975 411.70052 145.91378 414.10006 145.35551 417.52535 c 0
 144.4549 423.0511 144.63913 424.82969 144.62113 426.42379 c 0
 144.59235 428.97137 144.86349 431.2301 145.35942 433.98434 c 0
 145.8152 436.51559 146.65522 439.90037 147.53129 442.31051 c 0
 148.8218 445.8607 148.67861 445.52035 149.73051 448.13863 c 0
 150.29828 449.55194 151.02977 451.01179 152.05082 453.13277 c 0
 154.12263 457.43645 157.43892 462.11348 161.43168 467.46676 c 2
 161.44338 467.48236 l 1
 161.45508 467.49796 l 1
 161.45508 467.49796 172.14715 480.74662 176.36719 485.2421 c 0
 194.14261 504.17759 221.62317 531.6629 241.63281 552.24405 c 2
 241.84375 552.45889 l 1
 241.84375 552.46089 l 1
 257.50281 568.52471 273.55885 584.30149 289.85742 599.7187 c 2
 290.14648 599.99214 l 1
 290.54492 599.99214 l 2
 294.735793333 599.988573333 299.832404444 599.987384444 304.765275556 599.987384444 c 0
 314.631017778 599.987384444 323.8418 599.99214 323.8418 599.99214 c 1
 326.23438 599.99414 l 1
223.51562 599.88281 m 1
 223.51562 599.88275 l 2
 225.85654 599.84159 231.65074 599.50397 237.75 596.49213 c 0
 242.51889 594.13723 244.99187 590.68453 246.26758 587.74213 c 0
 247.50662 584.88427 247.75073 581.00272 247.70703 578.72846 c 0
 247.64341 575.41755 246.80269 570.72507 242.26367 562.05072 c 0
 240.0379 557.79715 230.92781 543.39762 219.85938 531.61127 c 0
 193.48441 503.52553 159.09742 474.35326 126.20898 450.67963 c 0
 93.320565 427.006 61.994923 408.83628 41.466801 402.75971 c 0
 34.810549 400.78945 24.164319 398.89855 17.126957 400.72455 c 1
 17.126957 400.72655 l 2
 14.957523 401.28947 11.466678 402.19933 9.0195352 403.85937 c 0
 6.8930058 405.3019 4.6956639 406.85243 2.5703165 410.70116 c 0
 0.09371782 415.18596 -0.16150033 421.77284 0.06641025 425.90819 c 0
 0.26458297 429.50418 0.56676136 434.33642 2.8339884 441.33788 c 0
 4.2370072 445.67055 7.0929386 453.32848 10.882816 461.1328 c 0
 15.362956 470.35857 23.12196 481.49119 27.685551 487.09374 c 0
 36.156867 497.49366 42.381975 505.66366 55.306645 517.46679 c 1
 48.480585 512.30575 41.609484 507.12696 33.939457 501.26757 c 0
 15.014455 486.81015 -6.5039111 469.32153 -26.644527 455.85741 c 0
 -52.049569 438.87403 -43.149926 442.65695 -86.361324 416.63476 c 0
 -92.929211 412.67956 -124.00589 395.32086 -132.48438 391.63866 c 0
 -139.44931 388.6138 -153.04676 381.83652 -168.10938 375.16601 c 0
 -183.172 368.49549 -199.70461 361.91785 -212.76758 359.24999 c 1
 -213.16797 361.20897 l 1
 -200.41432 363.81366 -183.93136 370.34628 -168.91992 376.99413 c 0
 -153.90849 383.64198 -140.37173 390.39241 -133.2793 393.47265 c 0
 -125.28412 396.94495 -93.781307 414.50034 -87.392574 418.34765 c 0
 -44.211704 444.35145 -53.226161 440.49251 -27.755855 457.51952 c 0
 -7.7334532 470.90461 13.762655 488.36981 32.724613 502.85546 c 0
 50.864075 516.7128 65.529965 527.57003 81.914066 540.33007 c 1
 81.941406 540.29487 l 1
 91.108508 547.56125 100.15084 553.96856 109.48242 559.34565 c 0
 121.66688 566.36664 140.18325 576.0643 155.92578 582.33003 c 0
 164.05385 585.56511 178.05282 590.69997 185.89062 592.97847 c 0
 191.26298 594.54025 196.03483 595.59619 200.27734 596.45503 c 0
 203.87623 597.18358 203.31387 597.10929 206.33984 597.89448 c 2
 206.33984 597.89648 l 2
 210.2876 598.92082 217.91054 599.98141 223.51562 599.88281 c 1
223.48042 597.88281 m 0
 218.16821 597.97624 210.49915 596.90747 206.8437 595.95898 c 0
 202.0076 594.70416 194.76844 591.48803 188.73628 587.88281 c 0
 184.92733 585.60633 177.11392 581.00559 170.78511 576.38477 c 0
 164.08222 571.49078 153.61608 563.9596 138.79292 551.57031 c 0
 126.28849 541.11903 108.80051 525.3131 94.443309 512.43555 c 0
 70.149159 490.64515 59.211273 479.32778 45.960888 465.65039 c 0
 35.120314 454.46046 30.78938 449.25176 25.115184 443.27734 c 0
 22.970177 441.01884 16.354308 432.82942 11.710888 427.50586 c 0
 10.112609 425.67348 6.5665381 420.66657 5.5487781 418.67969 c 0
 4.0185517 415.69236 4.5463313 412.8381 4.8026844 412.03906 c 0
 5.4877061 409.90384 7.1713543 408.1962 7.9472156 407.52344 c 0
 10.792532 405.05623 13.280885 403.78993 17.642528 402.6582 c 0
 23.846599 401.05446 34.488126 402.77832 40.898388 404.67578 c 0
 60.912735 410.60027 92.248413 428.69812 125.04097 452.30273 c 0
 157.83351 475.90735 192.14819 505.02342 218.40229 532.98047 c 0
 229.28666 544.57082 238.45397 559.08151 240.49214 562.97656 c 0
 244.94248 571.48144 245.64888 575.74608 245.70698 578.76758 c 0
 245.74649 580.82417 245.43224 584.64181 244.43354 586.94531 c 0
 243.30105 589.55739 241.19077 592.56128 236.86518 594.69727 c 0
 231.16486 597.51211 225.68281 597.84411 223.48042 597.88281 c 0
EndSplineSet
Validated: 524289
EndChar

StartChar: a.li.ri
Encoding: 15 -1 15
Width: 322
VWidth: 1024
Flags: HW
LayerCount: 2
Fore
SplineSet
326.23438 599.99414 m 1
 324.55471 598.29089 l 1
 324.55471 598.29089 305.38341 578.85213 287.06447 559.8651 c 0
 268.7316 540.8637 238.46548 510.20095 215.91604 486.99792 c 0
 193.36241 463.79058 187.56095 457.7606 180.19338 450.05651 c 0
 172.82472 442.35125 167.79214 437.09049 162.65822 431.42956 c 0
 159.5616 428.01509 158.90721 427.41297 156.53518 424.66784 c 0
 153.86899 421.58229 155.88438 423.94219 152.8633 420.43542 c 0
 152.29223 419.77253 151.57552 418.80576 151.19143 418.11706 c 0
 150.7443 417.31532 150.47914 416.78676 150.16408 416.08971 c 0
 149.80819 415.30232 149.59863 414.58344 149.53713 414.23815 c 0
 149.28272 412.81121 149.42985 412.91478 149.59963 411.94323 c 0
 149.69628 411.39016 149.99623 410.76699 150.3926 410.12487 c 0
 150.46062 410.02457 150.49172 409.92964 150.56252 409.82799 c 0
 151.0337 409.13412 151.64812 408.41133 152.43947 407.68542 c 0
 153.52814 406.68679 154.77026 405.82186 155.91018 405.16003 c 0
 157.04299 404.5023 158.07244 404.04747 158.75197 403.86315 c 0
 159.63487 403.62658 160.49949 403.36548 161.26564 403.16198 c 0
 161.80053 403.01992 163.3437 402.6757 164.88674 402.46667 c 0
 167.03306 402.17589 169.42819 402.01703 169.80861 402.00573 c 0
 170.57568 401.98281 175.1282 402.07728 178.22268 402.60339 c 0
 181.08024 403.0897 183.02768 403.54267 185.06057 403.9901 c 0
 186.99828 404.41679 193.47098 406.01974 202.0215 408.97839 c 0
 210.43495 411.88964 222.86799 417.29094 229.58986 420.62292 c 0
 254.79726 433.11768 275.94462 445.42521 299.28518 460.68737 c 0
 319.47417 473.88893 340.30766 488.9542 359.07424 503.6112 c 0
 378.62628 518.88166 385.61951 524.05555 400.90041 537.34362 c 0
 412.54912 547.4732 426.35141 559.63139 431.3926 564.6776 c 1
 432.80666 563.26549 l 1
 427.61299 558.06665 413.8691 545.96994 402.21291 535.83385 c 0
 386.89787 522.51609 379.84707 517.29793 360.30471 502.03503 c 0
 341.49617 487.34525 320.62371 472.25158 300.37893 459.01354 c 0
 276.98746 443.7181 255.75548 431.35919 230.47854 418.82995 c 0
 223.64923 415.44472 211.23514 410.0495 202.6758 407.08776 c 0
 194.04171 404.1002 187.5409 402.4881 185.49221 402.03698 c 0
 183.47507 401.59301 181.47119 401.12641 178.55861 400.63073 c 0
 175.19951 400.05968 170.83528 399.97518 169.74807 400.00768 c 0
 169.13189 400.02607 166.85722 400.18273 164.61721 400.4862 c 0
 162.96607 400.70988 161.42409 401.05039 160.75393 401.22839 c 0
 159.94435 401.44341 159.0865 401.70311 158.25002 401.9276 c 1
 158.25002 401.9256 l 1
 158.24532 401.9266 158.23942 401.9306 158.23442 401.9316 c 0
 157.25325 402.19665 156.03447 402.74741 154.75395 403.50582 c 0
 152.80814 404.56829 150.79064 406.01105 149.09965 408.38082 c 0
 149.03666 408.46911 149.01056 408.55669 148.94926 408.64449 c 0
 148.825 408.82396 148.74764 409.00963 148.63871 409.19137 c 0
 146.975 411.70052 145.91378 414.10006 145.35551 417.52535 c 0
 144.4549 423.0511 144.63913 424.82969 144.62113 426.42379 c 0
 144.59235 428.97137 144.86349 431.2301 145.35942 433.98434 c 0
 145.8152 436.51559 146.65522 439.90037 147.53129 442.31051 c 0
 148.8218 445.8607 148.67861 445.52035 149.73051 448.13863 c 0
 150.29828 449.55194 151.02977 451.01179 152.05082 453.13277 c 0
 154.12263 457.43645 157.43892 462.11348 161.43168 467.46676 c 2
 161.44338 467.48236 l 1
 161.45508 467.49796 l 1
 161.45508 467.49796 172.14715 480.74662 176.36719 485.2421 c 0
 194.14261 504.17759 221.62317 531.6629 241.63281 552.24405 c 2
 241.84375 552.45889 l 1
 241.84375 552.46089 l 1
 257.50281 568.52471 273.55885 584.30149 289.85742 599.7187 c 2
 290.14648 599.99214 l 1
 290.54492 599.99214 l 2
 294.735793333 599.988573333 299.832404444 599.987384444 304.765275556 599.987384444 c 0
 314.631017778 599.987384444 323.8418 599.99214 323.8418 599.99214 c 1
 326.23438 599.99414 l 1
223.51562 599.88281 m 1
 223.51562 599.88276 l 2
 225.85654 599.8416 231.65074 599.50398 237.75 596.49214 c 0
 242.51889 594.13724 244.99187 590.68454 246.26758 587.74214 c 0
 247.50662 584.88428 247.75073 581.00273 247.70703 578.72847 c 0
 247.64341 575.41756 246.80269 570.72508 242.26367 562.05073 c 0
 240.0379 557.79716 230.92781 543.39763 219.85938 531.61128 c 0
 193.48441 503.52554 159.09742 474.35327 126.20898 450.67964 c 0
 93.320561 427.00601 61.994919 408.83629 41.466797 402.75972 c 0
 34.810545 400.78946 24.164315 398.89856 17.126953 400.72456 c 1
 17.126953 400.72656 l 2
 14.957519 401.28948 11.466674 402.19934 9.0195312 403.85938 c 0
 6.8930018 405.30191 4.6956599 406.85244 2.5703125 410.70117 c 0
 0.09371382 415.18597 -0.16150433 421.77285 0.06640625 425.9082 c 0
 0.26457897 429.50419 0.56675736 434.33643 2.8339844 441.33789 c 0
 4.2370032 445.67056 7.0929346 453.32849 10.882812 461.13281 c 0
 15.362952 470.35858 23.121956 481.4912 27.685547 487.09375 c 0
 36.480942 497.89153 42.779293 506.24553 56.75 518.80078 c 0
 75.190289 535.37279 91.809315 549.162 109.48242 559.34565 c 0
 121.66688 566.36664 140.18325 576.0643 155.92578 582.33003 c 0
 164.05385 585.56511 178.05282 590.69997 185.89062 592.97847 c 0
 191.26298 594.54025 196.03483 595.59619 200.27734 596.45503 c 0
 203.87623 597.18358 203.31387 597.10929 206.33984 597.89448 c 2
 206.33984 597.89648 l 2
 210.2876 598.92082 217.91054 599.98141 223.51562 599.88281 c 1
223.48042 597.88281 m 0
 218.16821 597.97624 210.49915 596.90747 206.8437 595.95898 c 0
 202.0076 594.70416 194.76844 591.48803 188.73628 587.88281 c 0
 184.92733 585.60633 177.11392 581.00559 170.78511 576.38477 c 0
 164.08222 571.49078 153.61608 563.9596 138.79292 551.57031 c 0
 126.28849 541.11903 108.80051 525.3131 94.443309 512.43555 c 0
 70.149159 490.64515 59.211273 479.32778 45.960888 465.65039 c 0
 35.120314 454.46046 30.78938 449.25176 25.115184 443.27734 c 0
 22.970177 441.01884 16.354308 432.82942 11.710888 427.50586 c 0
 10.112609 425.67348 6.5665381 420.66657 5.5487781 418.67969 c 0
 4.0185517 415.69236 4.5463313 412.8381 4.8026844 412.03906 c 0
 5.4877061 409.90384 7.1713543 408.1962 7.9472156 407.52344 c 0
 10.792532 405.05623 13.280885 403.78993 17.642528 402.6582 c 0
 23.846599 401.05446 34.488126 402.77832 40.898388 404.67578 c 0
 60.912735 410.60027 92.248413 428.69812 125.04097 452.30273 c 0
 157.83351 475.90735 192.14819 505.02342 218.40229 532.98047 c 0
 229.28666 544.57082 238.45397 559.08151 240.49214 562.97656 c 0
 244.94248 571.48144 245.64888 575.74608 245.70698 578.76758 c 0
 245.74649 580.82417 245.43224 584.64181 244.43354 586.94531 c 0
 243.30105 589.55739 241.19077 592.56128 236.86518 594.69727 c 0
 231.16486 597.51211 225.68281 597.84411 223.48042 597.88281 c 0
EndSplineSet
Validated: 524289
EndChar

StartChar: a.li
Encoding: 16 -1 16
Width: 322
VWidth: 1024
Flags: HW
LayerCount: 2
Fore
SplineSet
490.89062 611.75 m 1
 492.2344 610.2674 l 1
 466.13827 586.59243 430.80423 556.59141 407.65432 537.32794 c 0
 391.96934 524.27618 377.70312 514.45043 359.58986 500.6131 c 0
 340.62158 486.12262 320.61123 472.24329 300.37893 459.01349 c 0
 276.9874 443.718 255.75555 431.35919 230.47854 418.8299 c 0
 223.64922 415.44472 211.23516 410.0475 202.6758 407.08576 c 0
 194.04167 404.09815 187.53901 402.48801 185.49025 402.03693 c 0
 183.4731 401.59291 181.47122 401.12631 178.55861 400.63068 c 0
 175.20162 400.05938 170.87036 399.95718 169.7344 400.00568 c 0
 166.00915 400.16481 163.3027 400.58613 161.27541 401.06623 c 0
 159.57677 401.46848 159.08871 401.69986 158.25002 401.9256 c 0
 158.24572 401.9266 158.23842 401.9286 158.23442 401.9296 c 2
 158.23442 401.9316 l 2
 157.25325 402.19665 156.03447 402.74741 154.75395 403.50582 c 0
 152.80814 404.56829 150.79064 406.01105 149.09965 408.38082 c 0
 149.03666 408.46911 149.01056 408.55669 148.94926 408.64449 c 0
 148.825 408.82396 148.74764 409.00963 148.63871 409.19137 c 0
 146.975 411.70052 145.91378 414.10006 145.35551 417.52535 c 0
 144.4549 423.0511 144.63913 424.82969 144.62113 426.42379 c 0
 144.59235 428.97137 144.86349 431.2301 145.35942 433.98434 c 0
 145.8152 436.51559 146.65522 439.90037 147.53129 442.31051 c 0
 148.8218 445.8607 148.67861 445.52035 149.73051 448.13863 c 0
 150.29828 449.55194 151.02977 451.01179 152.05082 453.13277 c 0
 154.12263 457.43645 157.43892 462.11348 161.43168 467.46676 c 2
 161.44338 467.48236 l 1
 161.45508 467.49796 l 1
 161.45508 467.49796 172.14715 480.74662 176.36719 485.2421 c 0
 194.14261 504.17759 221.62317 531.6629 241.63281 552.24405 c 2
 241.84375 552.45889 l 1
 241.84375 552.46089 l 1
 257.50281 568.52471 273.55885 584.30149 289.85742 599.7187 c 2
 290.14648 599.99214 l 1
 290.54492 599.99214 l 2
 294.735793333 599.988573333 299.832404444 599.987384444 304.765275556 599.987384444 c 0
 314.631017778 599.987384444 323.8418 599.99214 323.8418 599.99214 c 1
 326.23438 599.99414 l 1
 324.55469 598.29102 l 1
 324.55469 598.29102 305.38339 578.85226 287.06445 559.86523 c 0
 268.73158 540.86383 238.46546 510.20108 215.91602 486.99805 c 0
 193.36239 463.79071 187.56093 457.76073 180.19336 450.05664 c 0
 172.8247 442.35138 167.79212 437.09062 162.6582 431.42969 c 0
 159.56158 428.01522 158.90719 427.4131 156.53516 424.66797 c 0
 153.86897 421.58242 155.88436 423.94232 152.86328 420.43555 c 0
 152.29221 419.77266 151.5755 418.80589 151.19141 418.11719 c 0
 150.74428 417.31545 150.47912 416.78689 150.16406 416.08984 c 0
 149.80817 415.30245 149.59861 414.58357 149.53711 414.23828 c 0
 149.2827 412.81134 149.42983 412.91491 149.59961 411.94336 c 0
 149.69626 411.39029 149.99621 410.76712 150.39258 410.125 c 0
 150.4606 410.0247 150.4917 409.92977 150.5625 409.82812 c 0
 151.03368 409.13425 151.6481 408.41146 152.43945 407.68555 c 0
 153.52812 406.68692 154.77024 405.82199 155.91016 405.16016 c 0
 157.05007 404.49832 158.08825 404.03945 158.76758 403.85742 c 0
 159.73436 403.59736 160.12097 403.39621 161.73633 403.01367 c 0
 163.63134 402.5649 166.20418 402.15838 169.82031 402.00391 c 0
 170.53779 401.97325 175.12605 402.07462 178.22266 402.60156 c 0
 181.08023 403.08783 183.02768 403.54275 185.06055 403.99023 c 0
 186.99822 404.41686 193.47093 406.01787 202.02148 408.97656 c 0
 210.43495 411.88782 222.86796 417.28917 229.58984 420.62109 c 0
 254.79731 433.11591 275.94259 445.42529 299.2832 460.6875 c 0
 319.48477 473.8972 339.45633 487.75054 358.375 502.20312 c 0
 376.52782 516.07068 390.76914 525.87931 406.375 538.86523 c 0
 429.50923 558.11566 464.83718 588.11375 490.89062 611.75 c 1
223.51562 599.88281 m 1
 223.51562 599.88276 l 2
 225.85654 599.8416 231.65074 599.50398 237.75 596.49214 c 0
 242.51889 594.13724 244.99187 590.68454 246.26758 587.74214 c 0
 247.50662 584.88428 247.75073 581.00273 247.70703 578.72847 c 0
 247.64341 575.41756 246.80269 570.72508 242.26367 562.05073 c 0
 240.0379 557.79716 230.92781 543.39763 219.85938 531.61128 c 0
 193.48441 503.52554 159.09742 474.35327 126.20898 450.67964 c 0
 93.320561 427.00601 61.994919 408.83629 41.466797 402.75972 c 0
 34.810545 400.78946 24.164315 398.89856 17.126953 400.72456 c 1
 17.126953 400.72656 l 2
 14.957519 401.28948 11.466674 402.19934 9.0195312 403.85938 c 0
 6.8930018 405.30191 4.6956599 406.85244 2.5703125 410.70117 c 0
 0.09371382 415.18597 -0.16150433 421.77285 0.06640625 425.9082 c 0
 0.26457897 429.50419 0.56675736 434.33643 2.8339844 441.33789 c 0
 4.2370032 445.67056 7.0929346 453.32849 10.882812 461.13281 c 0
 15.362952 470.35858 23.121956 481.4912 27.685547 487.09375 c 0
 36.480942 497.89153 42.779293 506.24553 56.75 518.80078 c 0
 75.190289 535.37279 91.809315 549.162 109.48242 559.34565 c 0
 121.66688 566.36664 140.18325 576.0643 155.92578 582.33003 c 0
 164.05385 585.56511 178.05282 590.69997 185.89062 592.97847 c 0
 191.26298 594.54025 196.03483 595.59619 200.27734 596.45503 c 0
 203.87623 597.18358 203.31387 597.10929 206.33984 597.89448 c 2
 206.33984 597.89648 l 2
 210.2876 598.92082 217.91054 599.98141 223.51562 599.88281 c 1
223.48042 597.88281 m 0
 218.16821 597.97624 210.49915 596.90747 206.8437 595.95898 c 0
 202.0076 594.70416 194.76844 591.48803 188.73628 587.88281 c 0
 184.92733 585.60633 177.11392 581.00559 170.78511 576.38477 c 0
 164.08222 571.49078 153.61608 563.9596 138.79292 551.57031 c 0
 126.28849 541.11903 108.80051 525.3131 94.443309 512.43555 c 0
 70.149159 490.64515 59.211273 479.32778 45.960888 465.65039 c 0
 35.120314 454.46046 30.78938 449.25176 25.115184 443.27734 c 0
 22.970177 441.01884 16.354308 432.82942 11.710888 427.50586 c 0
 10.112609 425.67348 6.5665381 420.66657 5.5487781 418.67969 c 0
 4.0185517 415.69236 4.5463313 412.8381 4.8026844 412.03906 c 0
 5.4877061 409.90384 7.1713543 408.1962 7.9472156 407.52344 c 0
 10.792532 405.05623 13.280885 403.78993 17.642528 402.6582 c 0
 23.846599 401.05446 34.488126 402.77832 40.898388 404.67578 c 0
 60.912735 410.60027 92.248413 428.69812 125.04097 452.30273 c 0
 157.83351 475.90735 192.14819 505.02342 218.40229 532.98047 c 0
 229.28666 544.57082 238.45397 559.08151 240.49214 562.97656 c 0
 244.94248 571.48144 245.64888 575.74608 245.70698 578.76758 c 0
 245.74649 580.82417 245.43224 584.64181 244.43354 586.94531 c 0
 243.30105 589.55739 241.19077 592.56128 236.86518 594.69727 c 0
 231.16486 597.51211 225.68281 597.84411 223.48042 597.88281 c 0
EndSplineSet
Validated: 524289
EndChar

StartChar: a.li.rn
Encoding: 17 -1 17
Width: 306
VWidth: 1024
Flags: HW
LayerCount: 2
Fore
SplineSet
467.12305 600.01562 m 2
 467.12318 600.0155 l 2
 470.09357 599.98933 472.94428 599.63803 475.64661 598.91394 c 2
 475.12904 596.9823 l 1
 472.557269517 597.671404793 469.804175712 597.993992472 466.906855539 597.993992472 c 0
 454.687635837 597.993992472 439.903113332 592.256240887 425.33607 584.07605 c 0
 407.315 573.95624 389.63309 560.19902 377.34583 549.49402 c 0
 348.60713 524.45605 320.13758 498.0833 291.11732 473.2909 c 0
 263.06411 449.32467 243.43033 432.36945 211.65638 413.3573 c 0
 199.92545 406.33802 185.08959 400.29742 171.26185 400.03699 c 0
 165.68653 399.93199 159.55064 401.5772 158.25013 401.92566 c 0
 158.24913 401.92579 158.24663 401.92553 158.24613 401.92566 c 2
 158.24613 401.92766 l 2
 157.2632 402.1916 156.03902 402.74468 154.75395 403.50579 c 0
 152.80814 404.56826 150.79064 406.01102 149.09965 408.38079 c 0
 149.03666 408.46908 149.01056 408.55666 148.94926 408.64446 c 0
 148.825 408.82393 148.74764 409.0096 148.63871 409.19134 c 0
 146.975 411.70049 145.91378 414.10003 145.35551 417.52532 c 0
 144.4549 423.05107 144.63913 424.82966 144.62113 426.42376 c 0
 144.59235 428.97134 144.86349 431.23007 145.35942 433.98431 c 0
 145.8152 436.51556 146.65522 439.90034 147.53129 442.31048 c 0
 148.8218 445.86067 148.67861 445.52032 149.73051 448.1386 c 0
 150.29828 449.55191 151.02977 451.01176 152.05082 453.13274 c 0
 154.12263 457.43642 157.43892 462.11345 161.43168 467.46673 c 2
 161.44338 467.48233 l 1
 161.45508 467.49793 l 1
 161.45508 467.49793 172.14715 480.74659 176.36719 485.24207 c 0
 194.14261 504.17756 221.62317 531.66287 241.63281 552.24402 c 2
 241.84375 552.45886 l 1
 241.84375 552.46086 l 1
 257.50281 568.52468 273.55885 584.30146 289.85742 599.71867 c 2
 290.14648 599.99211 l 1
 290.54492 599.99211 l 2
 294.735793333 599.988543333 299.832404444 599.987354444 304.765275556 599.987354444 c 0
 314.631017778 599.987354444 323.8418 599.99211 323.8418 599.99211 c 1
 326.23438 599.99411 l 1
 324.55469 598.29099 l 1
 324.55469 598.29099 305.38339 578.85223 287.06445 559.8652 c 0
 268.73158 540.8638 238.46546 510.20105 215.91602 486.99802 c 0
 193.36239 463.79068 187.56093 457.7607 180.19336 450.05661 c 0
 172.8247 442.35135 167.79212 437.09059 162.6582 431.42966 c 0
 159.56158 428.01519 158.90719 427.41307 156.53516 424.66794 c 0
 153.86897 421.58239 155.88436 423.94229 152.86328 420.43552 c 0
 152.29221 419.77263 151.5755 418.80586 151.19141 418.11716 c 0
 150.74428 417.31542 150.47912 416.78686 150.16406 416.08981 c 0
 149.80817 415.30242 149.59861 414.58354 149.53711 414.23825 c 0
 149.2827 412.81131 149.42983 412.91488 149.59961 411.94333 c 0
 149.69626 411.39026 149.99621 410.76709 150.39258 410.12497 c 0
 150.4606 410.02467 150.4917 409.92974 150.5625 409.82809 c 0
 151.03368 409.13422 151.6481 408.41143 152.43945 407.68552 c 0
 153.52812 406.68689 154.77024 405.82196 155.91016 405.16013 c 0
 157.05007 404.49829 158.08825 404.03942 158.76758 403.85739 c 0
 160.04957 403.51393 166.07796 401.93813 171.22461 402.03513 c 0
 184.49265 402.28502 199.10396 408.17815 210.62891 415.07419 c 0
 242.26496 434.00382 261.76136 450.84105 289.81836 474.81052 c 0
 318.79718 499.56751 347.26135 525.93677 376.03125 551.00192 c 0
 388.39486 561.77345 406.149 575.59526 424.35742 585.82028 c 0
 438.01374 593.48905 451.92864 599.19251 464.11328 599.93552 c 0
 465.12867 599.99742 466.13292 600.02462 467.12305 600.01562 c 2
223.51562 599.88281 m 1
 223.51562 599.88276 l 2
 225.85654 599.8416 231.65074 599.50398 237.75 596.49214 c 0
 242.51889 594.13724 244.99187 590.68454 246.26758 587.74214 c 0
 247.50662 584.88428 247.75073 581.00273 247.70703 578.72847 c 0
 247.64341 575.41756 246.80269 570.72508 242.26367 562.05073 c 0
 240.0379 557.79716 230.92781 543.39763 219.85938 531.61128 c 0
 193.48441 503.52554 159.09742 474.35327 126.20898 450.67964 c 0
 93.320561 427.00601 61.994919 408.83629 41.466797 402.75972 c 0
 34.810545 400.78946 24.164315 398.89856 17.126953 400.72456 c 1
 17.126953 400.72656 l 2
 14.957519 401.28948 11.466674 402.19934 9.0195312 403.85938 c 0
 6.8930018 405.30191 4.6956599 406.85244 2.5703125 410.70117 c 0
 0.09371382 415.18597 -0.16150433 421.77285 0.06640625 425.9082 c 0
 0.26457897 429.50419 0.56675736 434.33643 2.8339844 441.33789 c 0
 4.2370032 445.67056 7.0929346 453.32849 10.882812 461.13281 c 0
 15.362952 470.35858 23.121956 481.4912 27.685547 487.09375 c 0
 36.480942 497.89153 42.779293 506.24553 56.75 518.80078 c 0
 75.190289 535.37279 91.809315 549.162 109.48242 559.34565 c 0
 121.66688 566.36664 140.18325 576.0643 155.92578 582.33003 c 0
 164.05385 585.56511 178.05282 590.69997 185.89062 592.97847 c 0
 191.26298 594.54025 196.03483 595.59619 200.27734 596.45503 c 0
 203.87623 597.18358 203.31387 597.10929 206.33984 597.89448 c 2
 206.33984 597.89648 l 2
 210.2876 598.92082 217.91054 599.98141 223.51562 599.88281 c 1
223.48042 597.88281 m 0
 218.16821 597.97624 210.49915 596.90747 206.8437 595.95898 c 0
 202.0076 594.70416 194.76844 591.48803 188.73628 587.88281 c 0
 184.92733 585.60633 177.11392 581.00559 170.78511 576.38477 c 0
 164.08222 571.49078 153.61608 563.9596 138.79292 551.57031 c 0
 126.28849 541.11903 108.80051 525.3131 94.443309 512.43555 c 0
 70.149159 490.64515 59.211273 479.32778 45.960888 465.65039 c 0
 35.120314 454.46046 30.78938 449.25176 25.115184 443.27734 c 0
 22.970177 441.01884 16.354308 432.82942 11.710888 427.50586 c 0
 10.112609 425.67348 6.5665381 420.66657 5.5487781 418.67969 c 0
 4.0185517 415.69236 4.5463313 412.8381 4.8026844 412.03906 c 0
 5.4877061 409.90384 7.1713543 408.1962 7.9472156 407.52344 c 0
 10.792532 405.05623 13.280885 403.78993 17.642528 402.6582 c 0
 23.846599 401.05446 34.488126 402.77832 40.898388 404.67578 c 0
 60.912735 410.60027 92.248413 428.69812 125.04097 452.30273 c 0
 157.83351 475.90735 192.14819 505.02342 218.40229 532.98047 c 0
 229.28666 544.57082 238.45397 559.08151 240.49214 562.97656 c 0
 244.94248 571.48144 245.64888 575.74608 245.70698 578.76758 c 0
 245.74649 580.82417 245.43224 584.64181 244.43354 586.94531 c 0
 243.30105 589.55739 241.19077 592.56128 236.86518 594.69727 c 0
 231.16486 597.51211 225.68281 597.84411 223.48042 597.88281 c 0
EndSplineSet
Validated: 524289
EndChar

StartChar: a.li.ra
Encoding: 18 -1 18
Width: 327
VWidth: 1024
Flags: HW
LayerCount: 2
Fore
SplineSet
326.23438 599.99414 m 1
 324.55471 598.29084 l 1
 324.55471 598.29084 305.38341 578.85208 287.06447 559.86505 c 0
 268.7316 540.86365 238.46548 510.2009 215.91604 486.99787 c 0
 193.36241 463.79053 187.56095 457.76055 180.19338 450.05646 c 0
 172.82472 442.3512 167.79214 437.09044 162.65822 431.42951 c 0
 159.5616 428.01504 158.90721 427.41292 156.53518 424.66779 c 0
 153.86899 421.58224 155.88438 423.94214 152.8633 420.43537 c 0
 152.29223 419.77248 151.57552 418.80571 151.19143 418.11701 c 0
 150.7443 417.31527 150.47914 416.78671 150.16408 416.08966 c 0
 149.80819 415.30227 149.59863 414.58339 149.53713 414.2381 c 0
 149.28272 412.81116 149.42985 412.91473 149.59963 411.94318 c 0
 149.69628 411.39011 149.99623 410.76694 150.3926 410.12482 c 0
 150.46062 410.02452 150.49172 409.92959 150.56252 409.82794 c 0
 151.0337 409.13407 151.64812 408.41128 152.43947 407.68537 c 0
 153.52814 406.68674 154.77026 405.82181 155.91018 405.15998 c 0
 157.05009 404.49814 158.08827 404.03927 158.7676 403.85724 c 0
 159.73438 403.59718 160.12099 403.39603 161.73635 403.01349 c 0
 163.63136 402.56472 166.2042 402.1582 169.82033 402.00373 c 0
 170.53781 401.97307 175.12607 402.07444 178.22268 402.60138 c 0
 181.08025 403.08765 183.0277 403.54257 185.06057 403.99005 c 0
 186.99824 404.41668 193.47095 406.01769 202.0215 408.97638 c 0
 210.43497 411.88764 222.86798 417.28899 229.58986 420.62091 c 0
 254.79733 433.11573 275.94261 445.42511 299.28322 460.68732 c 0
 319.48479 473.89702 339.45635 487.75036 358.37502 502.20294 c 0
 376.52021 516.06466 398.70055 532.35026 415.12307 545.08966 c 1
 416.34963 543.50959 l 1
 399.89031 530.74163 377.71076 514.45626 359.58986 500.6131 c 0
 340.62158 486.12262 320.61123 472.24329 300.37893 459.01349 c 0
 276.9874 443.718 255.75555 431.35919 230.47854 418.8299 c 0
 223.64922 415.44472 211.23516 410.0475 202.6758 407.08576 c 0
 194.04167 404.09815 187.53901 402.48801 185.49025 402.03693 c 0
 183.4731 401.59291 181.47122 401.12631 178.55861 400.63068 c 0
 175.20162 400.05938 170.87036 399.95718 169.7344 400.00568 c 0
 166.00915 400.16481 163.3027 400.58613 161.27541 401.06623 c 0
 159.57677 401.46848 159.08871 401.69986 158.25002 401.9256 c 0
 158.24572 401.9266 158.23842 401.9286 158.23442 401.9296 c 2
 158.23442 401.9316 l 2
 157.25325 402.19665 156.03447 402.74741 154.75395 403.50582 c 0
 152.80814 404.56829 150.79064 406.01105 149.09965 408.38082 c 0
 149.03666 408.46911 149.01056 408.55669 148.94926 408.64449 c 0
 148.825 408.82396 148.74764 409.00963 148.63871 409.19137 c 0
 146.975 411.70052 145.91378 414.10006 145.35551 417.52535 c 0
 144.4549 423.0511 144.63913 424.82969 144.62113 426.42379 c 0
 144.59235 428.97137 144.86349 431.2301 145.35942 433.98434 c 0
 145.8152 436.51559 146.65522 439.90037 147.53129 442.31051 c 0
 148.8218 445.8607 148.67861 445.52035 149.73051 448.13863 c 0
 150.29828 449.55194 151.02977 451.01179 152.05082 453.13277 c 0
 154.12263 457.43645 157.43892 462.11348 161.43168 467.46676 c 2
 161.44338 467.48236 l 1
 161.45508 467.49796 l 1
 161.45508 467.49796 172.14715 480.74662 176.36719 485.2421 c 0
 194.14261 504.17759 221.62317 531.6629 241.63281 552.24405 c 2
 241.84375 552.45889 l 1
 241.84375 552.46089 l 1
 257.50281 568.52471 273.55885 584.30149 289.85742 599.7187 c 2
 290.14648 599.99214 l 1
 290.54492 599.99214 l 2
 294.735793333 599.988573333 299.832404444 599.987384444 304.765275556 599.987384444 c 0
 314.631017778 599.987384444 323.8418 599.99214 323.8418 599.99214 c 1
 326.23438 599.99414 l 1
223.51562 599.88281 m 1
 223.51562 599.88276 l 2
 225.85654 599.8416 231.65074 599.50398 237.75 596.49214 c 0
 242.51889 594.13724 244.99187 590.68454 246.26758 587.74214 c 0
 247.50662 584.88428 247.75073 581.00273 247.70703 578.72847 c 0
 247.64341 575.41756 246.80269 570.72508 242.26367 562.05073 c 0
 240.0379 557.79716 230.92781 543.39763 219.85938 531.61128 c 0
 193.48441 503.52554 159.09742 474.35327 126.20898 450.67964 c 0
 93.320561 427.00601 61.994919 408.83629 41.466797 402.75972 c 0
 34.810545 400.78946 24.164315 398.89856 17.126953 400.72456 c 1
 17.126953 400.72656 l 2
 14.957519 401.28948 11.466674 402.19934 9.0195312 403.85938 c 0
 6.8930018 405.30191 4.6956599 406.85244 2.5703125 410.70117 c 0
 0.09371382 415.18597 -0.16150433 421.77285 0.06640625 425.9082 c 0
 0.26457897 429.50419 0.56675736 434.33643 2.8339844 441.33789 c 0
 4.2370032 445.67056 7.0929346 453.32849 10.882812 461.13281 c 0
 15.362952 470.35858 23.121956 481.4912 27.685547 487.09375 c 0
 36.480942 497.89153 42.779293 506.24553 56.75 518.80078 c 0
 75.190289 535.37279 91.809315 549.162 109.48242 559.34565 c 0
 121.66688 566.36664 140.18325 576.0643 155.92578 582.33003 c 0
 164.05385 585.56511 178.05282 590.69997 185.89062 592.97847 c 0
 191.26298 594.54025 196.03483 595.59619 200.27734 596.45503 c 0
 203.87623 597.18358 203.31387 597.10929 206.33984 597.89448 c 2
 206.33984 597.89648 l 2
 210.2876 598.92082 217.91054 599.98141 223.51562 599.88281 c 1
223.48042 597.88281 m 0
 218.16821 597.97624 210.49915 596.90747 206.8437 595.95898 c 0
 202.0076 594.70416 194.76844 591.48803 188.73628 587.88281 c 0
 184.92733 585.60633 177.11392 581.00559 170.78511 576.38477 c 0
 164.08222 571.49078 153.61608 563.9596 138.79292 551.57031 c 0
 126.28849 541.11903 108.80051 525.3131 94.443309 512.43555 c 0
 70.149159 490.64515 59.211273 479.32778 45.960888 465.65039 c 0
 35.120314 454.46046 30.78938 449.25176 25.115184 443.27734 c 0
 22.970177 441.01884 16.354308 432.82942 11.710888 427.50586 c 0
 10.112609 425.67348 6.5665381 420.66657 5.5487781 418.67969 c 0
 4.0185517 415.69236 4.5463313 412.8381 4.8026844 412.03906 c 0
 5.4877061 409.90384 7.1713543 408.1962 7.9472156 407.52344 c 0
 10.792532 405.05623 13.280885 403.78993 17.642528 402.6582 c 0
 23.846599 401.05446 34.488126 402.77832 40.898388 404.67578 c 0
 60.912735 410.60027 92.248413 428.69812 125.04097 452.30273 c 0
 157.83351 475.90735 192.14819 505.02342 218.40229 532.98047 c 0
 229.28666 544.57082 238.45397 559.08151 240.49214 562.97656 c 0
 244.94248 571.48144 245.64888 575.74608 245.70698 578.76758 c 0
 245.74649 580.82417 245.43224 584.64181 244.43354 586.94531 c 0
 243.30105 589.55739 241.19077 592.56128 236.86518 594.69727 c 0
 231.16486 597.51211 225.68281 597.84411 223.48042 597.88281 c 0
EndSplineSet
Validated: 524289
EndChar

StartChar: a.ra
Encoding: 19 -1 19
Width: 327
VWidth: 1024
Flags: HW
LayerCount: 2
Fore
SplineSet
326.23438 599.99414 m 1
 324.55473 598.29093 l 1
 324.55473 598.29093 305.38343 578.85217 287.06449 559.86514 c 0
 268.73162 540.86374 238.4655 510.20099 215.91606 486.99796 c 0
 193.36243 463.79062 187.56097 457.76064 180.1934 450.05655 c 0
 172.82474 442.35129 167.79216 437.09053 162.65824 431.4296 c 0
 159.56162 428.01513 158.90723 427.41301 156.5352 424.66788 c 0
 153.86901 421.58233 155.8844 423.94223 152.86332 420.43546 c 0
 152.29225 419.77257 151.57554 418.8058 151.19145 418.1171 c 0
 150.74432 417.31536 150.47916 416.7868 150.1641 416.08975 c 0
 149.80821 415.30236 149.59865 414.58348 149.53715 414.23819 c 0
 149.28274 412.81125 149.42987 412.91482 149.59965 411.94327 c 0
 149.6963 411.3902 149.99625 410.76703 150.39262 410.12491 c 0
 150.46064 410.02461 150.49174 409.92968 150.56254 409.82803 c 0
 151.03372 409.13416 151.64814 408.41137 152.43949 407.68546 c 0
 153.52816 406.68683 154.77028 405.8219 155.9102 405.16007 c 0
 157.05011 404.49823 158.08829 404.03936 158.76762 403.85733 c 0
 159.7344 403.59727 160.12101 403.39612 161.73637 403.01358 c 0
 163.63138 402.56481 166.20422 402.15829 169.82035 402.00382 c 0
 170.53783 401.97316 175.12609 402.07453 178.2227 402.60147 c 0
 181.08027 403.08774 183.02772 403.54266 185.06059 403.99014 c 0
 186.99826 404.41677 193.47097 406.01778 202.02152 408.97647 c 0
 210.43499 411.88773 222.868 417.28908 229.58988 420.621 c 0
 254.79735 433.11582 275.94263 445.4252 299.28324 460.68741 c 0
 319.48481 473.89711 339.45637 487.75045 358.37504 502.20303 c 0
 376.52023 516.06475 398.70057 532.35035 415.12309 545.08975 c 1
 416.34965 543.50968 l 1
 399.89033 530.74172 377.71078 514.45635 359.58988 500.61319 c 0
 340.6216 486.12271 320.61125 472.24338 300.37895 459.01358 c 0
 276.98742 443.71809 255.75557 431.35928 230.47856 418.82999 c 0
 223.64924 415.44481 211.23518 410.04759 202.67582 407.08585 c 0
 194.04169 404.09824 187.53903 402.4881 185.49027 402.03702 c 0
 183.47312 401.593 181.47124 401.1264 178.55863 400.63077 c 0
 175.20164 400.05947 170.87038 399.95727 169.73442 400.00577 c 0
 166.00917 400.1649 163.30272 400.58622 161.27543 401.06632 c 0
 159.5681 401.47063 159.08101 401.70276 158.23442 401.9296 c 2
 158.23442 401.9316 l 2
 157.25325 402.19665 156.03447 402.74741 154.75395 403.50582 c 0
 152.80814 404.56829 150.79064 406.01105 149.09965 408.38082 c 0
 149.03666 408.46911 149.01056 408.55669 148.94926 408.64449 c 0
 148.825 408.82396 148.74764 409.00963 148.63871 409.19137 c 0
 146.975 411.70052 145.91378 414.10006 145.35551 417.52535 c 0
 144.4549 423.0511 144.63913 424.82969 144.62113 426.42379 c 0
 144.59235 428.97137 144.86349 431.2301 145.35942 433.98434 c 0
 145.8152 436.51559 146.65522 439.90037 147.53129 442.31051 c 0
 148.8218 445.8607 148.67861 445.52035 149.73051 448.13863 c 0
 150.29828 449.55194 151.02977 451.01179 152.05082 453.13277 c 0
 154.12263 457.43645 157.43892 462.11348 161.43168 467.46676 c 2
 161.44338 467.48236 l 1
 161.45508 467.49796 l 1
 161.45508 467.49796 172.14715 480.74662 176.36719 485.2421 c 0
 194.14261 504.17759 221.62317 531.6629 241.63281 552.24405 c 2
 241.84375 552.45889 l 1
 241.84375 552.46089 l 1
 257.50281 568.52471 273.55885 584.30149 289.85742 599.7187 c 2
 290.14648 599.99214 l 1
 290.54492 599.99214 l 2
 294.735793333 599.988573333 299.832404444 599.987384444 304.765275556 599.987384444 c 0
 314.631017778 599.987384444 323.8418 599.99214 323.8418 599.99214 c 1
 326.23438 599.99414 l 1
223.51562 599.88281 m 1
 223.51562 599.88275 l 2
 225.85654 599.84159 231.65074 599.50397 237.75 596.49213 c 0
 242.51889 594.13723 244.99187 590.68453 246.26758 587.74213 c 0
 247.50662 584.88427 247.75073 581.00272 247.70703 578.72846 c 0
 247.64341 575.41755 246.80269 570.72507 242.26367 562.05072 c 0
 240.0379 557.79715 230.92781 543.39762 219.85938 531.61127 c 0
 193.48441 503.52553 159.09742 474.35326 126.20898 450.67963 c 0
 93.320565 427.006 61.994923 408.83628 41.466801 402.75971 c 0
 34.810549 400.78945 24.164319 398.89855 17.126957 400.72455 c 1
 17.126957 400.72655 l 2
 14.957523 401.28947 11.466678 402.19933 9.0195352 403.85937 c 0
 6.8930058 405.3019 4.6956639 406.85243 2.5703165 410.70116 c 0
 0.09371782 415.18596 -0.16150033 421.77284 0.06641025 425.90819 c 0
 0.26458297 429.50418 0.56676136 434.33642 2.8339884 441.33788 c 0
 4.2370072 445.67055 7.0929386 453.32848 10.882816 461.1328 c 0
 15.362956 470.35857 23.12196 481.49119 27.685551 487.09374 c 0
 36.156867 497.49366 42.381975 505.66366 55.306645 517.46679 c 1
 48.480585 512.30575 41.609484 507.12696 33.939457 501.26757 c 0
 15.014455 486.81015 -6.5039111 469.32153 -26.644527 455.85741 c 0
 -52.049569 438.87403 -43.149926 442.65695 -86.361324 416.63476 c 0
 -92.929211 412.67956 -124.00589 395.32086 -132.48438 391.63866 c 0
 -139.44931 388.6138 -153.04676 381.83652 -168.10938 375.16601 c 0
 -183.172 368.49549 -199.70461 361.91785 -212.76758 359.24999 c 1
 -213.16797 361.20897 l 1
 -200.41432 363.81366 -183.93136 370.34628 -168.91992 376.99413 c 0
 -153.90849 383.64198 -140.37173 390.39241 -133.2793 393.47265 c 0
 -125.28412 396.94495 -93.781307 414.50034 -87.392574 418.34765 c 0
 -44.211704 444.35145 -53.226161 440.49251 -27.755855 457.51952 c 0
 -7.7334532 470.90461 13.762655 488.36981 32.724613 502.85546 c 0
 50.864075 516.7128 65.529965 527.57003 81.914066 540.33007 c 1
 81.941406 540.29487 l 1
 91.108508 547.56125 100.15084 553.96856 109.48242 559.34565 c 0
 121.66688 566.36664 140.18325 576.0643 155.92578 582.33003 c 0
 164.05385 585.56511 178.05282 590.69997 185.89062 592.97847 c 0
 191.26298 594.54025 196.03483 595.59619 200.27734 596.45503 c 0
 203.87623 597.18358 203.31387 597.10929 206.33984 597.89448 c 2
 206.33984 597.89648 l 2
 210.2876 598.92082 217.91054 599.98141 223.51562 599.88281 c 1
223.48042 597.88281 m 0
 218.16821 597.97624 210.49915 596.90747 206.8437 595.95898 c 0
 202.0076 594.70416 194.76844 591.48803 188.73628 587.88281 c 0
 184.92733 585.60633 177.11392 581.00559 170.78511 576.38477 c 0
 164.08222 571.49078 153.61608 563.9596 138.79292 551.57031 c 0
 126.28849 541.11903 108.80051 525.3131 94.443309 512.43555 c 0
 70.149159 490.64515 59.211273 479.32778 45.960888 465.65039 c 0
 35.120314 454.46046 30.78938 449.25176 25.115184 443.27734 c 0
 22.970177 441.01884 16.354308 432.82942 11.710888 427.50586 c 0
 10.112609 425.67348 6.5665381 420.66657 5.5487781 418.67969 c 0
 4.0185517 415.69236 4.5463313 412.8381 4.8026844 412.03906 c 0
 5.4877061 409.90384 7.1713543 408.1962 7.9472156 407.52344 c 0
 10.792532 405.05623 13.280885 403.78993 17.642528 402.6582 c 0
 23.846599 401.05446 34.488126 402.77832 40.898388 404.67578 c 0
 60.912735 410.60027 92.248413 428.69812 125.04097 452.30273 c 0
 157.83351 475.90735 192.14819 505.02342 218.40229 532.98047 c 0
 229.28666 544.57082 238.45397 559.08151 240.49214 562.97656 c 0
 244.94248 571.48144 245.64888 575.74608 245.70698 578.76758 c 0
 245.74649 580.82417 245.43224 584.64181 244.43354 586.94531 c 0
 243.30105 589.55739 241.19077 592.56128 236.86518 594.69727 c 0
 231.16486 597.51211 225.68281 597.84411 223.48042 597.88281 c 0
EndSplineSet
Validated: 4718593
EndChar

StartChar: a.rn
Encoding: 20 -1 20
Width: 306
VWidth: 1024
Flags: HW
LayerCount: 2
Fore
SplineSet
467.12305 600.01562 m 2
 467.12318 600.0155 l 2
 470.09357 599.98933 472.94428 599.63803 475.64661 598.91394 c 2
 475.12904 596.9823 l 1
 472.557269517 597.671404793 469.804175712 597.993992472 466.906855539 597.993992472 c 0
 454.687635837 597.993992472 439.903113332 592.256240887 425.33607 584.07605 c 0
 407.315 573.95624 389.63309 560.19902 377.34583 549.49402 c 0
 348.60713 524.45605 320.13758 498.0833 291.11732 473.2909 c 0
 263.06411 449.32467 243.43033 432.36945 211.65638 413.3573 c 0
 199.92545 406.33802 185.08959 400.29742 171.26185 400.03699 c 0
 165.68653 399.93199 159.55064 401.5772 158.25013 401.92566 c 0
 158.24913 401.92579 158.24663 401.92553 158.24613 401.92566 c 2
 158.24613 401.92766 l 2
 157.2632 402.1916 156.03902 402.74468 154.75395 403.50579 c 0
 152.80814 404.56826 150.79064 406.01102 149.09965 408.38079 c 0
 149.03666 408.46908 149.01056 408.55666 148.94926 408.64446 c 0
 148.825 408.82393 148.74764 409.0096 148.63871 409.19134 c 0
 146.975 411.70049 145.91378 414.10003 145.35551 417.52532 c 0
 144.4549 423.05107 144.63913 424.82966 144.62113 426.42376 c 0
 144.59235 428.97134 144.86349 431.23007 145.35942 433.98431 c 0
 145.8152 436.51556 146.65522 439.90034 147.53129 442.31048 c 0
 148.8218 445.86067 148.67861 445.52032 149.73051 448.1386 c 0
 150.29828 449.55191 151.02977 451.01176 152.05082 453.13274 c 0
 154.12263 457.43642 157.43892 462.11345 161.43168 467.46673 c 2
 161.44338 467.48233 l 1
 161.45508 467.49793 l 1
 161.45508 467.49793 172.14715 480.74659 176.36719 485.24207 c 0
 194.14261 504.17756 221.62317 531.66287 241.63281 552.24402 c 2
 241.84375 552.45886 l 1
 241.84375 552.46086 l 1
 257.50281 568.52468 273.55885 584.30146 289.85742 599.71867 c 2
 290.14648 599.99211 l 1
 290.54492 599.99211 l 2
 294.735793333 599.988543333 299.832404444 599.987354444 304.765275556 599.987354444 c 0
 314.631017778 599.987354444 323.8418 599.99211 323.8418 599.99211 c 1
 326.23438 599.99411 l 1
 324.55469 598.29099 l 1
 324.55469 598.29099 305.38339 578.85223 287.06445 559.8652 c 0
 268.73158 540.8638 238.46546 510.20105 215.91602 486.99802 c 0
 193.36239 463.79068 187.56093 457.7607 180.19336 450.05661 c 0
 172.8247 442.35135 167.79212 437.09059 162.6582 431.42966 c 0
 159.56158 428.01519 158.90719 427.41307 156.53516 424.66794 c 0
 153.86897 421.58239 155.88436 423.94229 152.86328 420.43552 c 0
 152.29221 419.77263 151.5755 418.80586 151.19141 418.11716 c 0
 150.74428 417.31542 150.47912 416.78686 150.16406 416.08981 c 0
 149.80817 415.30242 149.59861 414.58354 149.53711 414.23825 c 0
 149.2827 412.81131 149.42983 412.91488 149.59961 411.94333 c 0
 149.69626 411.39026 149.99621 410.76709 150.39258 410.12497 c 0
 150.4606 410.02467 150.4917 409.92974 150.5625 409.82809 c 0
 151.03368 409.13422 151.6481 408.41143 152.43945 407.68552 c 0
 153.52812 406.68689 154.77024 405.82196 155.91016 405.16013 c 0
 157.05007 404.49829 158.08825 404.03942 158.76758 403.85739 c 0
 160.04957 403.51393 166.07796 401.93813 171.22461 402.03513 c 0
 184.49265 402.28502 199.10396 408.17815 210.62891 415.07419 c 0
 242.26496 434.00382 261.76136 450.84105 289.81836 474.81052 c 0
 318.79718 499.56751 347.26135 525.93677 376.03125 551.00192 c 0
 388.39486 561.77345 406.149 575.59526 424.35742 585.82028 c 0
 438.01374 593.48905 451.92864 599.19251 464.11328 599.93552 c 0
 465.12867 599.99742 466.13292 600.02462 467.12305 600.01562 c 2
223.51562 599.88281 m 1
 223.51562 599.88276 l 2
 225.85654 599.8416 231.65074 599.50398 237.75 596.49214 c 0
 242.51889 594.13724 244.99187 590.68454 246.26758 587.74214 c 0
 247.50662 584.88428 247.75073 581.00273 247.70703 578.72847 c 0
 247.64341 575.41756 246.80269 570.72508 242.26367 562.05073 c 0
 240.0379 557.79716 230.92781 543.39763 219.85938 531.61128 c 0
 193.48441 503.52554 159.09742 474.35327 126.20898 450.67964 c 0
 93.320561 427.00601 61.994919 408.83629 41.466797 402.75972 c 0
 34.810545 400.78946 24.164315 398.89856 17.126953 400.72456 c 1
 17.126953 400.72656 l 2
 14.957519 401.28948 11.466674 402.19934 9.0195312 403.85938 c 0
 6.8930018 405.30191 4.6956599 406.85244 2.5703125 410.70117 c 0
 0.09371382 415.18597 -0.16150433 421.77285 0.06640625 425.9082 c 0
 0.26457897 429.50419 0.56675736 434.33643 2.8339844 441.33789 c 0
 4.2370032 445.67056 7.0929346 453.32849 10.882812 461.13281 c 0
 15.362952 470.35858 23.121956 481.4912 27.685547 487.09375 c 0
 36.156863 497.49367 42.381971 505.66367 55.306641 517.4668 c 1
 48.480581 512.30576 41.60948 507.12697 33.939453 501.26758 c 0
 15.014451 486.81016 -6.5039151 469.32154 -26.644531 455.85742 c 0
 -52.049573 438.87404 -43.14993 442.65696 -86.361328 416.63477 c 0
 -92.929215 412.67957 -124.00589 395.32087 -132.48438 391.63867 c 0
 -139.44931 388.61381 -153.04676 381.83653 -168.10938 375.16602 c 0
 -183.172 368.4955 -199.70461 361.91786 -212.76758 359.25 c 1
 -213.16797 361.20898 l 1
 -200.41432 363.81367 -183.93136 370.34629 -168.91992 376.99414 c 0
 -153.90849 383.64199 -140.37173 390.39242 -133.2793 393.47266 c 0
 -125.28412 396.94496 -93.781311 414.50035 -87.392578 418.34766 c 0
 -44.211708 444.35146 -53.226165 440.49252 -27.755859 457.51953 c 0
 -7.7334572 470.90462 13.762651 488.36982 32.724609 502.85547 c 0
 50.864071 516.71281 65.529961 527.57004 81.914066 540.33007 c 1
 81.941406 540.29487 l 1
 91.108508 547.56125 100.15084 553.96856 109.48242 559.34565 c 0
 121.66688 566.36664 140.18325 576.0643 155.92578 582.33003 c 0
 164.05385 585.56511 178.05282 590.69997 185.89062 592.97847 c 0
 191.26298 594.54025 196.03483 595.59619 200.27734 596.45503 c 0
 203.87623 597.18358 203.31387 597.10929 206.33984 597.89448 c 2
 206.33984 597.89648 l 2
 210.2876 598.92082 217.91054 599.98141 223.51562 599.88281 c 1
223.48042 597.88281 m 0
 218.16821 597.97624 210.49915 596.90747 206.8437 595.95898 c 0
 202.0076 594.70416 194.76844 591.48803 188.73628 587.88281 c 0
 184.92733 585.60633 177.11392 581.00559 170.78511 576.38477 c 0
 164.08222 571.49078 153.61608 563.9596 138.79292 551.57031 c 0
 126.28849 541.11903 108.80051 525.3131 94.443309 512.43555 c 0
 70.149159 490.64515 59.211273 479.32778 45.960888 465.65039 c 0
 35.120314 454.46046 30.78938 449.25176 25.115184 443.27734 c 0
 22.970177 441.01884 16.354308 432.82942 11.710888 427.50586 c 0
 10.112609 425.67348 6.5665381 420.66657 5.5487781 418.67969 c 0
 4.0185517 415.69236 4.5463313 412.8381 4.8026844 412.03906 c 0
 5.4877061 409.90384 7.1713543 408.1962 7.9472156 407.52344 c 0
 10.792532 405.05623 13.280885 403.78993 17.642528 402.6582 c 0
 23.846599 401.05446 34.488126 402.77832 40.898388 404.67578 c 0
 60.912735 410.60027 92.248413 428.69812 125.04097 452.30273 c 0
 157.83351 475.90735 192.14819 505.02342 218.40229 532.98047 c 0
 229.28666 544.57082 238.45397 559.08151 240.49214 562.97656 c 0
 244.94248 571.48144 245.64888 575.74608 245.70698 578.76758 c 0
 245.74649 580.82417 245.43224 584.64181 244.43354 586.94531 c 0
 243.30105 589.55739 241.19077 592.56128 236.86518 594.69727 c 0
 231.16486 597.51211 225.68281 597.84411 223.48042 597.88281 c 0
EndSplineSet
Validated: 524289
EndChar

StartChar: i.ra
Encoding: 21 -1 21
Width: 180
VWidth: 1024
Flags: HW
LayerCount: 2
Fore
SplineSet
145.5293 599.99414 m 1
 145.92773 599.99414 l 2
 150.696654828 599.989967586 156.638407765 599.988672699 162.177121703 599.988672699 c 0
 171.240471784 599.988672699 179.22461 599.99214 179.22461 599.99214 c 1
 181.61719 599.99414 l 1
 179.9375 598.29102 l 1
 179.9375 598.29102 160.7662 578.85226 142.44727 559.86523 c 0
 124.11439 540.86383 93.848275 510.20108 71.298828 486.99805 c 0
 48.745207 463.79071 42.945698 457.76073 35.578125 450.05664 c 0
 28.209471 442.35138 23.176889 437.09062 18.042969 431.42969 c 0
 14.946343 428.01522 14.291954 427.4131 11.919922 424.66797 c 0
 9.253739 421.58242 11.26717 423.94232 8.2460938 420.43555 c 0
 7.6750249 419.77266 6.9583145 418.80589 6.5742188 418.11719 c 0
 6.1270918 417.31545 5.8619295 416.78689 5.546875 416.08984 c 0
 5.1909843 415.30245 4.9814489 414.58357 4.9199219 414.23828 c 0
 4.6655129 412.81134 4.8126388 412.91686 4.9824219 411.94531 c 0
 5.0788639 411.39346 5.3785867 410.77143 5.7734375 410.13086 c 0
 5.8427872 410.02855 5.8749806 409.93183 5.9472656 409.82812 c 0
 6.4183036 409.13486 7.031675 408.41271 7.8222656 407.6875 c 0
 9.9963016 405.69326 12.778025 404.23122 14.142578 403.86328 c 0
 15.025474 403.62671 15.890093 403.36561 16.65625 403.16211 c 0
 17.191124 403.02005 18.7343 402.67583 20.277344 402.4668 c 0
 22.423665 402.17602 24.818799 402.01716 25.199219 402.00586 c 0
 25.966291 401.98294 30.518799 402.07741 33.613281 402.60352 c 0
 36.470844 403.08983 38.418288 403.5428 40.451172 403.99023 c 0
 42.388885 404.41692 48.861585 406.01987 57.412109 408.97852 c 0
 65.82748 411.89044 78.507379 417.34806 85.224609 420.67773 c 0
 110.432 433.1725 131.57741 445.48198 154.91797 460.74414 c 0
 175.10696 473.9457 195.94241 489.01097 214.70898 503.66797 c 0
 234.27175 518.94681 248.91467 529.44941 264.808578 542.47847 c 1
 266.076158 540.93159 l 1
 250.124138 527.85486 235.471068 517.34627 215.939438 502.09175 c 0
 197.130898 487.40197 176.258448 472.3083 156.013658 459.07026 c 0
 132.622198 443.77482 111.390218 431.41591 86.113269 418.88667 c 0
 79.27932 415.49914 66.623804 410.04892 58.066394 407.08784 c 0
 49.432298 404.10028 42.931494 402.48818 40.8828 402.03706 c 0
 38.865665 401.59309 36.861788 401.12649 33.949207 400.63081 c 0
 30.590101 400.05976 26.225882 399.97526 25.13866 400.00776 c 0
 24.522486 400.02615 22.247818 400.18281 20.0078 400.48628 c 0
 18.35666 400.70996 16.814681 401.05047 16.144519 401.22847 c 0
 15.332441 401.44416 14.471738 401.70466 13.6328 401.92964 c 1
 13.6328 401.92764 l 1
 13.6304 401.92864 13.6275 401.93098 13.625 401.93164 c 0
 12.642864 402.19591 11.423686 402.74362 10.142578 403.50195 c 0
 8.1918093 404.56408 6.1796154 406.00239 4.4824219 408.38086 c 0
 4.4185051 408.47043 4.3922011 408.55934 4.3300781 408.64844 c 0
 4.2087105 408.82391 4.134061 409.00595 4.0273438 409.18359 c 0
 2.3603041 411.69571 1.2971627 414.09638 0.73828125 417.52539 c 0
 -0.16232909 423.05114 0.02187938 424.83169 0.00390625 426.42578 c 0
 -0.02487346 428.97336 0.24625005 431.23014 0.7421875 433.98438 c 0
 1.1979774 436.51564 2.0399431 439.90041 2.9160156 442.31055 c 0
 4.2065257 445.86074 4.0633315 445.52039 5.1152344 448.13867 c 0
 5.6830042 449.55198 6.4144954 451.01378 7.4355469 453.13477 c 0
 9.5073604 457.43845 12.823644 462.11548 16.816406 467.46875 c 0
 20.14918 471.93716 27.57882 480.79667 31.751953 485.24219 c 0
 49.17756 503.80503 75.801645 530.46377 95.699219 550.90039 c 1
 89.837733 545.78983 83.426593 540.31784 73.867188 532.36328 c 0
 58.209387 519.33413 52.413642 515.15365 34.285156 501.30469 c 0
 15.360154 486.84727 -6.1562547 469.3606 -26.296875 455.89648 c 0
 -51.701913 438.9131 -42.802278 442.69602 -86.013672 416.67383 c 0
 -92.581558 412.71864 -123.65824 395.35798 -132.13672 391.67578 c 0
 -139.10164 388.65092 -152.69911 381.87365 -167.76172 375.20312 c 0
 -182.82433 368.53262 -199.35695 361.95497 -212.41992 359.28711 c 1
 -212.82031 361.24805 l 1
 -200.06666 363.85274 -183.5837 370.38536 -168.57227 377.0332 c 0
 -153.56083 383.68105 -140.02603 390.42953 -132.93359 393.50977 c 0
 -124.93841 396.98207 -93.433655 414.53941 -87.044922 418.38672 c 0
 -43.864056 444.39053 -52.880458 440.53158 -27.410156 457.55859 c 0
 -7.3877501 470.94368 14.110308 488.40889 33.072266 502.89453 c 0
 51.20986 516.75045 56.954871 520.89186 72.587891 533.90039 c 0
 95.716091 553.14579 101.67945 558.73048 121.02734 576.36719 c 0
 129.02463 584.2358 137.1023 592.02284 145.24023 599.7207 c 2
 145.5293 599.99414 l 1
EndSplineSet
Validated: 524289
EndChar

StartChar: i.li.ra
Encoding: 22 -1 22
Width: 180
VWidth: 1024
Flags: HW
LayerCount: 2
Fore
SplineSet
145.5293 599.99414 m 1
 145.92773 599.99414 l 2
 150.696654828 599.989967586 156.638407765 599.988672699 162.177121703 599.988672699 c 0
 171.240471784 599.988672699 179.22461 599.99214 179.22461 599.99214 c 1
 181.61719 599.99414 l 1
 179.9375 598.29102 l 1
 179.9375 598.29102 160.7662 578.85226 142.44727 559.86523 c 0
 124.11439 540.86383 93.848275 510.20108 71.298828 486.99805 c 0
 48.745207 463.79071 42.945698 457.76073 35.578125 450.05664 c 0
 28.209471 442.35138 23.176889 437.09062 18.042969 431.42969 c 0
 14.946343 428.01522 14.291954 427.4131 11.919922 424.66797 c 0
 9.253739 421.58242 11.26717 423.94232 8.2460938 420.43555 c 0
 7.6750249 419.77266 6.9583145 418.80589 6.5742188 418.11719 c 0
 6.1270918 417.31545 5.8619295 416.78689 5.546875 416.08984 c 0
 5.1909843 415.30245 4.9814489 414.58357 4.9199219 414.23828 c 0
 4.6655129 412.81134 4.8126388 412.91686 4.9824219 411.94531 c 0
 5.0788639 411.39346 5.3785867 410.77143 5.7734375 410.13086 c 0
 5.8427872 410.02855 5.8749806 409.93183 5.9472656 409.82812 c 0
 6.4183036 409.13486 7.031675 408.41271 7.8222656 407.6875 c 0
 9.9963016 405.69326 12.778025 404.23122 14.142578 403.86328 c 0
 15.025474 403.62671 15.890093 403.36561 16.65625 403.16211 c 0
 17.191124 403.02005 18.7343 402.67583 20.277344 402.4668 c 0
 22.423665 402.17602 24.818799 402.01716 25.199219 402.00586 c 0
 25.966291 401.98294 30.518799 402.07741 33.613281 402.60352 c 0
 36.470844 403.08983 38.418288 403.5428 40.451172 403.99023 c 0
 42.388885 404.41692 48.861585 406.01987 57.412109 408.97852 c 0
 65.82748 411.89044 78.507379 417.34806 85.224609 420.67773 c 0
 110.432 433.1725 131.57741 445.48198 154.91797 460.74414 c 0
 175.10696 473.9457 195.94241 489.01097 214.70898 503.66797 c 0
 234.27175 518.94681 248.91467 529.44941 264.808578 542.47847 c 1
 266.076158 540.93159 l 1
 250.124138 527.85486 235.471068 517.34627 215.939438 502.09175 c 0
 197.130898 487.40197 176.258448 472.3083 156.013658 459.07026 c 0
 132.622198 443.77482 111.390218 431.41591 86.113269 418.88667 c 0
 79.27932 415.49914 66.623804 410.04892 58.066394 407.08784 c 0
 49.432298 404.10028 42.931494 402.48818 40.8828 402.03706 c 0
 38.865665 401.59309 36.861788 401.12649 33.949207 400.63081 c 0
 30.590101 400.05976 26.225882 399.97526 25.13866 400.00776 c 0
 24.522486 400.02615 22.247818 400.18281 20.0078 400.48628 c 0
 18.35666 400.70996 16.814681 401.05047 16.144519 401.22847 c 0
 15.332441 401.44416 14.471738 401.70466 13.6328 401.92964 c 1
 13.6328 401.92764 l 1
 13.6304 401.92864 13.6275 401.93098 13.625 401.93164 c 0
 12.642864 402.19591 11.423686 402.74362 10.142578 403.50195 c 0
 8.1918093 404.56408 6.1796154 406.00239 4.4824219 408.38086 c 0
 4.4185051 408.47043 4.3922011 408.55934 4.3300781 408.64844 c 0
 4.2087105 408.82391 4.134061 409.00595 4.0273438 409.18359 c 0
 2.3603041 411.69571 1.2971627 414.09638 0.73828125 417.52539 c 0
 -0.16232909 423.05114 0.02187938 424.83169 0.00390625 426.42578 c 0
 -0.02487346 428.97336 0.24625005 431.23014 0.7421875 433.98438 c 0
 1.1979774 436.51564 2.0399431 439.90041 2.9160156 442.31055 c 0
 4.2065257 445.86074 4.0633315 445.52039 5.1152344 448.13867 c 0
 5.6830042 449.55198 6.4144954 451.01378 7.4355469 453.13477 c 0
 9.5073604 457.43845 12.823644 462.11548 16.816406 467.46875 c 0
 20.14918 471.93716 27.57882 480.79667 31.751953 485.24219 c 0
 49.527628 504.17795 77.007858 531.66289 97.017532 552.2441 c 2
 97.226516 552.45894 l 1
 97.228516 552.46094 l 2
 112.88757 568.52476 128.94166 584.30349 145.24023 599.7207 c 2
 145.5293 599.99414 l 1
EndSplineSet
Validated: 524289
EndChar

StartChar: n.ra
Encoding: 23 -1 23
Width: 367
VWidth: 1024
Flags: HW
LayerCount: 2
Fore
SplineSet
161.63672 599.99609 m 1
 161.63669 599.99609 l 1
 162.74936 600.01039 163.31402 599.98009 163.8652 599.94339 c 0
 164.41271 599.90678 165.05499 599.85501 166.19138 599.64065 c 0
 166.81372 599.5232 167.77997 599.28638 168.70309 599.03909 c 1
 168.70309 599.04109 l 1
 169.72372 598.76761 170.95279 598.21293 172.23435 597.45124 c 0
 174.1885 596.38475 176.19009 594.94373 177.89059 592.56062 c 0
 177.95454 592.47104 177.98084 592.38214 178.04294 592.29304 c 0
 178.16589 592.11533 178.24355 591.93194 178.35153 591.75202 c 0
 180.02402 589.23083 181.08746 586.82067 181.64841 583.37898 c 0
 182.55285 577.82971 182.36859 576.04277 182.38669 574.44148 c 0
 182.4156 571.88327 182.1445 569.61758 181.64645 566.85163 c 0
 181.18875 564.30976 180.3445 560.90845 179.46481 558.48835 c 0
 178.16874 554.92288 178.31225 555.26632 177.25583 552.63679 c 0
 176.68572 551.21764 175.9512 549.74934 174.92575 547.61921 c 0
 172.8453 543.29756 169.51375 538.6009 165.50388 533.22468 c 0
 162.15697 528.73734 154.69668 519.83947 150.50583 515.37507 c 0
 135.84788 499.7605 115.23817 478.94669 96.984345 460.34382 c 1
 136.47228 494.62316 188.69887 535.39598 213.43747 553.44929 c 0
 226.95419 563.3133 259.9907 588.08977 284.77536 596.94734 c 0
 290.08483 598.84484 296.44963 599.9376 300.53317 599.9903 c 0
 301.6412 600.0046 302.20314 599.9741 302.75192 599.9376 c 0
 303.29756 599.90137 303.93863 599.85046 305.07028 599.63682 c 0
 305.6916 599.51951 306.65492 599.2821 307.57614 599.03526 c 0
 308.60513 598.75892 309.82515 598.17972 311.08981 597.38682 c 0
 313.02759 596.2737 314.9994 594.77388 316.65036 592.35557 c 0
 316.71255 592.26449 316.73645 592.17458 316.79685 592.08408 c 0
 316.91517 591.90521 316.98823 591.72186 317.09177 591.54112 c 0
 318.71457 588.98209 319.73061 586.5473 320.22067 583.08994 c 0
 321.0104 577.51838 320.78861 575.7357 320.77341 574.13291 c 0
 320.74917 571.57255 320.42885 569.31018 319.87302 566.55283 c 0
 319.36223 564.01888 318.44612 560.63386 317.51559 558.23057 c 0
 316.14465 554.68975 316.29724 555.03121 315.18552 552.42198 c 0
 314.58557 551.0138 313.81839 549.55951 312.74802 547.44932 c 0
 310.57649 543.16825 307.14754 538.53864 303.02341 533.24229 c 0
 299.46132 528.66773 281.71274 509.58026 277.4238 505.19737 c 0
 275.67294 503.40816 274.21608 501.98689 272.75974 500.57041 c 0
 269.34149 496.82411 264.96303 492.33829 258.75192 486.20713 c 0
 235.60269 463.35575 229.64866 457.41463 222.08395 449.82627 c 0
 214.51814 442.23671 209.34968 437.05659 204.07224 431.47471 c 0
 200.88911 428.10809 200.2184 427.51595 197.77731 424.80674 c 0
 195.03359 421.7616 197.10718 424.09002 193.99802 420.62901 c 0
 193.41004 419.97444 192.67017 419.01871 192.2695 418.33408 c 0
 191.80338 417.5376 191.52646 417.0105 191.19528 416.31651 c 0
 190.82104 415.53234 190.59456 414.81531 190.52536 414.46885 c 0
 190.23961 413.03962 190.38879 413.13968 190.53906 412.16026 c 0
 190.62464 411.6026 190.91477 410.97127 191.29883 410.31846 c 0
 191.36617 410.21454 191.3965 410.1172 191.4668 410.01182 c 0
 191.926 409.30477 192.52693 408.56601 193.30664 407.82041 c 0
 195.46358 405.75781 198.15988 404.22321 199.56836 403.8458 c 2
 199.56836 403.8418 l 2
 200.60472 403.56169 201.05175 403.23974 202.625 402.86719 c 0
 204.52002 402.41842 207.09285 402.01189 210.70898 401.85742 c 0
 211.42647 401.82676 216.01472 401.92813 219.11133 402.45508 c 0
 221.9689 402.94135 223.91635 403.39627 225.94922 403.84375 c 0
 227.88689 404.27037 234.3596 405.87139 242.91016 408.83008 c 0
 251.32362 411.74134 263.75663 417.14464 270.47852 420.47656 c 0
 295.68598 432.97137 316.83125 445.27881 340.17188 460.54102 c 0
 360.37345 473.75072 380.345 487.60406 399.26367 502.05664 c 0
 417.40904 515.9185 446.48137 537.45905 463.10745 550.33776 c 1
 464.33206 548.75768 l 1
 447.66727 535.84884 418.59926 514.31164 400.47855 500.46862 c 0
 381.51026 485.97814 361.49992 472.09686 341.26761 458.86706 c 0
 317.87609 443.57156 296.64423 431.21275 271.36722 418.68346 c 0
 264.5379 415.29829 252.12384 409.90302 243.56448 406.94128 c 0
 234.93036 403.95367 228.42769 402.34156 226.37894 401.89049 c 0
 224.36179 401.44647 222.3599 400.97988 219.4473 400.48425 c 0
 216.0903 399.91295 211.75904 399.81075 210.62308 399.85925 c 0
 206.89783 400.01838 204.19138 400.44165 202.16409 400.92175 c 0
 200.41559 401.33579 199.81006 401.70826 199.03519 401.91589 c 2
 199.03519 401.91989 l 2
 198.00602 402.19801 196.79243 402.77479 195.53323 403.56442 c 0
 193.59454 404.67751 191.62464 406.17396 189.97269 408.59372 c 0
 189.91175 408.68297 189.88735 408.77065 189.82815 408.85935 c 0
 189.70555 409.04445 189.63024 409.23474 189.52347 409.42185 c 0
 187.90595 411.97597 186.89158 414.40802 186.40237 417.85935 c 0
 185.61265 423.4309 185.83444 425.21359 185.84964 426.81638 c 0
 185.87387 429.37674 186.1942 431.63915 186.75003 434.39645 c 0
 187.26082 436.93046 188.175 440.31539 189.1055 442.71872 c 0
 190.47646 446.25949 190.3258 445.92001 191.43753 448.52927 c 0
 192.03748 449.93742 192.80271 451.38981 193.87308 453.49997 c 0
 196.0446 457.78103 199.4755 462.41262 203.59964 467.70895 c 0
 207.04184 472.1295 214.6923 480.87956 218.97855 485.25974 c 0
 225.11595 491.53153 229.45409 496.07006 233.45901 500.04099 c 0
 234.76612 501.58351 237.02722 504.03975 247.87112 514.74411 c 0
 271.02036 537.59548 276.97438 543.53461 284.53909 551.12302 c 0
 292.10491 558.71258 297.27142 563.8947 302.54886 569.47653 c 0
 305.73198 572.8432 306.4027 573.43329 308.84378 576.14255 c 0
 311.58751 579.1877 309.51391 576.85922 312.62308 580.32028 c 0
 313.211 580.97476 313.95091 581.93253 314.35159 582.61716 c 0
 314.81771 583.41362 315.09658 583.93878 315.42776 584.63278 c 0
 315.80201 585.41695 316.02653 586.1359 316.09573 586.48239 c 0
 316.38147 587.91155 316.2323 587.80967 316.08203 588.78903 c 0
 315.99645 589.34675 315.70831 589.97994 315.32422 590.63278 c 0
 315.25688 590.73669 315.22645 590.83406 315.15625 590.93942 c 0
 314.69705 591.64647 314.09613 592.3852 313.31641 593.13083 c 0
 311.15997 595.19295 308.45539 596.73012 307.05469 597.10544 c 0
 306.16592 597.3435 305.20032 597.57725 304.69922 597.67185 c 0
 303.63996 597.87183 303.14867 597.90813 302.61914 597.94333 c 0
 302.0876 597.97873 301.62544 598.00393 300.55859 597.99023 c 0
 296.81527 597.94195 290.50221 596.87099 285.44727 595.06445 c 0
 261.25001 586.41682 228.16558 561.72111 214.61719 551.83398 c 0
 184.42348 529.79974 112.81689 473.54116 74.193359 437.15625 c 0
 61.832112 424.71185 49.258968 412.4456 36.529297 400.4043 c 2
 36.238281 400.13086 l 1
 35.839844 400.13086 l 2
 31.0504182069 400.135032414 25.0832038224 400.136327301 19.5207806826 400.136327301 c 0
 10.4186337268 400.136327301 2.4003906 400.13286 2.4003906 400.13286 c 1
 0.0078125 400.13086 l 1
 1.6875 401.83398 l 1
 1.6875 401.83398 20.942156 421.35517 39.339844 440.42383 c 0
 57.751475 459.50686 88.146608 490.30268 110.79297 513.60549 c 0
 133.44352 536.91255 139.26873 542.9679 146.66797 550.7051 c 0
 154.0683 558.44346 159.12326 563.7268 164.2793 569.41213 c 0
 167.38918 572.84124 168.04741 573.44617 170.42969 576.20314 c 0
 173.10732 579.30194 171.08311 576.93128 174.11719 580.45314 c 0
 174.69088 581.11908 175.41091 582.09112 175.79688 582.78322 c 0
 176.24596 583.58847 176.51168 584.12021 176.82812 584.82033 c 0
 177.1857 585.61142 177.39718 586.3326 177.45898 586.67971 c 0
 177.71462 588.11319 177.56693 588.00911 177.39648 588.9844 c 0
 177.29945 589.53964 176.99684 590.1664 176.59961 590.81057 c 0
 176.53024 590.91288 176.49808 591.00959 176.42578 591.1133 c 0
 175.95245 591.81001 175.3373 592.53505 174.54297 593.26369 c 0
 172.35212 595.27333 169.65216 596.71444 168.19141 597.10744 c 1
 168.19141 597.10544 l 1
 167.29749 597.34501 166.3246 597.58055 165.82031 597.67575 c 0
 164.75634 597.87649 164.26468 597.91359 163.73242 597.94919 c 0
 163.19863 597.98479 162.73366 598.00979 161.66211 597.99609 c 0
 157.73373 597.9455 153.84362 597.88435 148.59961 596.53906 c 0
 143.18001 595.14874 139.56886 593.7577 134.38086 591.5332 c 0
 127.81988 588.71999 118.88894 584.23078 112.36523 580.08203 c 0
 82.139335 560.86 46.260236 530.79384 38.570312 524.27148 c 0
 22.584891 510.71309 -15.489694 476.86088 -31.464844 463.01953 c 0
 -52.040939 445.19178 -81.749091 423.12562 -110.13281 404.98047 c 0
 -138.51654 386.83531 -165.42098 372.59087 -181.00977 370.47656 c 1
 -181.2793 372.45898 l 1
 -166.59245 374.45096 -139.50823 388.57611 -111.21094 406.66602 c 0
 -82.91364 424.75592 -53.24851 446.79076 -32.775391 464.5293 c 0
 -16.831386 478.34366 21.234363 512.18966 37.277344 525.79688 c 0
 44.994596 532.34239 80.873333 562.42554 111.29102 581.76953 c 0
 117.95981 586.01055 126.92762 590.51363 133.5918 593.37109 c 0
 138.81169 595.60926 142.5768 597.05926 148.10156 598.47656 c 0
 153.56453 599.87802 157.7046 599.94549 161.63672 599.99609 c 1
EndSplineSet
Validated: 524289
EndChar

StartChar: n.li.ra
Encoding: 24 -1 24
Width: 367
VWidth: 1024
Flags: HW
LayerCount: 2
Fore
SplineSet
300.5332 599.99023 m 1
 300.53317 599.9903 l 1
 301.6412 600.0046 302.20314 599.9741 302.75192 599.9376 c 0
 303.29756 599.90137 303.93863 599.85046 305.07028 599.63682 c 0
 305.6916 599.51951 306.65492 599.2821 307.57614 599.03526 c 0
 308.60513 598.75892 309.82515 598.17972 311.08981 597.38682 c 0
 313.02759 596.2737 314.9994 594.77388 316.65036 592.35557 c 0
 316.71255 592.26449 316.73645 592.17458 316.79685 592.08408 c 0
 316.91517 591.90521 316.98823 591.72186 317.09177 591.54112 c 0
 318.71457 588.98209 319.73061 586.5473 320.22067 583.08994 c 0
 321.0104 577.51838 320.78861 575.7357 320.77341 574.13291 c 0
 320.74917 571.57255 320.42885 569.31018 319.87302 566.55283 c 0
 319.36223 564.01888 318.44612 560.63386 317.51559 558.23057 c 0
 316.14465 554.68975 316.29724 555.03121 315.18552 552.42198 c 0
 314.58557 551.0138 313.81839 549.55951 312.74802 547.44932 c 0
 310.57649 543.16825 307.14754 538.53864 303.02341 533.24229 c 0
 299.46132 528.66773 281.71274 509.58026 277.4238 505.19737 c 0
 275.67294 503.40816 274.21608 501.98689 272.75974 500.57041 c 0
 269.34149 496.82411 264.96303 492.33829 258.75192 486.20713 c 0
 235.60269 463.35575 229.64866 457.41463 222.08395 449.82627 c 0
 214.51814 442.23671 209.34968 437.05659 204.07224 431.47471 c 0
 200.88911 428.10809 200.2184 427.51595 197.77731 424.80674 c 0
 195.03359 421.7616 197.10718 424.09002 193.99802 420.62901 c 0
 193.41004 419.97444 192.67017 419.01871 192.2695 418.33408 c 0
 191.80338 417.5376 191.52646 417.0105 191.19528 416.31651 c 0
 190.82104 415.53234 190.59456 414.81531 190.52536 414.46885 c 0
 190.23961 413.03962 190.38879 413.13968 190.53906 412.16026 c 0
 190.62464 411.6026 190.91477 410.97127 191.29883 410.31846 c 0
 191.36617 410.21454 191.3965 410.1172 191.4668 410.01182 c 0
 191.926 409.30477 192.52693 408.56601 193.30664 407.82041 c 0
 195.46358 405.75781 198.15988 404.22321 199.56836 403.8458 c 2
 199.56836 403.8418 l 2
 200.60472 403.56169 201.05175 403.23974 202.625 402.86719 c 0
 204.52002 402.41842 207.09285 402.01189 210.70898 401.85742 c 0
 211.42647 401.82676 216.01472 401.92813 219.11133 402.45508 c 0
 221.9689 402.94135 223.91635 403.39627 225.94922 403.84375 c 0
 227.88689 404.27037 234.3596 405.87139 242.91016 408.83008 c 0
 251.32362 411.74134 263.75663 417.14464 270.47852 420.47656 c 0
 295.68598 432.97137 316.83125 445.27881 340.17188 460.54102 c 0
 360.37345 473.75072 380.345 487.60406 399.26367 502.05664 c 0
 417.40904 515.9185 446.48137 537.45905 463.10745 550.33776 c 1
 464.33206 548.75768 l 1
 447.66727 535.84884 418.59926 514.31164 400.47855 500.46862 c 0
 381.51026 485.97814 361.49992 472.09686 341.26761 458.86706 c 0
 317.87609 443.57156 296.64423 431.21275 271.36722 418.68346 c 0
 264.5379 415.29829 252.12384 409.90302 243.56448 406.94128 c 0
 234.93036 403.95367 228.42769 402.34156 226.37894 401.89049 c 0
 224.36179 401.44647 222.3599 400.97988 219.4473 400.48425 c 0
 216.0903 399.91295 211.75904 399.81075 210.62308 399.85925 c 0
 206.89783 400.01838 204.19138 400.44165 202.16409 400.92175 c 0
 200.41559 401.33579 199.81006 401.70826 199.03519 401.91589 c 2
 199.03519 401.91989 l 2
 198.00602 402.19801 196.79243 402.77479 195.53323 403.56442 c 0
 193.59454 404.67751 191.62464 406.17396 189.97269 408.59372 c 0
 189.91175 408.68297 189.88735 408.77065 189.82815 408.85935 c 0
 189.70555 409.04445 189.63024 409.23474 189.52347 409.42185 c 0
 187.90595 411.97597 186.89158 414.40802 186.40237 417.85935 c 0
 185.61265 423.4309 185.83444 425.21359 185.84964 426.81638 c 0
 185.87387 429.37674 186.1942 431.63915 186.75003 434.39645 c 0
 187.26082 436.93046 188.175 440.31539 189.1055 442.71872 c 0
 190.47646 446.25949 190.3258 445.92001 191.43753 448.52927 c 0
 192.03748 449.93742 192.80271 451.38981 193.87308 453.49997 c 0
 196.0446 457.78103 199.4755 462.41262 203.59964 467.70895 c 0
 207.04184 472.1295 214.6923 480.87956 218.97855 485.25974 c 0
 225.11595 491.53153 229.45409 496.07006 233.45901 500.04099 c 0
 234.76612 501.58351 237.02722 504.03975 247.87112 514.74411 c 0
 271.02036 537.59548 276.97438 543.53461 284.53909 551.12302 c 0
 292.10491 558.71258 297.27142 563.8947 302.54886 569.47653 c 0
 305.73198 572.8432 306.4027 573.43329 308.84378 576.14255 c 0
 311.58751 579.1877 309.51391 576.85922 312.62308 580.32028 c 0
 313.211 580.97476 313.95091 581.93253 314.35159 582.61716 c 0
 314.81771 583.41362 315.09658 583.93878 315.42776 584.63278 c 0
 315.80201 585.41695 316.02653 586.1359 316.09573 586.48239 c 0
 316.38147 587.91155 316.2323 587.80967 316.08203 588.78903 c 0
 315.99645 589.34675 315.70831 589.97994 315.32422 590.63278 c 0
 315.25688 590.73669 315.22645 590.83406 315.15625 590.93942 c 0
 314.69705 591.64647 314.09613 592.3852 313.31641 593.13083 c 0
 311.15997 595.19295 308.45539 596.73012 307.05469 597.10544 c 0
 306.16592 597.3435 305.20032 597.57725 304.69922 597.67185 c 0
 303.63996 597.87183 303.14867 597.90813 302.61914 597.94333 c 0
 302.0876 597.97873 301.62544 598.00393 300.55859 597.99023 c 0
 296.81527 597.94195 290.50221 596.87099 285.44727 595.06445 c 0
 261.25001 586.41682 228.16558 561.72111 214.61719 551.83398 c 0
 184.42348 529.79974 112.81689 473.54116 74.193359 437.15625 c 0
 61.832112 424.71185 49.258968 412.4456 36.529297 400.4043 c 2
 36.238281 400.13086 l 1
 35.839844 400.13086 l 2
 31.0504182069 400.135032414 25.0832038224 400.136327301 19.5207806826 400.136327301 c 0
 10.4186337268 400.136327301 2.4003906 400.13286 2.4003906 400.13286 c 1
 0.0078125 400.13086 l 1
 1.6875 401.83398 l 1
 1.6875 401.83398 20.942156 421.35517 39.339844 440.42383 c 0
 57.751475 459.50686 88.146608 490.30268 110.79297 513.60547 c 0
 133.44352 536.91253 139.26873 542.96788 146.66797 550.70508 c 0
 154.0683 558.44344 159.12326 563.72678 164.2793 569.41211 c 0
 167.38918 572.84122 168.04741 573.44615 170.42969 576.20312 c 0
 173.10732 579.30192 171.08311 576.93126 174.11719 580.45312 c 0
 174.69088 581.11906 175.41091 582.0911 175.79688 582.7832 c 0
 176.24596 583.58845 176.51168 584.12019 176.82812 584.82031 c 0
 177.1857 585.6114 177.39718 586.33258 177.45898 586.67969 c 0
 177.71462 588.11317 177.56693 588.00909 177.39648 588.98438 c 0
 177.29945 589.53962 176.99684 590.16638 176.59961 590.81055 c 0
 176.53024 590.91286 176.49808 591.00957 176.42578 591.11328 c 0
 175.95245 591.80999 175.3373 592.53503 174.54297 593.26367 c 0
 172.34968 595.27555 169.64516 596.71828 168.18555 597.10938 c 2
 168.70312 599.04102 l 1
 169.72375 598.76754 170.95282 598.21286 172.23438 597.45117 c 0
 174.18853 596.38468 176.19012 594.94366 177.89062 592.56055 c 0
 177.95457 592.47097 177.98087 592.38207 178.04297 592.29297 c 0
 178.16592 592.11526 178.24358 591.93187 178.35156 591.75195 c 0
 180.02405 589.23076 181.08749 586.8206 181.64844 583.37891 c 0
 182.55288 577.82964 182.36862 576.0427 182.38672 574.44141 c 0
 182.41563 571.8832 182.14453 569.61751 181.64648 566.85156 c 0
 181.18878 564.30969 180.34453 560.90838 179.46484 558.48828 c 0
 178.16877 554.92281 178.31228 555.26625 177.25586 552.63672 c 0
 176.68575 551.21757 175.95123 549.74927 174.92578 547.61914 c 0
 172.84533 543.29749 169.51378 538.60083 165.50391 533.22461 c 0
 162.157 528.73727 154.69671 519.8394 150.50586 515.375 c 0
 135.84791 499.76043 115.2382 478.94662 96.984375 460.34375 c 1
 136.47231 494.62309 188.6989 535.39591 213.4375 553.44922 c 0
 226.95422 563.31323 259.99073 588.0897 284.77539 596.94727 c 0
 290.08486 598.84477 296.44966 599.93753 300.5332 599.99023 c 1
EndSplineSet
Validated: 4718593
EndChar
